<?xml version="1.0" encoding="utf-8"?>
<!-- Generator: Adobe Illustrator 23.0.6, SVG Export Plug-In . SVG Version: 6.00 Build 0)  -->
<svg version="1.1" id="Capa_1" xmlns="http://www.w3.org/2000/svg" xmlns:xlink="http://www.w3.org/1999/xlink" x="0px" y="0px"
	 viewBox="0 0 439 328" style="enable-background:new 0 0 439 328;" xml:space="preserve">
<style type="text/css">
	.st0{fill:#02C8A7;}
	.st1{fill:#FFFFFF;}
	.st2{fill:#FFFF88;}
</style>
<path class="st0" d="M397.57,173.9c-1.2-1.01-31.19-40.67-31.24-40.77c-1.08-2.95-1.04-100.98-8.14-104.73
	c-8.1-4.28-76.56,37-81.57,39.37c-16.2-17.61-33.56-34.12-52-49.4c-6.66-5.52-16.34-8.22-24.24-3.13
	c-7.13,4.6-12.95,71.04-13.81,72.83C183,86.2,95.6,40.58,86.44,46.49c-9.01,5.81-12.95,17.77-7.17,27.36
	c3.62,6.01,20.66,47.31,22.14,53.26c-4.97,0.33-38.77,3-40.44,2.89c-0.28-0.02-30.93,0.44-34.54,8.99
	c-3.71,8.78,24.95,34.44,32.88,39.92c-11.87,9.86-21.84,22.09-28.92,35.64c-3.99,7.63-3.58,18.08,3.13,24.24
	c7.12,6.53,28.58,1.24,30.75,0.3c-2.71,8.82,0.71,42.65,7.76,45.63c7.63,3.22,15.76,1.34,21.85-4.14
	c5.59-5.03,47.29-32.91,60.39-42.77c4.46,5.48,67.09,56.83,73.71,44.68c5.05-9.28,9.58-18.88,13.56-28.69
	c5.78,2.03,55.52,21.21,63.37,26.27c10.97,7.07,26.04,0.04,29.38-11.95c5.34-19.14,9.97-38.45,13.92-57.91
	c13.33,1.08,57.61-4.75,59.49-13C409.83,187.86,397.7,174,397.57,173.9z"/>
<g>
	<g>
		<path class="st1" d="M59.68,187.5c-13.42,17.64-26.84,35.29-40.27,52.93c-1.41,1.86-0.86,5,0.47,6.66
			c1.56,1.96,3.86,2.66,6.31,2.15c18.36-3.8,36.72-7.6,55.08-11.41c-2.46-2.46-4.92-4.92-7.38-7.38
			c-6.27,29.01-15.1,57.43-26.36,84.9c-0.88,2.16,0.45,5.03,2.15,6.31c1.83,1.37,4.64,1.82,6.66,0.47
			c27.15-18.09,53.19-37.89,77.86-59.24c6.98-6.04,13.85-12.22,20.61-18.5c-2.42,0.31-4.85,0.63-7.27,0.94
			c19.77,14.19,37.94,31.38,53.48,50.43c4.37,5.35,8.38,10.72,12.39,16.5c2.54,3.65,7.91,4.08,10.36,0
			c12.89-21.44,23.14-44.48,30.48-68.39c-2.94,1.2-5.88,2.39-8.81,3.59c28.98,14.52,56.55,31.77,82.27,51.5
			c1.64,1.26,4.38,0.98,6.06,0c2.01-1.18,2.68-3,2.97-5.18c3.83-28.6,12.22-57.16,24.46-83.47c-1.73,0.99-3.45,1.98-5.18,2.97
			c24.35-2.42,48.7-4.83,73.06-7.25c2.42-0.24,4.53-1.31,5.48-3.69c0.88-2.18,0.53-4.87-1.24-6.55
			c-10.03-9.56-20.05-19.12-30.08-28.68c-5.01-4.78-10.03-9.56-15.04-14.34c-4.35-4.15-9.04-8.17-12.77-12.91
			c-3.08-3.92-4.55-8.38-4.76-13.87c-0.26-7.03-0.26-14.08-0.38-21.11c-0.24-14.01-0.48-28.02-0.72-42.03
			c-0.27-15.83-0.54-31.67-0.81-47.5c-0.08-4.65-5.01-7.34-9.03-5.18c-23.27,12.51-45.26,27.24-65.79,43.86
			c-5.79,4.69-11.45,9.54-16.98,14.53c2.42-0.31,4.85-0.63,7.27-0.94c-21.72-16.44-42.2-34.64-61.19-54.18
			c-5.51-5.67-10.89-11.46-16.15-17.35c-3.58-4.02-10.15-0.71-10.24,4.24c-0.26,13.29-0.9,26.57-1.94,39.81
			c-0.52,6.62-1.14,13.24-1.86,19.85c-0.67,6.12-1.12,12.4-2.3,18.45c-0.02,0.11-0.33,1.62-0.42,1.61c-0.26-0.05,0.83-1.1,0.88-1.14
			c0.42-0.13,0.84-0.25,1.25-0.38c-0.74-0.02-0.84-0.03-0.3-0.02c-0.68-0.14-1.35-0.37-2.01-0.57c-3.07-0.91-6.14-1.86-9.2-2.81
			c-6.12-1.91-12.22-3.89-18.3-5.93c-12.16-4.09-24.22-8.46-36.18-13.1c-13.22-5.13-26.3-10.6-39.24-16.39
			c-2.25-1.01-4.62-1.16-6.66,0.47c-1.89,1.51-2.77,3.92-2.15,6.31c7.51,29.16,15.09,58.29,22.74,87.41
			c1.93-2.53,3.86-5.06,5.79-7.6c-32.77,0.59-65.56-1.03-98.12-4.83c-2.57-0.3-5.15,2.08-5.79,4.4c-0.77,2.79,0.62,5.13,2.76,6.78
			c21.19,16.34,40.21,36.64,55.3,58.77c1.82,2.67,5.27,3.87,8.21,2.15c2.65-1.55,3.99-5.52,2.15-8.21
			c-16.43-24.1-36.51-45.27-59.6-63.08c-1.01,3.73-2.02,7.45-3.03,11.18c32.56,3.81,65.35,5.42,98.12,4.83
			c3.92-0.07,6.79-3.78,5.79-7.6c-7.65-29.12-15.23-58.26-22.74-87.41c-2.94,2.26-5.88,4.52-8.81,6.78
			c25.1,11.25,50.71,21.36,76.76,30.19c6.45,2.19,12.93,4.29,19.44,6.33c3.32,1.04,6.64,2.06,9.97,3.04
			c3.5,1.03,7.12,1.38,10.36-0.65c2.92-1.84,4.29-5.16,4.78-8.44c0.57-3.82,1.03-7.65,1.5-11.48c0.86-7.01,1.61-14.03,2.25-21.06
			c1.44-15.86,2.3-31.76,2.61-47.68c-3.41,1.41-6.83,2.83-10.24,4.24c18.67,20.92,38.91,40.43,60.55,58.26
			c6.3,5.19,12.71,10.23,19.22,15.15c2.17,1.64,5.46,0.7,7.27-0.94c18.97-17.11,39.42-32.34,61.27-45.61
			c6.26-3.8,12.62-7.43,19.07-10.9c-3.01-1.73-6.02-3.45-9.03-5.18c0.49,28.72,0.98,57.45,1.48,86.17
			c0.12,7.15,0.24,14.29,0.37,21.44c0.12,6.96,0.83,13.64,4.37,19.79c3.01,5.22,7.36,9.56,11.69,13.7
			c5.09,4.86,10.19,9.72,15.28,14.57c11.63,11.09,23.26,22.18,34.89,33.27c1.41-3.41,2.83-6.83,4.24-10.24
			c-22.69,2.25-45.38,4.5-68.07,6.75c-3.53,0.35-8.1-0.02-10.16,3.47c-1.36,2.3-2.3,5.02-3.36,7.47c-2.22,5.13-4.34,10.3-6.29,15.53
			c-3.73,9.98-6.93,20.17-9.57,30.49c-3.03,11.87-5.25,23.89-6.88,36.03c3.01-1.73,6.02-3.45,9.03-5.18
			c-25.72-19.73-53.29-36.98-82.27-51.5c-3.51-1.76-7.62-0.29-8.81,3.59c-7.06,23-16.86,44.89-29.27,65.53c3.45,0,6.91,0,10.36,0
			c-14.82-21.33-32.35-40.74-52.3-57.39c-5.79-4.83-11.76-9.44-17.89-13.84c-2.2-1.58-5.45-0.76-7.27,0.94
			c-23.24,21.62-47.8,41.81-73.58,60.34c-7.39,5.31-14.88,10.49-22.46,15.53c2.94,2.26,5.88,4.52,8.81,6.78
			c11.26-27.46,20.09-55.89,26.36-84.9c1-4.62-2.79-8.33-7.38-7.38c-18.36,3.8-36.72,7.6-55.08,11.41c2.26,2.94,4.52,5.88,6.78,8.81
			c13.42-17.64,26.84-35.29,40.27-52.93c1.96-2.58,0.4-6.71-2.15-8.21C64.81,183.55,61.65,184.91,59.68,187.5L59.68,187.5z"/>
	</g>
</g>
<path class="st2" d="M203.97,155.42c-0.59-9.19-3.8-27.68-14.57-30.85c-2.48-2.06-5.51-3.37-8.76-2.6
	c-5.59,1.33-7.49,8.48-8.53,13.33c-3.1,7.4-3.9,16.79-3.94,22.67c-0.02,2.82,1.88,4.4,4.03,4.75c0.06,1.69,0.18,3.38,0.36,5.06
	c0.04,0.37,0.09,0.76,0.14,1.16c-1.01-1.44-2.44-2.49-4.11-3.16c-0.34-0.54-0.71-1.06-1.13-1.57c-4.82-5.82-12.26-4.71-18.76-1.86
	c-0.01-0.05-0.02-0.11-0.04-0.16c-0.92-3.26-2.64-5.37-4.85-6.64c-1.32-1.63-2.87-2.62-4.57-3.12c-5.63-2.91-13.46-1.8-19.16,0.94
	c-2.38,1.14-5.17,2.46-7.15,4.38c-3.06-2.82-8.62,1.14-7.98,5.55c0.11,0.72,0.25,1.43,0.42,2.13c0.02,0.73,0.23,1.51,0.67,2.29
	c1.57,4.65,4.33,8.92,7.2,13.06c2.98,5.68,6.17,11.25,9.6,16.7c0.53,0.84,1.17,1.43,1.87,1.81c0.78,1.46,1.55,2.92,2.3,4.4
	c2.14,4.67,4.3,9.33,6.53,13.96c2.59,5.4,9.75,1.52,9.03-3.62c4.9-3.87,9.85-8.03,14.28-12.6c2.49-2.24,4.82-4.66,6.94-7.28
	c3.76-4.65,9.08-11.4,10.19-17.82c1.99,8.73,6.1,18.68,14.28,19.52c0.48,0.05,0.95,0.06,1.4,0.06c3.02,1.28,6.44,0.28,8.7-2.98
	c3.5-5.02,4.16-11.36,4.8-17.27C203.89,168.95,204.41,162.17,203.97,155.42z M127.27,179.76c-0.47-1.09-0.95-2.18-1.41-3.27
	c-1.01-2.4-2-4.8-2.99-7.2c-0.09-0.22-0.21-0.47-0.35-0.74c3.34-1.7,6.82-3.06,10.5-3.92c1.17-0.27,2.25-0.49,3.17-0.53
	c0.05,0.41,0.03,0.84-0.04,1.28c0,0.01,0,0.01-0.01,0.02c-1.03,3.08-3.51,5.96-5.24,8.66C129.69,175.96,128.48,177.86,127.27,179.76
	z M153.33,181.36c-4.34,7.74-9.94,14.76-15.49,21.72c-0.76-1.57-1.53-3.13-2.32-4.69c-0.81-1.77-1.6-3.54-2.39-5.31
	c3.28-2.96,6.96-6.76,9.98-10.96l9.87-3.65c0.85-0.32,1.71-0.65,2.57-0.99C154.81,178.86,153.97,180.2,153.33,181.36z M193.2,173.18
	c-0.29,2.92-0.76,6.14-1.75,8.99c-0.66-1.47-1.27-2.84-1.52-3.37c-1.68-3.45-3.28-6.95-4.61-10.55c-1.28-3.46-2.37-7-3.15-10.6
	c0.04-1.86,0.13-3.72,0.26-5.58c0.07-0.99,0.11-8.83,1.08-9.27c3.62-1.66,3.05-5.59,0.71-7.71c0.3-0.24,0.6-0.39,0.9-0.48
	c3.58,4.93,5.22,12.41,6.55,18.06C193.23,159.38,193.88,166.31,193.2,173.18z"/>
<path class="st2" d="M240.74,134.72c-1.51-5.72-3.34-13.07-8.25-16.92c-3.62-2.85-7.99-2.98-11.81-1.36
	c-5.89,0.44-9,6.45-10.59,12.86c-4.02,11.01-2.52,24.64-1.1,35.46c0.41,3.14,3.12,4.73,5.62,4.75c0.42,0.87,0.86,1.74,1.32,2.59
	c1.53,3.81,3.48,7.5,6.37,10.28c3.9,3.76,10.23,5.78,14.69,1.82c4.29-3.8,5.27-11.61,6.02-16.94c0.15-1.09,0.27-2.19,0.36-3.28
	C244.42,154.18,243.1,143.68,240.74,134.72z M222.1,158.75c-2.42-9.65-2.68-19.72-0.92-29.49c0.36-0.64,0.74-1.25,1.19-1.79
	c0.06-0.07,0.12-0.14,0.18-0.2c3.78,1.02,9.14,16.33,9.75,18.93c0.52,2.21,0.88,4.46,1.11,6.73c0.09,2.06,0.1,4.12,0.02,6.19
	c-0.16,3.95-0.47,8.06-1.6,11.87c-0.23,0.76-1.5,4.5-1.48,4.48c0.1-0.06,0.36,0.54-0.53-0.52c-0.89-1.08-1.72-2.2-2.5-3.36
	c-0.93-1.39-1.79-2.82-2.58-4.29C223.65,164.5,222.81,161.59,222.1,158.75z"/>
<path class="st2" d="M304.43,161.01c0.3-14.44-1.16-28.81-4.31-42.88c-0.89-5.73-1.9-11.44-3.04-17.12c-0.99-4.94-8.44-4.59-9.64,0
	l-0.86,3.29c-0.44,0.47-0.81,1.04-1.09,1.73c-1.08,2.71-2.04,5.45-2.88,8.22c-1.7,4.52-3.5,9.04-4.95,13.62
	c-1.37-1.91-2.81-3.78-4.31-5.59c-1.34-2.14-2.67-4.29-3.96-6.47c0-0.5,0-1,0.01-1.5c0.01-0.93-0.2-1.72-0.55-2.38
	c-0.12-1.23-0.23-2.45-0.35-3.67c-0.55-5.71-8.29-6.44-9.74-1.62c-1.95,0.98-3.38,3.11-2.77,5.72c1.04,4.46,1.83,8.94,2.4,13.44
	c-0.14,6.69-0.17,13.38-0.09,20.07c-0.05,8.98-0.1,17.95-0.15,26.93c-0.04,6.44,9.95,6.44,10,0l0-0.28
	c1.71-0.57,3.11-2.08,3.22-4.55c0.43-9.92,0.2-19.82-0.38-29.7c1.29,2.08,2.57,4.16,3.81,6.27c0.01,1.41,0.1,2.83,0.27,4.27
	c0.42,3.46,3.89,5.48,6.65,4.77c2.9,0.66,6.4-1.28,6.29-4.78c-0.12-4.01,0.01-7.98,0.36-11.91c0.55-2.1,1.1-4.2,1.66-6.31
	c1.19,14.34,2.37,28.69,3.56,43.03c0.52,6.32,10,6.53,10,0c0-1.43,0-2.87,0-4.3c0-0.91-0.21-1.68-0.55-2.34
	c-0.06-0.77-0.13-1.54-0.19-2.32C303.76,163.85,304.4,162.64,304.43,161.01z"/>
<path class="st2" d="M339.8,97.47c-2.18,0.19-4.35,0.45-6.51,0.76c-0.82-5.79-10.07-5.64-9.94,0.61c0.04,1.75,0.06,3.5,0.09,5.25
	c-0.81,0.8-1.34,1.94-1.33,3.43c0.09,8.85,0.19,17.7,0.28,26.55c-0.77,9.85-1.83,19.68-2.93,29.5c-0.6,5.41,6.49,6.2,9.1,2.46
	c2.1-0.37,3.99-1.95,4.11-4.74c0.15-3.59,0.27-7.19,0.38-10.78c1.84-6.34,4.45-12.56,5.65-19.01c1.73-9.32,2.6-18.74,5.91-27.7
	C345.69,100.91,342.88,97.19,339.8,97.47z"/>
<path class="st2" d="M323.74,181.04c0.12-1.86-0.85-3.8-2.47-4.74c-2.42-1.42-5.38-0.48-6.84,1.79c-1.77,2.74-3.37,6.92-2.96,10.53
	c-0.02,0.98,0.09,1.97,0.35,2.96c0.92,3.44,4.3,4.16,6.84,3.06c0.09-0.03,0.19-0.06,0.28-0.1c2.63-0.62,5.16-2.73,6.37-5.2
	C326.85,186.14,325.93,182.92,323.74,181.04z"/>
</svg>
