<?xml version="1.0" encoding="utf-8"?>
<!-- Generator: Adobe Illustrator 23.0.6, SVG Export Plug-In . SVG Version: 6.00 Build 0)  -->
<svg version="1.1" id="Capa_1" xmlns="http://www.w3.org/2000/svg" xmlns:xlink="http://www.w3.org/1999/xlink" x="0px" y="0px"
	 viewBox="0 0 310.6 316" style="enable-background:new 0 0 310.6 316;" xml:space="preserve">
<style type="text/css">
	.st0{fill:#333333;}
</style>
<g>
	<path class="st0" d="M182.8,289.4c-1.3-0.8-2.7-1.7-4-2.5c0.6-2.2,0.6-4.7-0.4-7.4c-7.6-22.4-18.5-45.7-23-68.9
		c-3.4-17.5,20.8-22,28.2-36.2c4.2-8.1,0.7-18.3-8.5-20.9c-16.2-4.4-31.5-10.3-46.2-17.6c10.2-6.2,20.4-12.3,30.6-18.5
		c7.9-4.8,9.3-15.7,2.9-22.3c-19.1-19.6-39-38.6-59.7-56.6c-9-7.9-18.2-15.6-27.6-23.1C67.2,8.8,58.7,0.2,47.6,0
		C27.2-0.4,11.5,22.7,5.3,39.5C-3,62.2,0.1,87,6.8,109.6C32,194.8,92.7,268.5,168.5,313.9C184.2,323.3,198.5,298.8,182.8,289.4z
		 M88.8,85.5c0.1-0.8,0.2-1.6,0.3-2.4c1.2-10-9.2-15.2-17.7-13.5c-5.1-12.4-10.9-24.5-17.3-36.4c6.6,4.5,14.3,13.1,18.8,16.9
		c7.8,6.6,15.6,13.4,23.2,20.3c3.9,3.6,7.8,7.2,11.7,10.8c-0.1,0.8-0.2,1.6-0.2,2.4c-1,0.2-2.1,0.5-3.1,1
		C99.8,81.4,93.5,81.1,88.8,85.5z M140.3,175.2c-0.4-1.3-0.8-2.6-1.3-3.8c1.5,0.6,2.9,1.1,4.4,1.6
		C142.3,173.7,141.3,174.4,140.3,175.2z"/>
	<path class="st0" d="M301,60.6c-15.2-32.3-60.4-62.1-94.8-38.8c-17.8,12.1-20.9,38.4-23.4,58c-2.6,20.3-0.1,41.5,13.4,57.7
		c1.8,2.1,8.6,9.1,15,13.4c-1.4,1.6-2.6,3.1-3,3.6c-3.2,3.7-6.2,7.6-9,11.6c-13.8,19.7-20.4,43.6-20.3,67.6
		c0,6.7,4.5,11.5,10.4,13.7c2.4,0.9,4.8,1.8,7.2,2.7c0.5,0.2,1.1,0.4,1.6,0.5c3.5,9.3,6.3,18.8,8.6,28.5c2.6,11,16.1,12.9,23.7,6.3
		c30.9-26.9,54.2-61.3,68.1-99.8C312.7,146.6,319.2,99.1,301,60.6z"/>
</g>
</svg>
