<?xml version="1.0" encoding="utf-8"?>
<!-- Generator: Adobe Illustrator 23.0.6, SVG Export Plug-In . SVG Version: 6.00 Build 0)  -->
<svg version="1.1" id="Capa_1" xmlns="http://www.w3.org/2000/svg" xmlns:xlink="http://www.w3.org/1999/xlink" x="0px" y="0px"
	 viewBox="0 0 1125 483" style="enable-background:new 0 0 1125 483;" xml:space="preserve">
<style type="text/css">
	.st0{fill:#02C8A7;}
	.st1{fill:#FFFFFF;}
</style>
<g>
	<path class="st0" d="M938.52,287.3c50.96-4.8,102.35-7.73,153.33-5.11c-0.97-0.81-1.98-1.6-2.91-2.45
		c-6.4-5.8-11.65-12.18-15.89-19.2c-4.96-1.55-9.81-3.32-14.54-5.33c-10.17-7.47-20.15-15.25-29.99-23.25
		c-18.93-21.2-40.01-40.09-62.93-56.8c8.3-7.35,16.14-15.19,23.69-23.35c1.13-1.92,2.65-3.79,4.62-5.55
		c3.85-17.78,16.76-32.19,30.54-45.47c1.92-1.85,4.17-3.81,6.61-5.86c-5.19-11.79-19.38-20.35-31.97-11.59
		c-0.28,0.19-0.56,0.39-0.83,0.58c-0.29-0.01-0.59,0.02-0.88,0.02c-37.9,20.95-79.2,44.82-121.49,44.67
		c-33.26-0.12-42.33-26.79-61.1-48.66c-16.06-18.71-31.25-36-37.84-57.82c-3.49,0.94-6.79,2.98-9.56,6.44
		c-3.84,4.79-7.93,9.22-12.2,13.41c-6.49,2.02-12.14,6.7-14.8,12.93c-19.36,15.11-41.48,26.41-64.02,37.23
		c1.25-1.67,2.09-3.47,2.72-5.31c-8.22,5.43-16.43,10.89-24.46,16.61c-1.6,1.14-3.31,1.94-5.06,2.49c-0.76,0.83-1.5,1.68-2.27,2.48
		c-3.48,3.64-7.32,5.66-11.17,6.44c-1.75,1.28-3.47,2.6-5.25,3.85c-15.39,10.87-40.08-7.5-32.97-25.35
		c4.95-12.43,9.95-24.34,16.27-35.55c-1.41,0.02-2.85,0.11-4.34,0.35c-2.62,0.43-5.18,0.98-7.73,1.58c2.87-5.33,5.87-10.63,9-15.87
		c4.41-7.39,4.17-14.49,1.28-20.22c-52.69,45.61-114.51,81.37-171.54,120.51c-14.35,9.85-33.78-3.31-33.78-19.38v-8.48
		c0-6.66,2.4-11.75,6.06-15.34l-4.74-26.41c-1.57-1.91-2.93-4.07-3.91-6.58c-0.47-1.2-0.89-2.41-1.29-3.61
		c-0.75-0.74-1.54-1.43-2.39-2.04c0.34-0.92,0.64-1.86,0.97-2.79c-2.01-7.75-2.82-15.64-3.11-23.61c-5-4.05-7.5-10.39-7.67-16.86
		c-4.06-1.19-8.42-1.32-12.52-0.34c-7.63,12.39-14.53,25.12-18.93,39.07c-2.09,6.64-6.21,10.96-11.12,13.35
		c-13.94,28.36-32.66,54.5-47.19,82.51c-53.49-32.6-106.98-65.2-160.47-97.81c-15.79-9.62-39.91,6.6-32.97,25.35
		c16.47,44.55,36.83,87.2,61.15,127.74c21.1,7.7,18.63,44.32-7.5,43.49c-27.15-0.86-51.58,4.97-76.82,14.74
		c-20.29,7.85-37.71,20.35-56.74,30.09c0.34,1.32,0.8,2.58,1.34,3.8c48.43-7.08,96.77-16.39,145.8-10.37
		c6.32,0.78,11.24,3.62,14.76,7.52c3.5-0.45,6.99-0.92,10.47-1.48c3.82,1.87,7.76,3.41,11.78,4.71c11.5-5.86,23.45-9.02,33.71-4.3
		c18.92,8.71,12.32,31.25-2.6,38.65h2.35c-19.44,8.59-37.27,20.24-54.35,33.23c-3.72,3.03-7.46,6.04-11.13,9.14
		c-6.15,5.18-7.69,12.16-6.29,18.78c29.48-12,60.74-20.24,91.34-27.31c24.58-5.68,49.39-10.15,74.04-15.49
		c26.71-5.79,53.66-12.17,81.1-9.36c6.22-0.92,12.54-1.67,18.75-1.83c2.04-0.21,4.07-0.49,6.12-0.68
		c13.62-6.72,34.02,3.37,32.38,20.08c-1.58,16.21-4.91,31.81-9.15,47.12c-2,10.65-4.51,21.22-7.45,31.67
		c34.5-26.76,68.37-54.69,108.39-72.72c12-5.41,23.04-2.6,30.71,8.05c1.81,2.51,3.45,5.11,5.01,7.74c0.4-0.21,0.8-0.41,1.21-0.62
		c5.69,8.08,11.89,15.61,18.6,22.62c13.73,18.17,29.81,34,48.37,48.23c0.89,0.69,1.86,1.22,2.85,1.68c0.73,3.25,1.48,6.5,2.19,9.76
		c1.89,8.72,8.1,13.69,15.28,15.33c0.13-1.92,0.49-3.93,1.21-6.05c7.79-23.1,16.19-45.98,24.39-68.93
		c4.14-11.59,8.22-23.19,12.11-34.87c2.13-6.41,3.76-13.34,6.31-19.56c0.33-0.81,1.48-6.4,2.7-7.48c-0.06-1.58,0.03-3.21,0.3-4.91
		c0.12-1.68,0.52-3.29,1.15-4.84c-0.54-20.58,29.86-34.39,41.57-12.4c23.17,43.53,32.42,90.23,32.86,137.76
		c0.98,1.74,1.95,3.48,2.94,5.21c1.69-0.22,3.35-0.62,4.96-1.15c4.46-17.53,9.73-34.79,16.62-51.63c0.31-0.75,0.73-1.41,1.11-2.1
		c5.09-23.6,9.91-47.22,16.14-70.11c3.98-14.61,5.93-31.46,14.82-44.43c4.28-6.24,9.6-9.95,15.12-11.47
		c0.23-0.51,0.49-1.01,0.72-1.52c5.44,0.57,10.89,1.14,16.33,1.71c7.68,2.06,15.33,4.27,22.96,6.55
		C930.69,289.04,934.29,287.69,938.52,287.3z"/>
	<g>
		<g>
			<path class="st1" d="M182.42,242.12c-39.8-58.4-73.36-124.46-75.72-196.45c-0.75,0.43-1.5,0.86-2.26,1.3
				c48.07,27.5,96.14,55.01,144.21,82.51c11.84,6.77,23.55,13.87,35.57,20.33c8.36,4.5,17.96,7.19,25.14-0.79
				c3.4-3.78,5.64-8.67,8.12-13.06c3.28-5.8,6.56-11.6,9.83-17.39c6.92-12.24,13.84-24.48,20.76-36.72
				c15.3-27.06,30.59-54.12,45.89-81.17c-0.93-0.25-1.86-0.5-2.8-0.76c0.23,45.96,9.29,91.5,26.74,134.03
				c0.34,0.82,1.32,1.5,2.2,0.9C487.25,89.08,556.2,46.02,626.78,5.79c-0.68-0.68-1.37-1.37-2.05-2.05
				c-17.01,37.91-26.56,78.68-28.08,120.2c-0.03,0.91,1,1.78,1.9,1.45c66.96-25.01,128.8-62.56,181.87-110.45
				c-0.85-0.35-1.71-0.71-2.56-1.06c2.09,40.6,29.85,72.81,57.72,99.78c6.23,6.03,13.19,14.88,21.32,18.34
				c9.29,3.95,20.97-3.29,29.54-6.48c24.1-8.99,48.19-17.98,72.29-26.97c27.59-10.29,55.18-20.58,82.77-30.87
				c-0.56-0.73-1.13-1.47-1.69-2.2c-25.03,35.19-50.06,70.38-75.09,105.57c-0.37,0.51-0.23,1.4,0.23,1.82
				c52.15,47.04,104.3,94.08,156.44,141.12c0.35-0.85,0.71-1.71,1.06-2.56c-60.32-0.09-120.56-6.39-179.57-18.96
				c-14.79-3.15-29.43-6.8-44.06-10.61c-10.14-2.64-20.07-3.28-26.2,6.68c-2.89,4.69-4.48,10.26-6.32,15.4
				c-2.44,6.85-4.84,13.72-7.2,20.6c-4.95,14.45-9.7,28.96-14.27,43.54c-10.21,32.62-19.43,65.55-27.71,98.72c0.96,0,1.93,0,2.89,0
				c-9.82-42.01-31.35-80.62-61.88-111.09c-0.82-0.82-2.17-0.4-2.51,0.66c-14.08,44.35-33.89,86.66-58.92,125.89
				c0.79-0.1,1.57-0.2,2.36-0.3c-36.17-44.65-78.2-84.27-124.86-117.82c-0.4-0.29-1.12-0.28-1.51,0
				c-53.27,37.72-108.32,72.87-164.95,105.32c0.68,0.68,1.37,1.37,2.05,2.05c24.32-33.42,37.66-73.87,38.06-115.2
				c0.01-1.05-0.96-1.61-1.9-1.45c-75.9,13.16-151.8,26.33-227.7,39.49c-21.63,3.75-43.27,7.5-64.9,11.26
				c0.49,0.84,0.97,1.67,1.46,2.51c36.45-29.6,71.18-61.24,104.05-94.77c0.53-0.54,0.63-1.6,0-2.12
				c-23.13-19-55.8-16.88-83.94-17.07c-37.29-0.25-74.59,0.3-111.86,1.65c-21.03,0.76-42.06,1.79-63.06,3.05
				c0.25,0.93,0.5,1.86,0.76,2.8c54.55-29.05,115.12-45.73,176.85-48.68c1.92-0.09,1.93-3.09,0-3
				c-62.26,2.98-123.34,19.79-178.36,49.09c-1.29,0.68-0.73,2.88,0.76,2.8c45.34-2.73,90.74-4.3,136.15-4.67
				c21.77-0.18,43.61-0.39,65.37,0.35c19.34,0.66,39.74,3.11,55.22,15.82c0-0.71,0-1.41,0-2.12
				c-32.86,33.53-67.6,65.17-104.05,94.77c-1.29,1.04,0.16,2.73,1.46,2.51c75.9-13.16,151.8-26.33,227.7-39.49
				c21.63-3.75,43.27-7.5,64.9-11.26c-0.63-0.48-1.27-0.96-1.9-1.45c-0.4,40.84-13.62,80.67-37.65,113.68
				c-0.92,1.27,0.84,2.75,2.05,2.05c42.94-24.6,84.99-50.73,126.02-78.4c10.11-6.82,20.15-13.72,30.14-20.72
				c1.8-1.26,4.9-4.5,7.04-4.95c2.51-0.54,4.73,2,6.63,3.4c5.2,3.82,10.34,7.73,15.42,11.71c17.61,13.81,34.49,28.56,50.55,44.15
				c18.42,17.89,35.73,36.89,51.89,56.85c0.64,0.79,1.88,0.44,2.36-0.3c25.16-39.44,45.07-82.02,59.22-126.61
				c-0.84,0.22-1.67,0.44-2.51,0.66c30.19,30.13,51.4,68.24,61.11,109.77c0.34,1.44,2.54,1.42,2.89,0
				c13.91-55.75,30.53-110.81,49.91-164.91c2.19-6.1,4.21-14.04,10-17.8c6.62-4.3,15.37-0.84,22.26,0.98
				c13.91,3.67,27.92,6.98,42,9.95c26.88,5.66,54.04,10.03,81.34,13.13c32.18,3.64,64.54,5.44,96.92,5.49
				c1.25,0,2.04-1.67,1.06-2.56c-32.73-29.52-65.46-59.05-98.19-88.57c-16.09-14.51-32.18-29.02-48.26-43.54
				c-2.17-1.96-4.69-3.85-6.66-6c-2.03-2.23-2.02-2.21-0.5-4.83c2.94-5.07,6.96-9.78,10.36-14.56c6.26-8.8,12.52-17.6,18.77-26.39
				c14.46-20.33,28.91-40.65,43.37-60.98c0.74-1.04-0.5-2.65-1.69-2.2c-45.05,16.8-90.1,33.61-135.15,50.41
				c-11.18,4.17-22.34,8.36-33.53,12.51c-5.71,2.12-10.94,3.72-16.52,0.09c-4.41-2.87-8.2-7.13-12.01-10.73
				c-14.16-13.36-28.01-27.3-39.43-43.13C791.26,56.17,781.99,36,780.85,13.87c-0.07-1.32-1.58-1.95-2.56-1.06
				c-52.66,47.53-114.08,84.86-180.54,109.68c0.63,0.48,1.27,0.96,1.9,1.45c1.5-40.97,10.88-81.28,27.67-118.69
				c0.59-1.3-0.65-2.85-2.05-2.05c-70.59,40.23-139.54,83.28-206.66,129.05c0.73,0.3,1.47,0.6,2.2,0.9
				C403.46,90.86,394.4,45.63,394.17-0.08c-0.01-1.47-2.06-2.07-2.8-0.76c-25.49,45.1-50.99,90.19-76.48,135.29
				c-2.56,4.54-4.91,10.04-8.78,13.64c-6.71,6.23-15.34,1.94-22.08-1.82c-11.68-6.52-23.23-13.29-34.84-19.94
				c-22.26-12.74-44.52-25.47-66.78-38.21c-25.49-14.58-50.97-29.16-76.46-43.75c-0.96-0.55-2.29,0.14-2.26,1.3
				c2.38,72.52,36.03,139.12,76.13,197.96C180.91,245.22,183.51,243.72,182.42,242.12L182.42,242.12z"/>
		</g>
	</g>
</g>
</svg>
