<?xml version="1.0" encoding="utf-8"?>
<!-- Generator: Adobe Illustrator 23.0.6, SVG Export Plug-In . SVG Version: 6.00 Build 0)  -->
<svg version="1.1" id="Capa_1" xmlns="http://www.w3.org/2000/svg" xmlns:xlink="http://www.w3.org/1999/xlink" x="0px" y="0px"
	 viewBox="0 0 1125 483" style="enable-background:new 0 0 1125 483;" xml:space="preserve">
<style type="text/css">
	.st0{fill:#02C8A7;}
	.st1{fill:#FFFFFF;}
</style>
<g>
	<path class="st0" d="M939.8,287.3c51-4.8,102.3-7.7,153.3-5.1c-1-0.8-2-1.6-2.9-2.4c-6.4-5.8-11.7-12.2-15.9-19.2
		c-5-1.5-9.8-3.3-14.5-5.3c-10.2-7.5-20.2-15.3-30-23.2c-18.9-21.2-40-40.1-62.9-56.8c8.3-7.3,16.1-15.2,23.7-23.3
		c1.1-1.9,2.6-3.8,4.6-5.5c3.8-17.8,16.8-32.2,30.5-45.5c1.9-1.8,4.2-3.8,6.6-5.9c-5.2-11.8-19.4-20.4-32-11.6
		c-0.3,0.2-0.6,0.4-0.8,0.6c-0.3,0-0.6,0-0.9,0c-37.9,20.9-79.2,44.8-121.5,44.7c-33.3-0.1-42.3-26.8-61.1-48.7
		c-16.1-18.7-31.2-36-37.8-57.8c-3.5,0.9-6.8,3-9.6,6.4c-3.8,4.8-7.9,9.2-12.2,13.4c-6.5,2-12.1,6.7-14.8,12.9
		c-19.4,15.1-41.5,26.4-64,37.2c1.2-1.7,2.1-3.5,2.7-5.3c-8.2,5.4-16.4,10.9-24.5,16.6c-1.6,1.1-3.3,1.9-5.1,2.5
		c-0.8,0.8-1.5,1.7-2.3,2.5c-3.5,3.6-7.3,5.7-11.2,6.4c-1.8,1.3-3.5,2.6-5.2,3.9c-15.4,10.9-40.1-7.5-33-25.3
		c4.9-12.4,9.9-24.3,16.3-35.5c-1.4,0-2.9,0.1-4.3,0.4c-2.6,0.4-5.2,1-7.7,1.6c2.9-5.3,5.9-10.6,9-15.9c4.4-7.4,4.2-14.5,1.3-20.2
		C561,69.3,499.2,105.1,442.2,144.2c-14.4,9.9-33.8-3.3-33.8-19.4v-8.5c0-6.7,2.4-11.7,6.1-15.3l-4.7-26.4c-1.6-1.9-2.9-4.1-3.9-6.6
		c-0.5-1.2-0.9-2.4-1.3-3.6c-0.7-0.7-1.5-1.4-2.4-2c0.3-0.9,0.6-1.9,1-2.8c-2-7.8-2.8-15.6-3.1-23.6c-5-4.1-7.5-10.4-7.7-16.9
		c-4.1-1.2-8.4-1.3-12.5-0.3c-7.6,12.4-14.5,25.1-18.9,39.1c-2.1,6.6-6.2,11-11.1,13.3c-13.9,28.4-32.7,54.5-47.2,82.5
		c-53.5-32.6-107-65.2-160.4-97.8c-15.8-9.6-39.9,6.6-33,25.3c16.5,44.5,36.8,87.2,61.1,127.7c21.1,7.7,18.6,44.3-7.5,43.5
		c-27.1-0.9-51.6,5-76.8,14.7c-20.3,7.9-37.7,20.3-56.7,30.1c0.3,1.3,0.8,2.6,1.3,3.8c48.4-7.1,96.8-16.4,145.8-10.4
		c6.3,0.8,11.2,3.6,14.8,7.5c3.5-0.4,7-0.9,10.5-1.5c3.8,1.9,7.8,3.4,11.8,4.7c11.5-5.9,23.4-9,33.7-4.3
		c18.9,8.7,12.3,31.2-2.6,38.6h2.3c-19.4,8.6-37.3,20.2-54.3,33.2c-3.7,3-7.5,6-11.1,9.1c-6.1,5.2-7.7,12.2-6.3,18.8
		c29.5-12,60.7-20.2,91.3-27.3c24.6-5.7,49.4-10.2,74-15.5c26.7-5.8,53.7-12.2,81.1-9.4c6.2-0.9,12.5-1.7,18.7-1.8
		c2-0.2,4.1-0.5,6.1-0.7c13.6-6.7,34,3.4,32.4,20.1c-1.6,16.2-4.9,31.8-9.1,47.1c-2,10.6-4.5,21.2-7.4,31.7
		c34.5-26.8,68.4-54.7,108.4-72.7c12-5.4,23-2.6,30.7,8.1c1.8,2.5,3.4,5.1,5,7.7c0.4-0.2,0.8-0.4,1.2-0.6
		c5.7,8.1,11.9,15.6,18.6,22.6c13.7,18.2,29.8,34,48.4,48.2c0.9,0.7,1.9,1.2,2.9,1.7c0.7,3.3,1.5,6.5,2.2,9.8
		c1.9,8.7,8.1,13.7,15.3,15.3c0.1-1.9,0.5-3.9,1.2-6.1c7.8-23.1,16.2-46,24.4-68.9c4.1-11.6,8.2-23.2,12.1-34.9
		c2.1-6.4,3.8-13.3,6.3-19.6c0.3-0.8,1.5-6.4,2.7-7.5c-0.1-1.6,0-3.2,0.3-4.9c0.1-1.7,0.5-3.3,1.2-4.8
		c-0.5-20.6,29.9-34.4,41.6-12.4c23.2,43.5,32.4,90.2,32.9,137.7c1,1.7,2,3.5,2.9,5.2c1.7-0.2,3.3-0.6,5-1.1
		c4.5-17.5,9.7-34.8,16.6-51.6c0.3-0.7,0.7-1.4,1.1-2.1c5.1-23.6,9.9-47.2,16.1-70.1c4-14.6,5.9-31.5,14.8-44.4
		c4.3-6.2,9.6-10,15.1-11.5c0.2-0.5,0.5-1,0.7-1.5c5.4,0.6,10.9,1.1,16.3,1.7c7.7,2.1,15.3,4.3,23,6.6
		C932,289.1,935.5,287.7,939.8,287.3z"/>
	<g>
		<g>
			<path class="st1" d="M186.4,240.6c-39.5-57.9-73-123.5-75.3-194.9c-2.3,1.3-4.5,2.6-6.8,3.9c48.1,27.5,96.1,55,144.2,82.5
				c11.8,6.8,23.6,13.9,35.6,20.3c9.5,5.1,20.6,7.8,28.8-1.3c3.6-4,6-9,8.6-13.7c3.3-5.8,6.6-11.6,9.8-17.4
				c6.9-12.2,13.8-24.5,20.8-36.7c15.3-27.1,30.6-54.1,45.9-81.2c-2.8-0.8-5.6-1.5-8.4-2.3c0.2,46.2,9.3,92.1,26.8,134.8
				c1,2.5,4,4.5,6.6,2.7C490.1,91.7,559,48.7,629.6,8.5c-2.1-2.1-4.1-4.1-6.2-6.2C606.2,40.7,596.5,81.9,595,124
				c-0.1,2.7,3,5.4,5.7,4.3c67.5-25.2,129.7-63,183.2-111.2c-2.6-1.1-5.1-2.1-7.7-3.2c2.1,41.5,30.1,74.3,58.6,101.9
				c6.5,6.3,13.5,15,21.9,18.8c10.2,4.7,22.3-2.6,31.8-6.2c24.1-9,48.2-18,72.3-27c27.6-10.3,55.2-20.6,82.8-30.9
				c-1.7-2.2-3.4-4.4-5.1-6.6c-25,35.2-50.1,70.4-75.1,105.6c-1.1,1.5-0.7,4.2,0.7,5.5c52.1,47,104.3,94.1,156.4,141.1
				c1.1-2.6,2.1-5.1,3.2-7.7c-60.1-0.1-120-6.3-178.7-18.8c-14.8-3.1-29.4-6.8-44.1-10.6c-11.5-3-22.7-3.1-29.6,8.1
				c-3,4.9-4.7,10.7-6.6,16.1c-2.4,6.8-4.8,13.7-7.2,20.6c-4.9,14.4-9.7,29-14.3,43.5c-10.2,32.6-19.4,65.5-27.7,98.7
				c2.9,0,5.8,0,8.7,0c-9.9-42.5-31.8-81.6-62.6-112.4c-2.5-2.5-6.5-1.2-7.5,2c-14,44.1-33.7,86.1-58.6,125.2
				c2.4-0.3,4.7-0.6,7.1-0.9C666.2,435,623.9,395.2,577,361.6c-1.2-0.9-3.3-0.8-4.5,0c-53.3,37.7-108.3,72.9-164.9,105.3
				c2.1,2.1,4.1,4.1,6.2,6.2c24.6-33.8,38.1-74.9,38.5-116.7c0-3.2-2.9-4.8-5.7-4.3c-75.9,13.2-151.8,26.3-227.7,39.5
				c-21.6,3.8-43.3,7.5-64.9,11.3c1.5,2.5,2.9,5,4.4,7.5c36.4-29.6,71.2-61.2,104-94.8c1.6-1.6,1.9-4.8,0-6.4
				c-23.9-19.6-56.9-17.7-86-17.9c-37.3-0.3-74.6,0.3-111.8,1.6c-21,0.8-42,1.8-63.1,3.1c0.8,2.8,1.5,5.6,2.3,8.4
				C57.7,275.5,117.8,258.9,179,256c5.8-0.3,5.8-9.3,0-9c-62.8,3-124.4,19.9-179.8,49.5c-3.9,2.1-2.2,8.7,2.3,8.4
				c45.3-2.7,90.7-4.3,136.1-4.7c21.8-0.2,43.6-0.4,65.4,0.4c18.4,0.6,38.3,2.8,53.1,14.9c0-2.1,0-4.2,0-6.4
				c-32.9,33.5-67.6,65.2-104,94.8c-3.9,3.1,0.5,8.2,4.4,7.5c75.9-13.2,151.8-26.3,227.7-39.5c21.6-3.8,43.3-7.5,64.9-11.3
				c-1.9-1.4-3.8-2.9-5.7-4.3c-0.4,40.3-13.5,79.5-37.2,112.1c-2.8,3.8,2.5,8.2,6.2,6.2C468.7,442.2,523.8,407,577,369.3
				c-1.5,0-3,0-4.5,0c46.2,33.2,87.8,72.6,123.6,116.9c1.9,2.4,5.7,1.3,7.1-0.9c25.3-39.6,45.3-82.5,59.5-127.3
				c-2.5,0.7-5,1.3-7.5,2c29.8,29.8,50.7,67.4,60.3,108.4c1,4.3,7.6,4.2,8.7,0c13.9-55.7,30.5-110.8,49.9-164.9
				c1.9-5.2,3.6-12.7,8.6-16c5.8-3.8,14-0.3,19.9,1.3c13.9,3.7,27.9,7,42,9.9c27.1,5.7,54.6,10.1,82.1,13.2
				c32.2,3.6,64.5,5.4,96.9,5.5c3.8,0,6.1-5,3.2-7.7c-52.1-47-104.3-94.1-156.4-141.1c0.2,1.8,0.5,3.6,0.7,5.5
				c25-35.2,50.1-70.4,75.1-105.6c2.2-3.1-1.5-8-5.1-6.6c-45,16.8-90.1,33.6-135.1,50.4c-11.2,4.2-22.3,8.4-33.5,12.5
				c-4.9,1.8-9.4,3.6-14.2,0.4c-4.2-2.8-7.8-6.8-11.4-10.3c-14-13.2-27.7-26.9-38.9-42.5c-12.5-17.3-21.7-36.9-22.8-58.5
				c-0.2-4-4.7-5.8-7.7-3.2C725.2,57.9,664.2,95,598.3,119.7c1.9,1.4,3.8,2.9,5.7,4.3c1.5-40.4,10.7-80.3,27.3-117.2
				c1.8-3.9-2-8.6-6.2-6.2c-70.6,40.2-139.5,83.3-206.6,129c2.2,0.9,4.4,1.8,6.6,2.7c-17.3-42-26.3-87-26.5-132.4
				c0-4.4-6.2-6.2-8.4-2.3c-25.5,45.1-51,90.2-76.5,135.3c-2.4,4.2-4.6,9.8-8.3,13c-5.7,4.9-12.9,0.8-18.4-2.3
				c-11.7-6.5-23.2-13.3-34.8-19.9c-22.3-12.7-44.5-25.5-66.8-38.2c-25.5-14.6-51-29.2-76.4-43.7c-2.9-1.6-6.9,0.4-6.8,3.9
				c2.4,73,36.1,140.2,76.5,199.4C181.9,250,189.7,245.5,186.4,240.6L186.4,240.6z"/>
		</g>
	</g>
</g>
</svg>
