<?xml version="1.0" encoding="utf-8"?>
<!-- Generator: Adobe Illustrator 23.0.6, SVG Export Plug-In . SVG Version: 6.00 Build 0)  -->
<svg version="1.1" id="Capa_1" xmlns="http://www.w3.org/2000/svg" xmlns:xlink="http://www.w3.org/1999/xlink" x="0px" y="0px"
	 viewBox="0 0 1125 494" style="enable-background:new 0 0 1125 494;" xml:space="preserve">
<style type="text/css">
	.st0{fill:#FC4C62;}
	.st1{fill:#FFFFFF;}
</style>
<g>
	<path class="st0" d="M940.65,298.17c51.08-4.81,102.58-7.75,153.67-5.12c-0.98-0.81-1.98-1.6-2.92-2.45
		c-6.42-5.82-11.68-12.21-15.93-19.24c-4.97-1.55-9.83-3.33-14.58-5.34c-10.2-7.48-20.2-15.29-30.06-23.3
		c-18.97-21.25-40.1-40.18-63.07-56.93c8.32-7.37,16.18-15.23,23.75-23.4c1.13-1.92,2.65-3.79,4.63-5.56
		c3.85-17.82,16.8-32.26,30.61-45.57c1.92-1.85,4.18-3.82,6.63-5.88c-5.2-11.81-19.43-20.4-32.04-11.61
		c-0.28,0.19-0.56,0.39-0.84,0.58c-0.29-0.01-0.59,0.02-0.88,0.02c-37.99,20.99-79.38,44.92-121.77,44.77
		c-33.33-0.12-42.43-26.85-61.24-48.77c-16.09-18.76-31.32-36.08-37.92-57.95c-3.49,0.95-6.8,2.99-9.58,6.46
		c-3.85,4.8-7.95,9.24-12.22,13.44c-6.51,2.03-12.16,6.72-14.83,12.96c-19.4,15.15-41.57,26.46-64.17,37.31
		c1.25-1.67,2.09-3.48,2.73-5.32c-8.24,5.45-16.47,10.92-24.52,16.65c-1.61,1.14-3.32,1.95-5.07,2.5c-0.76,0.83-1.5,1.68-2.28,2.49
		c-3.49,3.65-7.33,5.67-11.2,6.46c-1.76,1.28-3.48,2.6-5.26,3.86c-15.43,10.9-40.17-7.52-33.05-25.41
		c4.96-12.45,9.97-24.39,16.3-35.63c-1.42,0.02-2.86,0.11-4.35,0.36c-2.62,0.43-5.2,0.99-7.75,1.58c2.88-5.35,5.88-10.65,9.02-15.91
		c4.42-7.41,4.18-14.52,1.29-20.26c-52.81,45.72-114.77,81.56-171.93,120.79c-14.39,9.87-33.85-3.31-33.85-19.43v-8.5
		c0-6.67,2.4-11.78,6.07-15.38l-4.75-26.47c-1.57-1.91-2.93-4.08-3.92-6.6c-0.47-1.2-0.9-2.41-1.3-3.62
		c-0.75-0.74-1.54-1.44-2.4-2.04c0.35-0.92,0.64-1.87,0.98-2.8c-2.02-7.77-2.83-15.67-3.12-23.66c-5.01-4.06-7.51-10.42-7.68-16.9
		c-4.07-1.19-8.43-1.32-12.55-0.34c-7.64,12.42-14.57,25.18-18.97,39.16c-2.1,6.65-6.23,10.99-11.15,13.38
		c-13.97,28.42-32.74,54.63-47.3,82.7c-53.61-32.68-107.22-65.35-160.83-98.03c-15.82-9.64-40,6.61-33.05,25.41
		c16.51,44.65,36.91,87.4,61.29,128.03c21.15,7.72,18.67,44.42-7.52,43.59c-27.21-0.86-51.7,4.98-76.99,14.77
		c-20.34,7.87-37.79,20.4-56.87,30.16c0.34,1.32,0.8,2.58,1.34,3.81c48.54-7.1,96.99-16.43,146.13-10.4
		c6.34,0.78,11.26,3.63,14.79,7.54c3.51-0.45,7.01-0.93,10.49-1.48c3.83,1.88,7.78,3.42,11.81,4.72
		c11.53-5.88,23.51-9.04,33.79-4.31c18.96,8.73,12.35,31.32-2.6,38.74h2.35c-19.48,8.6-37.35,20.29-54.47,33.3
		c-3.73,3.03-7.47,6.05-11.16,9.16c-6.16,5.19-7.71,12.19-6.31,18.83c29.55-12.03,60.88-20.29,91.55-27.38
		c24.63-5.69,49.5-10.18,74.2-15.53c26.77-5.8,53.78-12.2,81.28-9.38c6.23-0.92,12.56-1.68,18.79-1.84
		c2.05-0.21,4.08-0.49,6.13-0.68c13.65-6.73,34.09,3.37,32.45,20.13c-1.59,16.24-4.92,31.88-9.17,47.23
		c-2,10.67-4.52,21.27-7.47,31.74c34.58-26.82,68.53-54.81,108.63-72.89c12.03-5.42,23.09-2.6,30.78,8.07
		c1.81,2.52,3.46,5.12,5.03,7.76c0.4-0.21,0.81-0.41,1.21-0.62c5.7,8.1,11.92,15.65,18.64,22.67
		c13.76,18.21,29.88,34.08,48.48,48.34c0.9,0.69,1.86,1.22,2.86,1.69c0.73,3.26,1.48,6.51,2.19,9.78
		c1.9,8.74,8.12,13.72,15.31,15.36c0.13-1.93,0.5-3.94,1.21-6.07c7.81-23.15,16.23-46.08,24.45-69.09
		c4.15-11.61,8.24-23.25,12.14-34.95c2.14-6.43,3.76-13.37,6.32-19.61c0.33-0.82,1.49-6.42,2.71-7.49c-0.06-1.58,0.03-3.22,0.3-4.92
		c0.12-1.68,0.52-3.3,1.16-4.85c-0.54-20.62,29.93-34.47,41.67-12.42c23.23,43.63,32.49,90.43,32.94,138.08
		c0.98,1.74,1.96,3.49,2.95,5.23c1.69-0.22,3.36-0.62,4.97-1.15c4.47-17.57,9.76-34.87,16.66-51.75c0.31-0.75,0.73-1.41,1.11-2.11
		c5.1-23.65,9.93-47.32,16.17-70.26c3.99-14.64,5.94-31.54,14.85-44.53c4.29-6.25,9.62-9.98,15.15-11.5
		c0.23-0.51,0.49-1.01,0.72-1.53c5.46,0.57,10.91,1.14,16.37,1.72c7.7,2.07,15.37,4.28,23.01,6.57
		C932.81,299.92,936.41,298.57,940.65,298.17z"/>
	<g>
		<g>
			<path class="st1" d="M182.83,252.9c-39.89-58.53-73.53-124.74-75.89-196.9c-0.75,0.43-1.5,0.86-2.26,1.3
				c48.18,27.57,96.36,55.13,144.53,82.7c11.87,6.79,23.61,13.9,35.65,20.38c8.38,4.51,18,7.21,25.2-0.79
				c3.41-3.79,5.66-8.69,8.14-13.09c3.29-5.81,6.57-11.62,9.86-17.43c6.94-12.27,13.87-24.54,20.81-36.8
				c15.33-27.12,30.66-54.24,45.99-81.36c-0.93-0.25-1.86-0.5-2.8-0.76c0.23,46.07,9.32,91.71,26.8,134.33
				c0.34,0.82,1.32,1.5,2.2,0.9C488.35,99.5,557.46,56.35,628.2,16.03c-0.68-0.68-1.37-1.37-2.05-2.05
				c-17.05,37.99-26.62,78.85-28.14,120.47c-0.03,0.91,1,1.78,1.9,1.45c67.11-25.07,129.09-62.7,182.28-110.7
				c-0.85-0.35-1.71-0.71-2.56-1.06c2.09,40.69,29.91,72.97,57.85,100c6.25,6.05,13.22,14.92,21.37,18.38
				c9.31,3.95,21.02-3.29,29.6-6.5c24.15-9.01,48.3-18.02,72.45-27.03c27.65-10.31,55.3-20.63,82.96-30.94
				c-0.56-0.73-1.13-1.47-1.69-2.2c-25.09,35.27-50.18,70.54-75.26,105.81c-0.37,0.51-0.23,1.4,0.23,1.82
				c52.27,47.15,104.53,94.29,156.8,141.44c0.35-0.85,0.71-1.71,1.06-2.56c-60.46-0.09-120.84-6.4-179.98-19
				c-14.82-3.16-29.5-6.82-44.16-10.63c-10.16-2.65-20.11-3.28-26.26,6.69c-2.9,4.7-4.49,10.28-6.33,15.44
				c-2.45,6.87-4.85,13.75-7.22,20.64c-4.96,14.48-9.73,29.03-14.3,43.64c-10.24,32.7-19.48,65.7-27.77,98.94c0.96,0,1.93,0,2.89,0
				c-9.85-42.1-31.42-80.81-62.02-111.35c-0.82-0.82-2.17-0.4-2.51,0.66c-14.11,44.46-33.97,86.86-59.05,126.18
				c0.79-0.1,1.57-0.2,2.36-0.3c-36.25-44.75-78.38-84.47-125.14-118.08c-0.4-0.29-1.12-0.28-1.51,0
				c-53.39,37.81-108.56,73.04-165.33,105.56c0.68,0.68,1.37,1.37,2.05,2.05c24.38-33.49,37.74-74.04,38.15-115.46
				c0.01-1.05-0.96-1.61-1.9-1.45c-76.07,13.19-152.15,26.39-228.22,39.58c-21.68,3.76-43.37,7.52-65.05,11.28
				c0.49,0.84,0.97,1.67,1.46,2.51c36.53-29.67,71.34-61.38,104.28-94.98c0.53-0.54,0.63-1.6,0-2.12
				c-23.19-19.04-55.92-16.92-84.12-17.11c-37.38-0.25-74.76,0.3-112.11,1.65c-21.08,0.76-42.15,1.79-63.21,3.06
				c0.25,0.93,0.5,1.86,0.76,2.8c54.67-29.12,115.38-45.83,177.25-48.79c1.92-0.09,1.93-3.09,0-3
				c-62.41,2.99-123.62,19.83-178.76,49.2c-1.29,0.68-0.73,2.88,0.76,2.8c45.44-2.73,90.94-4.31,136.46-4.68
				c21.82-0.18,43.71-0.39,65.52,0.35c19.39,0.66,39.83,3.11,55.34,15.85c0-0.71,0-1.41,0-2.12
				c-32.94,33.61-67.75,65.32-104.28,94.98c-1.29,1.04,0.16,2.73,1.46,2.51c76.07-13.19,152.15-26.39,228.22-39.58
				c21.68-3.76,43.37-7.52,65.05-11.28c-0.63-0.48-1.27-0.96-1.9-1.45c-0.4,40.93-13.65,80.85-37.74,113.94
				c-0.92,1.27,0.84,2.75,2.05,2.05c43.04-24.66,85.18-50.84,126.31-78.57c10.13-6.83,20.2-13.76,30.21-20.77
				c1.8-1.26,4.91-4.51,7.05-4.97c2.51-0.54,4.75,2,6.65,3.4c5.21,3.83,10.36,7.75,15.46,11.74c17.65,13.84,34.57,28.62,50.66,44.25
				c18.47,17.93,35.81,36.98,52.01,56.97c0.64,0.79,1.88,0.44,2.36-0.3c25.22-39.53,45.17-82.2,59.36-126.89
				c-0.84,0.22-1.67,0.44-2.51,0.66c30.26,30.2,51.51,68.4,61.25,110.02c0.34,1.44,2.54,1.42,2.89,0
				c13.94-55.88,30.6-111.07,50.02-165.29c2.19-6.12,4.22-14.07,10.03-17.84c6.64-4.31,15.41-0.84,22.32,0.98
				c13.95,3.68,27.98,7,42.1,9.97c26.94,5.67,54.16,10.06,81.52,13.16c32.25,3.65,64.68,5.45,97.14,5.5c1.25,0,2.04-1.67,1.06-2.56
				c-32.81-29.59-65.61-59.18-98.42-88.77c-16.12-14.54-32.25-29.09-48.37-43.64c-2.17-1.96-4.7-3.86-6.67-6.02
				c-2.04-2.24-2.03-2.22-0.51-4.84c2.95-5.09,6.97-9.8,10.38-14.59c6.27-8.82,12.54-17.64,18.82-26.45
				c14.49-20.37,28.98-40.74,43.47-61.11c0.74-1.04-0.5-2.65-1.69-2.2c-45.15,16.84-90.31,33.69-135.46,50.53
				c-11.2,4.18-22.39,8.38-33.6,12.53c-5.72,2.12-10.97,3.73-16.56,0.09c-4.42-2.88-8.22-7.14-12.04-10.75
				c-14.19-13.39-28.08-27.36-39.52-43.23c-12.84-17.81-22.13-38.03-23.27-60.2c-0.07-1.32-1.58-1.95-2.56-1.06
				C727.28,70.71,665.72,108.12,599.11,133c0.63,0.48,1.27,0.96,1.9,1.45c1.51-41.06,10.91-81.47,27.73-118.96
				c0.59-1.3-0.65-2.85-2.05-2.05c-70.75,40.32-139.85,83.47-207.13,129.34c0.73,0.3,1.47,0.6,2.2,0.9
				c-17.39-42.38-26.47-87.72-26.7-133.53c-0.01-1.47-2.06-2.07-2.8-0.76c-25.55,45.2-51.1,90.4-76.65,135.6
				c-2.57,4.55-4.92,10.07-8.8,13.67c-6.72,6.24-15.38,1.95-22.13-1.82c-11.71-6.54-23.28-13.32-34.92-19.98
				c-22.31-12.77-44.62-25.53-66.93-38.3c-25.54-14.62-51.09-29.23-76.63-43.85c-0.96-0.55-2.29,0.14-2.26,1.3
				c2.38,72.68,36.11,139.43,76.3,198.41C181.32,256,183.92,254.5,182.83,252.9L182.83,252.9z"/>
		</g>
	</g>
</g>
</svg>
