<?xml version="1.0" encoding="utf-8"?>
<!-- Generator: Adobe Illustrator 23.0.6, SVG Export Plug-In . SVG Version: 6.00 Build 0)  -->
<svg version="1.1" id="Capa_1" xmlns="http://www.w3.org/2000/svg" xmlns:xlink="http://www.w3.org/1999/xlink" x="0px" y="0px"
	 viewBox="0 0 881 441" style="enable-background:new 0 0 881 441;" xml:space="preserve">
<style type="text/css">
	.st0{fill:#FC4C62;}
	.st1{fill:#FFFFFF;}
</style>
<g>
	<path class="st0" d="M703.8,239.9c33.73-3.18,67.75-5.12,101.49-3.38c-0.65-0.54-1.31-1.06-1.93-1.62
		c-4.24-3.84-7.71-8.06-10.52-12.71c-3.28-1.02-6.49-2.2-9.63-3.53c-6.73-4.94-13.34-10.1-19.85-15.39
		c-12.53-14.03-26.49-26.53-41.66-37.6c5.5-4.86,10.69-10.06,15.68-15.46c0.75-1.27,1.75-2.51,3.06-3.67
		c2.55-11.77,11.09-21.3,20.21-30.1c1.27-1.22,2.76-2.52,4.38-3.88c-3.43-7.8-12.83-13.47-21.16-7.67
		c-0.18,0.13-0.37,0.26-0.55,0.38c-0.19-0.01-0.39,0.02-0.58,0.01c-25.09,13.86-52.42,29.67-80.42,29.57
		c-22.01-0.08-28.02-17.73-40.45-32.21c-10.63-12.39-20.68-23.83-25.04-38.27c-2.31,0.63-4.49,1.97-6.33,4.26
		c-2.54,3.17-5.25,6.1-8.07,8.88c-4.3,1.34-8.03,4.44-9.79,8.56c-12.82,10-27.46,17.48-42.38,24.64c0.82-1.11,1.38-2.3,1.8-3.52
		c-5.44,3.6-10.87,7.21-16.19,10.99c-1.06,0.75-2.19,1.28-3.35,1.65c-0.5,0.55-0.99,1.11-1.5,1.64c-2.3,2.41-4.84,3.75-7.4,4.27
		c-1.16,0.85-2.3,1.72-3.47,2.55c-10.19,7.2-26.53-4.97-21.83-16.78c3.27-8.23,6.59-16.11,10.77-23.53
		c-0.94,0.01-1.89,0.07-2.87,0.23c-1.73,0.28-3.43,0.65-5.12,1.04c1.9-3.53,3.89-7.03,5.96-10.51c2.92-4.89,2.76-9.59,0.85-13.38
		c-34.88,30.19-75.8,53.86-113.55,79.77c-9.5,6.52-22.36-2.19-22.36-12.83v-5.62c0-4.41,1.59-7.78,4.01-10.15l-3.14-17.48
		c-1.04-1.26-1.94-2.7-2.59-4.36c-0.31-0.79-0.59-1.59-0.86-2.39c-0.49-0.49-1.02-0.95-1.58-1.35c0.23-0.61,0.43-1.23,0.64-1.85
		c-1.33-5.13-1.87-10.35-2.06-15.63c-3.31-2.68-4.96-6.88-5.07-11.16c-2.68-0.79-5.57-0.87-8.29-0.22
		c-5.05,8.2-9.62,16.63-12.53,25.86c-1.39,4.39-4.11,7.26-7.36,8.84c-9.23,18.77-21.62,36.08-31.24,54.62
		c-35.41-21.58-70.81-43.16-106.22-64.74c-10.45-6.37-26.42,4.37-21.83,16.78c10.9,29.49,24.38,57.72,40.48,84.56
		c13.97,5.1,12.33,29.34-4.97,28.79c-17.97-0.57-34.14,3.29-50.85,9.75c-13.43,5.2-24.96,13.47-37.56,19.92
		c0.22,0.87,0.53,1.71,0.88,2.51c32.06-4.69,64.05-10.85,96.51-6.87c4.18,0.51,7.44,2.4,9.77,4.98c2.32-0.3,4.63-0.61,6.93-0.98
		c2.53,1.24,5.14,2.26,7.8,3.12c7.61-3.88,15.52-5.97,22.31-2.84c12.52,5.77,8.16,20.69-1.72,25.58h1.55
		c-12.87,5.68-24.67,13.4-35.97,22c-2.46,2-4.94,4-7.37,6.05c-4.07,3.43-5.09,8.05-4.17,12.43c19.51-7.95,40.2-13.4,60.46-18.08
		c16.27-3.76,32.69-6.72,49.01-10.26c17.68-3.83,35.52-8.06,53.68-6.19c4.12-0.61,8.3-1.11,12.41-1.21c1.35-0.14,2.7-0.32,4.05-0.45
		c9.01-4.45,22.52,2.23,21.43,13.29c-1.05,10.73-3.25,21.06-6.06,31.19c-1.32,7.05-2.99,14.05-4.93,20.96
		c22.83-17.71,45.26-36.2,71.75-48.14c7.94-3.58,15.25-1.72,20.33,5.33c1.2,1.66,2.28,3.38,3.32,5.12c0.27-0.14,0.53-0.27,0.8-0.41
		c3.76,5.35,7.87,10.33,12.31,14.97c9.09,12.03,19.73,22.5,32.02,31.93c0.59,0.45,1.23,0.81,1.89,1.11c0.48,2.15,0.98,4.3,1.45,6.46
		c1.25,5.77,5.36,9.06,10.11,10.14c0.08-1.27,0.33-2.6,0.8-4.01c5.16-15.29,10.72-30.43,16.15-45.63
		c2.74-7.67,5.44-15.35,8.02-23.08c1.41-4.24,2.49-8.83,4.18-12.95c0.22-0.54,0.98-4.24,1.79-4.95c-0.04-1.04,0.02-2.13,0.2-3.25
		c0.08-1.11,0.34-2.18,0.76-3.21c-0.36-13.62,19.77-22.77,27.52-8.21c15.34,28.81,21.46,59.73,21.75,91.19
		c0.65,1.15,1.29,2.3,1.95,3.45c1.12-0.15,2.22-0.41,3.28-0.76c2.95-11.6,6.44-23.03,11-34.18c0.2-0.49,0.48-0.93,0.73-1.39
		c3.37-15.62,6.56-31.25,10.68-46.4c2.63-9.67,3.92-20.83,9.81-29.41c2.83-4.13,6.35-6.59,10.01-7.6c0.15-0.34,0.32-0.67,0.48-1.01
		c3.6,0.38,7.21,0.76,10.81,1.13c5.09,1.36,10.15,2.83,15.2,4.34C698.62,241.05,701,240.16,703.8,239.9z"/>
	<g>
		<g>
			<path class="st1" d="M203.76,209.74c-26.29-38.58-48.49-82.22-50.05-129.78c-0.75,0.43-1.5,0.86-2.26,1.3
				c31.82,18.21,63.64,36.41,95.45,54.62c7.84,4.48,15.59,9.18,23.54,13.46c5.74,3.09,12.33,4.85,17.26-0.6
				c2.29-2.53,3.79-5.8,5.46-8.75c2.17-3.84,4.34-7.68,6.51-11.51c4.58-8.1,9.16-16.2,13.74-24.31
				c10.13-17.91,20.25-35.82,30.38-53.73c-0.93-0.25-1.86-0.5-2.8-0.76c0.15,30.47,6.15,60.67,17.72,88.85
				c0.34,0.82,1.32,1.5,2.2,0.9c44.43-30.29,90.07-58.79,136.8-85.42c-0.68-0.68-1.37-1.37-2.05-2.05
				c-11.3,25.18-17.65,52.24-18.66,79.82c-0.03,0.91,1,1.78,1.9,1.45c44.41-16.59,85.41-41.48,120.61-73.24
				c-0.85-0.35-1.71-0.71-2.56-1.06c1.39,27.02,19.8,48.45,38.36,66.41c4.17,4.04,8.79,9.88,14.22,12.22
				c6.32,2.73,14.1-2.06,19.94-4.24c15.95-5.95,31.9-11.9,47.85-17.85c18.26-6.81,36.52-13.62,54.79-20.44
				c-0.56-0.73-1.13-1.47-1.69-2.2c-16.57,23.29-33.14,46.59-49.71,69.88c-0.37,0.51-0.23,1.4,0.23,1.82
				c34.52,31.14,69.04,62.27,103.55,93.41c0.35-0.85,0.71-1.71,1.06-2.56c-39.89-0.06-79.71-4.22-118.73-12.53
				c-9.79-2.08-19.48-4.5-29.17-7.02c-6.94-1.81-13.73-2.15-17.92,4.65c-1.93,3.14-3,6.87-4.23,10.32
				c-1.62,4.53-3.21,9.08-4.77,13.63c-3.28,9.56-6.42,19.17-9.44,28.82c-6.76,21.59-12.86,43.39-18.34,65.35c0.96,0,1.93,0,2.89,0
				c-6.52-27.89-20.82-53.53-41.09-73.76c-0.82-0.82-2.17-0.4-2.51,0.66c-9.31,29.32-22.41,57.28-38.95,83.21
				c0.79-0.1,1.57-0.2,2.36-0.3c-23.97-29.59-51.83-55.84-82.75-78.07c-0.4-0.29-1.12-0.28-1.51,0
				c-35.26,24.97-71.7,48.24-109.19,69.71c0.68,0.68,1.37,1.37,2.05,2.05c16.15-22.19,25-49.07,25.26-76.51
				c0.01-1.05-0.96-1.61-1.9-1.45c-50.24,8.71-100.48,17.43-150.73,26.14c-14.32,2.48-28.64,4.97-42.96,7.45
				c0.49,0.84,0.97,1.67,1.46,2.51c24.12-19.59,47.12-40.53,68.87-62.73c0.53-0.54,0.63-1.6,0-2.12
				c-15.44-12.68-37.12-11.32-55.92-11.45c-24.69-0.17-49.37,0.2-74.04,1.09c-13.92,0.5-27.84,1.18-41.74,2.02
				c0.25,0.93,0.5,1.86,0.76,2.8c36.02-19.19,76.03-30.2,116.8-32.15c1.92-0.09,1.93-3.09,0-3c-41.31,1.98-81.82,13.12-118.32,32.56
				c-1.29,0.68-0.73,2.88,0.76,2.8c30.01-1.81,60.06-2.85,90.12-3.09c14.41-0.12,28.86-0.26,43.27,0.23
				c12.65,0.43,26.06,2,36.19,10.32c0-0.71,0-1.41,0-2.12c-21.75,22.2-44.75,43.14-68.87,62.73c-1.29,1.04,0.16,2.73,1.46,2.51
				c50.24-8.71,100.48-17.43,150.73-26.14c14.32-2.48,28.64-4.97,42.96-7.45c-0.63-0.48-1.27-0.96-1.9-1.45
				c-0.26,26.95-9,53.21-24.85,74.99c-0.92,1.27,0.84,2.75,2.05,2.05c37.49-21.48,73.93-44.74,109.19-69.71c-0.5,0-1.01,0-1.51,0
				c30.71,22.07,58.34,48.21,82.14,77.6c0.64,0.79,1.88,0.44,2.36-0.3c16.68-26.14,29.87-54.37,39.25-83.93
				c-0.84,0.22-1.67,0.44-2.51,0.66c19.93,19.88,33.91,45.03,40.32,72.44c0.34,1.44,2.54,1.42,2.89,0
				c9.21-36.9,20.21-73.35,33.04-109.16c1.4-3.9,2.69-9.06,6.39-11.48c4.23-2.77,9.94-0.46,14.35,0.7
				c9.21,2.43,18.48,4.62,27.8,6.58c17.84,3.76,35.86,6.65,53.97,8.71c21.3,2.41,42.72,3.6,64.15,3.64c1.25,0,2.04-1.67,1.06-2.56
				c-34.52-31.14-69.04-62.27-103.55-93.41c0.08,0.61,0.16,1.21,0.23,1.82c16.57-23.29,33.14-46.59,49.71-69.88
				c0.74-1.04-0.5-2.65-1.69-2.2c-29.82,11.12-59.64,22.25-89.46,33.37c-7.4,2.76-14.79,5.53-22.19,8.28
				c-3.65,1.35-6.98,2.44-10.54,0.11c-2.88-1.89-5.35-4.67-7.85-7.02c-9.34-8.81-18.49-18-26.02-28.44
				c-8.43-11.69-14.55-24.95-15.3-39.5c-0.07-1.32-1.58-1.95-2.56-1.06c-34.79,31.4-75.38,56.07-119.28,72.47
				c0.63,0.48,1.27,0.96,1.9,1.45c0.99-27.02,7.17-53.63,18.25-78.31c0.59-1.3-0.65-2.85-2.05-2.05
				c-46.72,26.63-92.36,55.13-136.8,85.42c0.73,0.3,1.47,0.6,2.2,0.9c-11.47-27.95-17.47-57.84-17.61-88.06
				c-0.01-1.47-2.06-2.07-2.8-0.76c-16.88,29.85-33.75,59.7-50.63,89.55c-1.67,2.96-3.2,6.58-5.73,8.93
				c-4.25,3.93-9.76,1.08-14-1.28c-7.73-4.32-15.38-8.8-23.06-13.2c-14.73-8.43-29.47-16.86-44.2-25.29
				c-16.87-9.65-33.74-19.3-50.61-28.96c-0.96-0.55-2.29,0.14-2.26,1.3c1.58,48.09,23.86,92.27,50.46,131.29
				C202.25,212.84,204.85,211.34,203.76,209.74L203.76,209.74z"/>
		</g>
	</g>
</g>
</svg>
