<?xml version="1.0" encoding="utf-8"?>
<!-- Generator: Adobe Illustrator 23.0.6, SVG Export Plug-In . SVG Version: 6.00 Build 0)  -->
<svg version="1.1" id="Capa_1" xmlns="http://www.w3.org/2000/svg" xmlns:xlink="http://www.w3.org/1999/xlink" x="0px" y="0px"
	 viewBox="0 0 881 377.8" style="enable-background:new 0 0 881 377.8;" xml:space="preserve">
<style type="text/css">
	.st0{fill:#FC4C62;}
	.st1{fill:#FFFFFF;}
</style>
<g>
	<path class="st0" d="M736.6,225.6c40-3.8,80.3-6.1,120.3-4c-0.8-0.6-1.6-1.3-2.3-1.9c-5-4.6-9.1-9.6-12.5-15.1
		c-3.9-1.2-7.7-2.6-11.4-4.2c-8-5.9-15.8-12-23.5-18.2c-14.9-16.6-31.4-31.5-49.4-44.6c6.5-5.8,12.7-11.9,18.6-18.3
		c0.9-1.5,2.1-3,3.6-4.4c3-14,13.2-25.3,24-35.7c1.5-1.4,3.3-3,5.2-4.6c-4.1-9.3-15.2-16-25.1-9.1c-0.2,0.2-0.4,0.3-0.7,0.5
		c-0.2,0-0.5,0-0.7,0c-29.7,16.4-62.2,35.2-95.4,35.1c-26.1-0.1-33.2-21-48-38.2c-12.6-14.7-24.5-28.3-29.7-45.4
		c-2.7,0.7-5.3,2.3-7.5,5.1c-3,3.8-6.2,7.2-9.6,10.5c-5.1,1.6-9.5,5.3-11.6,10.2c-15.2,11.9-32.6,20.7-50.3,29.2
		c1-1.3,1.6-2.7,2.1-4.2c-6.5,4.3-12.9,8.6-19.2,13c-1.3,0.9-2.6,1.5-4,2c-0.6,0.7-1.2,1.3-1.8,1.9c-2.7,2.9-5.7,4.4-8.8,5.1
		c-1.4,1-2.7,2-4.1,3c-12.1,8.5-31.5-5.9-25.9-19.9c3.9-9.8,7.8-19.1,12.8-27.9c-1.1,0-2.2,0.1-3.4,0.3c-2.1,0.3-4.1,0.8-6.1,1.2
		c2.3-4.2,4.6-8.3,7.1-12.5c3.5-5.8,3.3-11.4,1-15.9c-41.4,35.8-89.9,63.9-134.6,94.6c-11.3,7.7-26.5-2.6-26.5-15.2v-6.7
		c0-5.2,1.9-9.2,4.8-12l-3.7-20.7c-1.2-1.5-2.3-3.2-3.1-5.2c-0.4-0.9-0.7-1.9-1-2.8c-0.6-0.6-1.2-1.1-1.9-1.6
		c0.3-0.7,0.5-1.5,0.8-2.2c-1.6-6.1-2.2-12.3-2.4-18.5c-3.9-3.2-5.9-8.2-6-13.2c-3.2-0.9-6.6-1-9.8-0.3c-6,9.7-11.4,19.7-14.9,30.7
		c-1.6,5.2-4.9,8.6-8.7,10.5c-10.9,22.3-25.6,42.8-37,64.8c-42-25.6-84-51.2-126-76.8c-12.4-7.6-31.3,5.2-25.9,19.9
		c12.9,35,28.9,68.4,48,100.3c16.6,6,14.6,34.8-5.9,34.1c-21.3-0.7-40.5,3.9-60.3,11.6c-15.9,6.2-29.6,16-44.5,23.6c0.3,1,0.6,2,1,3
		c38-5.6,76-12.9,114.4-8.1c5,0.6,8.8,2.8,11.6,5.9c2.7-0.4,5.5-0.7,8.2-1.2c3,1.5,6.1,2.7,9.2,3.7c9-4.6,18.4-7.1,26.5-3.4
		c14.9,6.8,9.7,24.5-2,30.3h1.8c-15.3,6.7-29.3,15.9-42.7,26.1c-2.9,2.4-5.9,4.7-8.7,7.2c-4.8,4.1-6,9.5-4.9,14.7
		c23.1-9.4,47.7-15.9,71.7-21.4c19.3-4.5,38.8-8,58.1-12.2c21-4.5,42.1-9.6,63.7-7.3c4.9-0.7,9.8-1.3,14.7-1.4
		c1.6-0.2,3.2-0.4,4.8-0.5c10.7-5.3,26.7,2.6,25.4,15.8c-1.2,12.7-3.9,25-7.2,37c-1.6,8.4-3.5,16.7-5.8,24.9
		c27.1-21,53.7-42.9,85.1-57.1c9.4-4.2,18.1-2,24.1,6.3c1.4,2,2.7,4,3.9,6.1c0.3-0.2,0.6-0.3,0.9-0.5c4.5,6.3,9.3,12.3,14.6,17.8
		c10.8,14.3,23.4,26.7,38,37.9c0.7,0.5,1.5,1,2.2,1.3c0.6,2.6,1.2,5.1,1.7,7.7c1.5,6.8,6.4,10.7,12,12c0.1-1.5,0.4-3.1,0.9-4.8
		c6.1-18.1,12.7-36.1,19.1-54.1c3.2-9.1,6.5-18.2,9.5-27.4c1.7-5,2.9-10.5,5-15.4c0.3-0.6,1.2-5,2.1-5.9c0-1.2,0-2.5,0.2-3.9
		c0.1-1.3,0.4-2.6,0.9-3.8c-0.4-16.2,23.4-27,32.6-9.7c18.2,34.2,25.4,70.8,25.8,108.1c0.8,1.4,1.5,2.7,2.3,4.1
		c1.3-0.2,2.6-0.5,3.9-0.9c3.5-13.8,7.6-27.3,13-40.5c0.2-0.6,0.6-1.1,0.9-1.6c4-18.5,7.8-37.1,12.7-55c3.1-11.5,4.7-24.7,11.6-34.9
		c3.4-4.9,7.5-7.8,11.9-9c0.2-0.4,0.4-0.8,0.6-1.2c4.3,0.4,8.5,0.9,12.8,1.3c6,1.6,12,3.4,18,5.1
		C730.5,226.9,733.3,225.9,736.6,225.6z"/>
	<g>
		<g>
			<path class="st1" d="M146,188.4c-30.9-45.3-57.1-96.6-59-152.5c-2.3,1.3-4.5,2.6-6.8,3.9C118,61.4,155.8,83,193.5,104.6
				c9.3,5.3,18.5,10.9,27.9,16c7.9,4.2,17.1,6.3,23.8-1.1c2.9-3.2,4.8-7.2,6.9-10.9c2.6-4.6,5.1-9.1,7.7-13.7
				c5.4-9.6,10.9-19.2,16.3-28.8c12-21.2,24-42.5,36-63.7c-2.8-0.8-5.6-1.5-8.4-2.3c0.2,36.4,7.3,72.4,21.1,106.1
				c1,2.5,4,4.5,6.6,2.7C384.1,72.8,438.2,39.1,493.6,7.5c-2.1-2.1-4.1-4.1-6.2-6.2c-13.6,30.3-21.3,62.8-22.5,96
				c-0.1,2.7,3,5.4,5.7,4.3c53.1-19.8,102.1-49.6,144.2-87.5c-2.6-1.1-5.1-2.1-7.7-3.2c1.7,32.8,23.7,58.8,46.3,80.7
				c5.2,5,10.8,11.8,17.4,14.9c8.3,3.9,17.9-1.8,25.7-4.8c18.9-7.1,37.8-14.1,56.7-21.2c21.7-8.1,43.3-16.2,65-24.2
				c-1.7-2.2-3.4-4.4-5.1-6.6c-19.6,27.6-39.3,55.2-58.9,82.9c-1.1,1.5-0.7,4.2,0.7,5.5c40.9,36.9,81.9,73.8,122.8,110.8
				c1.1-2.6,2.1-5.1,3.2-7.7c-47.1-0.1-94-5-140.1-14.8c-11.6-2.5-23.1-5.3-34.6-8.3c-9.5-2.5-18.7-2.4-24.3,6.8
				c-2.4,3.9-3.8,8.6-5.3,12.9c-1.9,5.4-3.8,10.8-5.7,16.2c-3.9,11.3-7.6,22.7-11.2,34.2c-8,25.6-15.3,51.5-21.7,77.5
				c2.9,0,5.8,0,8.7,0c-7.8-33.5-25.1-64.4-49.4-88.7c-2.5-2.5-6.5-1.2-7.5,2c-11,34.6-26.4,67.5-45.9,98c2.4-0.3,4.7-0.6,7.1-0.9
				c-28.6-35.3-61.8-66.5-98.7-93c-1.2-0.9-3.3-0.8-4.5,0c-41.8,29.6-85,57.2-129.5,82.7c2.1,2.1,4.1,4.1,6.2,6.2
				c19.4-26.7,30-59.1,30.3-92.1c0-3.2-2.9-4.8-5.7-4.3c-59.6,10.3-119.1,20.7-178.7,31c-17,2.9-34,5.9-50.9,8.8
				c1.5,2.5,2.9,5,4.4,7.5c28.6-23.2,55.9-48.1,81.7-74.4c1.6-1.6,1.9-4.8,0-6.4c-19-15.6-45-14.2-68.2-14.4
				c-29.3-0.2-58.5,0.2-87.8,1.3c-16.5,0.6-33,1.4-49.5,2.4c0.8,2.8,1.5,5.6,2.3,8.4c42.3-22.5,89.3-35.5,137.1-37.8
				c5.8-0.3,5.8-9.3,0-9c-49.5,2.4-98,15.7-141.7,39c-3.9,2.1-2.2,8.7,2.3,8.4c35.6-2.1,71.2-3.4,106.9-3.7
				c17.1-0.1,34.2-0.3,51.3,0.3c14.2,0.5,29.6,2.1,41,11.4c0-2.1,0-4.2,0-6.4c-25.8,26.3-53.1,51.2-81.7,74.4
				c-3.9,3.1,0.5,8.2,4.4,7.5c59.6-10.3,119.1-20.7,178.7-31c17-2.9,34-5.9,50.9-8.8c-1.9-1.4-3.8-2.9-5.7-4.3
				c-0.3,31.5-10.6,62.1-29.1,87.6c-2.8,3.8,2.5,8.2,6.2,6.2c44.5-25.5,87.7-53.1,129.5-82.7c-1.5,0-3,0-4.5,0
				c36.2,26,68.8,56.9,96.9,91.6c1.9,2.4,5.7,1.3,7.1-0.9c19.9-31.2,35.6-64.9,46.8-100.2c-2.5,0.7-5,1.3-7.5,2
				c23.3,23.3,39.6,52.6,47.1,84.7c1,4.3,7.6,4.2,8.7,0c10.9-43.8,24-87,39.2-129.4c1.4-3.8,2.7-9.6,6.3-12c4.2-2.8,10.5,0,14.9,1.1
				c10.9,2.9,21.9,5.5,33,7.8c21.4,4.5,43,8,64.7,10.4c25.3,2.9,50.7,4.3,76.1,4.3c3.8,0,6.1-5,3.2-7.7
				c-40.9-36.9-81.9-73.8-122.8-110.8c0.2,1.8,0.5,3.6,0.7,5.5c19.6-27.6,39.3-55.2,58.9-82.9c2.2-3.1-1.5-8-5.1-6.6
				c-35.4,13.2-70.7,26.4-106.1,39.6c-8.8,3.3-17.5,6.6-26.3,9.8c-3.6,1.3-6.9,2.7-10.4,0.4c-3.2-2.1-6-5.3-8.8-7.9
				c-10.9-10.3-21.6-21-30.4-33.2C624.3,43,617.1,27.7,616.2,11c-0.2-4-4.7-5.8-7.7-3.2c-40.9,36.9-88.6,66-140.2,85.2
				c1.9,1.4,3.8,2.9,5.7,4.3c1.2-31.5,8.3-62.7,21.3-91.5c1.8-3.9-2-8.6-6.2-6.2C433.7,31.3,379.6,65.1,326.9,101
				c2.2,0.9,4.4,1.8,6.6,2.7C320,70.8,312.9,35.6,312.7,0c0-4.4-6.2-6.2-8.4-2.3c-20,35.4-40,70.8-60,106.2c-1.8,3.2-3.5,7.6-6.4,10
				c-4.1,3.5-9.4,0.2-13.3-1.9c-9.2-5.1-18.2-10.4-27.3-15.6c-17.5-10-34.9-20-52.4-30c-20-11.4-40-22.9-60-34.3
				c-2.9-1.6-6.9,0.4-6.8,3.9C80,93.4,106.5,146.3,138.3,193C141.5,197.7,149.3,193.2,146,188.4L146,188.4z"/>
		</g>
	</g>
</g>
</svg>
