<?xml version="1.0" encoding="utf-8"?>
<!-- Generator: Adobe Illustrator 23.0.6, SVG Export Plug-In . SVG Version: 6.00 Build 0)  -->
<svg version="1.1" id="Capa_1" xmlns="http://www.w3.org/2000/svg" xmlns:xlink="http://www.w3.org/1999/xlink" x="0px" y="0px"
	 viewBox="0 0 439 271" style="enable-background:new 0 0 439 271;" xml:space="preserve">
<style type="text/css">
	.st0{clip-path:url(#SVGID_2_);fill:#FFFF88;}
	.st1{clip-path:url(#SVGID_2_);fill:#FFFFFF;}
	.st2{clip-path:url(#SVGID_2_);fill:#46428B;}
</style>
<g>
	<defs>
		<rect id="SVGID_1_" width="439" height="271"/>
	</defs>
	<clipPath id="SVGID_2_">
		<use xlink:href="#SVGID_1_"  style="overflow:visible;"/>
	</clipPath>
	<path class="st0" d="M413.81,125.53c-23.78-45.12-62.53-80.19-108.79-101.34C258.37,2.86,200.96-6.39,150.63,6.15
		C100.3,18.68,59.25,58.88,33.85,102.78c-27.73,47.94-38.99,106.06-23.83,160c1.93,6.89,10.96,7.3,13.91,3.01
		c1.64,1.64,3.74,2.91,6.45,3.65c0.95,0.26,2,0.33,3.04,0.25c1.91,1.4,3.9,2.72,5.78,4.16c5.57,5.58,11.14,11.17,16.71,16.75
		c4.16,4.17,10.21,2.42,12.45-1.39c6.54,4.69,13.08,9.37,19.61,14.07c3,2.15,6.72,1.4,9.25-0.63c1.03,0.87,2.07,1.75,3.11,2.6
		c3.23,2.63,7.07,4.86,11.11,5.87c2.54,1.78,5.08,3.56,7.64,5.31c4.5,3.08,11.11,0.81,11.76-4.96c0.65-5.74,1.29-11.49,1.94-17.23
		c0.08-0.18,0.17-0.33,0.23-0.52c10.55-30.2,18.84-61.13,24.87-92.52c2.79,3.8,5.66,7.55,8.6,11.24c-0.08,1.09,0.07,2.26,0.57,3.51
		c18.48,45.68,68.42,64.42,96.07,102.9c2.31,3.21,7.31,3.66,10.33,1.26c12.02-9.56,23.03-20.26,32.95-31.95
		c1.12-0.72,2.25-1.44,3.37-2.15c5.7-2.49,11.41-4.98,17.11-7.46c1.61,2.77,4.79,4.37,8.67,2.43c8.6-4.29,16.92-9.07,24.95-14.27
		c6.94-3.97,13.88-7.94,20.82-11.91c2.69-1.54,3.91-4.01,4.02-6.46c1.12-0.94,2.23-1.91,3.33-2.87c-0.17,2.89-0.36,5.79-0.61,8.68
		c-0.15,2.12,0.48,3.86,1.55,5.17c-1.16,7.56-2.33,15.12-3.49,22.67c-0.97,6.32,5.16,9.12,9.83,7.49c1.93,1,4.32,1.24,6.51,0.48
		c1.57-0.55,3.06-1.22,4.48-1.99c2.76,1.41,6.27,1.15,8.77-2.09c2.6-3.35,4.74-6.81,6.51-10.33c3.85,3.44,10.84,1.68,12.22-4.5
		C445.44,222.06,437.13,169.76,413.81,125.53z M205.6,91.44c-0.11-0.02-0.23-0.04-0.34-0.05c0.53-0.93,0.84-1.88,0.97-2.81
		c0.13,0.02,0.26,0.03,0.4,0.05C206.3,89.57,205.96,90.51,205.6,91.44z M248.22,117.1c0.35,0.34,0.71,0.68,1.07,1.02
		c0.23,0.35,0.47,0.7,0.7,1.05l1.5,2.97C250.39,120.47,249.3,118.79,248.22,117.1z M359.03,241.81c-0.04,0.13-0.07,0.26-0.1,0.4
		c-0.95,0.45-1.89,0.91-2.84,1.36c1.06-0.83,2.12-1.64,3.18-2.47C359.19,241.34,359.11,241.57,359.03,241.81z"/>
	<path class="st1" d="M335.85,159.53c-14.16-34.78-35.37-75.27-73.62-87.64c-37.88-12.26-83.1-4.11-116.73,16.15
		c-32.44,19.55-55.32,51.51-63.56,88.42c-10.66,47.77-5.18,99.72,10,145.84c2.96,8.99,16.46,3.12,13.51-5.83
		c-12.23-37.17-16.62-76.82-12.46-115.74c3.9-36.55,18.65-69.08,48.14-91.94c28.42-22.04,66.51-31.44,102.02-26.27
		c39.13,5.7,60.46,39.91,75.21,73.41c17.57,39.92,33.21,82.63,28.12,126.84c-1.08,9.4,13.52,11.21,14.6,1.79
		C366.13,240.61,352.2,199.69,335.85,159.53z"/>
	<path class="st1" d="M257.06,251.97c-4.86-21.11-11.3-49.85-30.8-62.49c-19.63-12.73-44.83-3.03-56.39,15.81
		c-13.73,22.36-9.22,49.1-4.09,73.32c1.95,9.21,16.53,7.14,14.56-2.16c-4.11-19.36-9.04-41.09,0.03-59.84
		c8.7-17.97,31.63-25.52,44.91-7.92c11.76,15.57,16.24,38.42,19.63,57.2c3.92,21.73,4.83,43.75,2.88,65.73
		c-0.83,9.41,13.77,11.24,14.6,1.79C264.8,306.17,263.19,278.63,257.06,251.97z"/>
	<path class="st2" d="M45.67,239.17c-3.34,0.63-6.54,0.28-9.43-1.66c-3.3-2.22-7.81-1.89-10.31,1.4c-2.3,3.02-1.91,8.09,1.4,10.31
		c6.08,4.09,13.24,5.87,20.5,4.51C57.1,251.98,55.01,237.41,45.67,239.17z"/>
	<path class="st2" d="M53.31,211.76c-1.49-3.45-6.13-5.69-9.67-3.84c-2.93,1.53-5.94,2.14-8.82,1.23c-3.79-1.19-8.01,0.11-9.61,4
		c-1.41,3.43,0.19,8.41,4,9.61c6.75,2.12,13.89,1.99,20.25-1.33C52.99,219.6,54.97,215.6,53.31,211.76z"/>
	<path class="st2" d="M57.23,178.78c-0.53-3.57-4.5-7.26-8.36-6.2c-3.38,0.93-6.24,1.02-8.76,0.22c-3.78-1.2-8.01,0.11-9.61,4
		c-1.41,3.44,0.2,8.4,4,9.61c5.38,1.71,11.03,2.24,16.53,0.73C54.86,186.09,57.86,183.05,57.23,178.78z"/>
	<path class="st2" d="M61.71,139.66c-3.14-1.57-6.29-3.15-9.43-4.72c-3.45-1.73-8.33,0.45-9.61,4c-1.43,3.98,0.31,7.76,4,9.61
		c3.14,1.57,6.29,3.15,9.43,4.72c3.45,1.73,8.33-0.45,9.61-4C67.15,145.29,65.4,141.51,61.71,139.66z"/>
	<path class="st2" d="M80.18,109.68c-0.27-3.97-3.05-6.35-6.4-7.28c-0.59-0.44-1.18-0.88-1.75-1.35c-1.82-1.52-2.49-2.2-3.96-3.83
		c-2.57-2.87-7.17-3.96-10.33-1.26c-2.87,2.45-4,7.27-1.26,10.33c3.54,3.95,7.47,7.48,11.96,10.33
		C74.01,120.16,80.63,116.28,80.18,109.68z"/>
	<path class="st2" d="M98.2,81.28c-1.79-1.14-3.51-2.38-5.13-3.76c-0.38-0.32-0.76-0.65-1.13-0.99c-0.06-0.06-0.49-0.46-0.68-0.63
		c-0.17-0.19-0.59-0.61-0.64-0.67c-0.43-0.46-0.84-0.93-1.25-1.4c-2.52-2.91-7.2-3.93-10.33-1.26c-2.9,2.48-3.96,7.22-1.26,10.33
		c3.36,3.87,7.17,7.33,11.5,10.1c3.24,2.07,7.92,2.05,10.31-1.4C101.72,88.54,101.66,83.49,98.2,81.28z"/>
	<path class="st2" d="M124.96,61.77c-0.23-0.18-0.44-0.36-0.66-0.55c-0.06-0.08-0.55-0.55-0.67-0.7c-0.29-0.35-0.55-0.71-0.82-1.07
		c-0.07-0.09-0.11-0.14-0.14-0.18c-0.03-0.07-0.07-0.14-0.11-0.23c-0.33-0.68-0.63-1.38-0.87-2.1c-0.02-0.13-0.11-0.56-0.16-0.86
		c-0.09-0.56-0.14-1.11-0.18-1.68c-0.28-3.85-4.66-6.91-8.36-6.2c-4.15,0.8-6.5,4.24-6.2,8.36c0.48,6.67,4.05,12.8,9.25,16.91
		c3.02,2.39,8.07,1.82,10.31-1.4C128.67,68.76,128.18,64.33,124.96,61.77z"/>
	<path class="st2" d="M167.38,50.33c-1-2.06-2.69-3.44-4.65-4.04c-0.12-0.59-0.26-1.16-0.41-1.74c-1.04-3.87-3.21-7.97-7.42-9.09
		c-3.7-0.98-8.14-0.07-9.61,4c-1.08,3.01-0.19,7.53,2.91,9.17c0.33,1.72,0.65,3.47,1.41,5.05c2.57,5.41,8.06,8.57,13.93,6.31
		C167.14,58.62,169.07,53.81,167.38,50.33z"/>
	<path class="st2" d="M191.33,42.09c-1.59-3.21-2.35-6.43-2.21-9.33c0.19-3.97-2.25-7.69-6.41-8.2c-3.73-0.46-8.01,2.42-8.2,6.41
		c-0.28,5.89,0.67,11.64,3.31,16.95c1.77,3.55,5.88,5.48,9.67,3.84C190.99,50.25,193.11,45.66,191.33,42.09z"/>
	<path class="st2" d="M237.57,41.08c-0.25-0.54-0.49-1.1-0.68-1.67c0.06,0-0.17-1.48-0.21-1.68c0-0.04,0-0.05-0.01-0.08
		c0.01-0.27,0.03-0.55,0.06-0.82c0.03-0.36,0.08-0.72,0.15-1.07c-0.24,0.74-0.22,0.68,0.05-0.18c1.16-3.66-0.05-8.18-4-9.61
		c-3.49-1.26-8.36,0.08-9.61,4c-1.79,5.65-1.76,11.48,0.73,16.93c1.6,3.5,6.04,5.6,9.67,3.84
		C237.26,49.04,239.29,44.82,237.57,41.08z"/>
	<path class="st2" d="M279.68,33.3c-3.8-1.56-7.95,0.37-9.61,4c-1.65,3.62-4.14,7-7.2,9.64c-3.01,2.59-3.79,7.09-1.26,10.33
		c2.36,3.02,7.31,3.87,10.33,1.26c5.06-4.36,8.98-9.55,11.75-15.62C285.33,39.29,283.25,34.77,279.68,33.3z"/>
	<path class="st2" d="M323.58,61.58c-0.68-3.52-4.39-7.3-8.36-6.2c-5.8,1.61-11.03,3.96-15.88,7.59c-3.09,2.31-3.8,7.35-1.26,10.33
		c2.64,3.09,7.03,3.72,10.33,1.26c0.79-0.59,1.58-1.16,2.41-1.68c0.04,0,1.66-0.9,1.88-1.02c0.93-0.45,1.87-0.87,2.84-1.24
		c0.26-0.1,2.75-0.93,1.84-0.68C321.08,68.91,324.4,65.82,323.58,61.58z"/>
	<path class="st2" d="M351.05,90.88c-0.53-3.61-4.49-7.21-8.36-6.2c-4.77,1.24-9.58,2.33-14.42,3.25c-3.9,0.74-6.8,4.31-6.2,8.36
		c0.56,3.82,4.44,6.94,8.36,6.2c4.84-0.92,9.65-2,14.42-3.25C348.69,98.24,351.67,95.12,351.05,90.88z"/>
	<path class="st2" d="M369.96,116.97c-5.55,0.89-11.17,1.49-16.8,1.5c-3.97,0.01-7.67,2.11-8.2,6.41c-0.44,3.57,2.41,8.21,6.41,8.2
		c6.98-0.02,13.85-0.44,20.75-1.55C381.45,130.03,379.34,115.46,369.96,116.97z"/>
	<path class="st2" d="M392.38,159.26c-0.55-3.73-4.46-7.05-8.36-6.2c-5.93,1.3-11.5,1.2-17.4-0.21c-3.87-0.93-7.75,2.78-8.2,6.41
		c-0.53,4.32,2.53,7.27,6.41,8.2c7,1.68,14.32,1.7,21.35,0.16C390.06,166.77,392.99,163.38,392.38,159.26z"/>
	<path class="st2" d="M393.81,189.43c-5.31,0.93-10.4,1-15.74,0.22c-9.37-1.38-11.16,13.23-1.79,14.6
		c6.52,0.96,13.19,0.87,19.68-0.27C405.27,202.36,403.17,187.79,393.81,189.43z"/>
	<path class="st2" d="M398.55,218.39c-4.37,1.84-8.64,2.07-13.25,1.12c-3.9-0.8-7.74,2.69-8.2,6.41c-0.52,4.22,2.5,7.39,6.41,8.2
		c7.03,1.45,14.27,0.56,20.87-2.21C413.11,228.23,407.31,214.71,398.55,218.39z"/>
	<path class="st2" d="M138.22,266.76c-5.41,2.12-10.88,3.49-16.64,4.26c-9.38,1.25-7.25,15.81,2.16,14.56
		c6.96-0.93,13.78-2.74,20.31-5.3C152.87,276.82,147.05,263.3,138.22,266.76z"/>
	<path class="st2" d="M136.44,243.84c-0.15-0.07-0.49-0.01-1.02,0.17c-1.04,0.16-2.08,0.31-3.13,0.45
		c-2.09,0.28-4.18,0.52-6.28,0.72c-4.23,0.4-8.5,0.66-12.75,0.71c-4,0.05-7.62,2.09-8.2,6.41c-0.47,3.54,2.44,8.24,6.41,8.2
		c7.34-0.09,14.64-0.42,21.93-1.35c6.7-0.85,12.52-1.77,15.75-8.28C153.11,242.9,141.37,237.53,136.44,243.84z"/>
	<path class="st2" d="M146.37,216.1c-0.69-0.62-1.39-1.24-2.08-1.85c-2.89-2.58-6.08-2.14-8.37-0.29
		c-4.72-0.65-9.37-1.67-13.96-3.15c-8.97-2.9-14.62,10.69-5.6,13.61c8.04,2.6,16.22,4.3,24.66,4.85
		C148.51,229.74,151.85,220.98,146.37,216.1z"/>
	<path class="st2" d="M145.54,175.92c-6.07-2.51-11.6-5.65-16.86-9.58c-7.6-5.68-16.51,6.04-8.91,11.71
		c6.22,4.65,13,8.51,20.17,11.48C148.7,193.15,154.29,179.54,145.54,175.92z"/>
	<path class="st2" d="M163.58,148.45c-0.95-0.72-2.18-1.19-3.46-1.36c-0.14-0.26-0.26-0.49-0.29-0.55
		c-0.81-1.62-1.54-3.27-2.42-4.86c-2.27-4.1-4.9-7-9.03-9.29c-3.48-1.93-8.22,0.63-9.61,4c-1.66,4.03,0.51,7.67,4,9.61
		c-0.59-0.33,0.04,0.11,0.25,0.31c0.1,0.15,0.25,0.37,0.31,0.46c0.83,1.1,0.76,1.08,1.32,2.2c1.23,2.44,2.35,4.9,3.79,7.23
		c1.46,2.39,3.31,4.42,5.98,5.49c3.58,1.43,8.46,0.58,10.54-2.93C167.01,155.35,166.99,151.05,163.58,148.45z"/>
	<path class="st2" d="M197.52,139.19c-3.73-6.28-6.43-12.92-7.81-20.09c-1.78-9.26-16.36-7.17-14.56,2.16
		c1.62,8.4,4.49,16.4,8.86,23.76c2.03,3.41,5.69,5.56,9.67,3.84C196.97,147.44,199.56,142.62,197.52,139.19z"/>
	<path class="st2" d="M243.23,113.9c-0.14-3.97-4.75-6.73-8.36-6.2c-4.29,0.63-6.34,4.37-6.2,8.36c0.21,6.1-1.11,12.01-3.45,17.61
		c-3.66,8.75,9.96,14.34,13.61,5.6C242.25,131.1,243.53,122.71,243.23,113.9z"/>
	<path class="st2" d="M261.49,145c-0.75,4.56-2.54,8.65-5.28,12.36c-5.64,7.62,6.07,16.53,11.71,8.91c4.3-5.81,7-12.36,8.18-19.49
		C277.63,137.44,263.02,135.67,261.49,145z"/>
	<path class="st2" d="M294.44,181.66c-3.17-2.21-7.95-1.96-10.31,1.4c-0.63,0.89-1.28,1.76-1.98,2.59
		c-0.33,0.39-0.66,0.76-1.01,1.13c-0.14,0.13-0.53,0.51-0.69,0.66c-1.71,1.55-3.57,2.89-5.55,4.07c-3.32,1.98-3.62,7.56-1.26,10.33
		c2.85,3.34,6.79,3.38,10.33,1.26c4.68-2.8,8.74-6.68,11.88-11.13C298.05,188.82,297.78,183.98,294.44,181.66z"/>
	<path class="st2" d="M315.81,229.6c-1.7-3.94-5.87-5.06-9.67-3.84l-16.69,5.37c-3.78,1.22-5.31,6.27-3.84,9.67
		c1.7,3.94,5.87,5.06,9.67,3.84l16.69-5.37C315.75,238.05,317.28,233,315.81,229.6z"/>
	<path class="st2" d="M323.65,260.49c-1.72-3.98-5.85-5-9.67-3.84c-5.61,1.7-11.61,2.47-17.47,2.32c-3.97-0.11-7.68,2.2-8.2,6.41
		c-0.45,3.66,2.41,8.09,6.41,8.2c8.65,0.24,16.81-0.9,25.08-3.41C323.61,269,325.1,263.84,323.65,260.49z"/>
	<path class="st2" d="M228.18,271.09c-0.62-4.88-1.42-9.74-2.44-14.57c-1.99-9.39-3.91-21.05-9.76-28.94
		c-5.05-6.81-13.95-9.81-21.42-4.8c-8.34,5.59-8.74,15.52-7.84,24.56c0.16,1.64,0.79,2.93,1.69,3.9c-0.3,3.5-0.42,6.78-0.58,9.32
		c-0.43,6.78,7.02,9.63,11.45,7.16c1.13,2.99,2.61,5.91,4.44,8.77c1.05,1.63,2.53,2.49,4.13,2.76c0.13,0.17,0.24,0.34,0.37,0.5
		c0.71,0.92,1.55,1.56,2.44,2.01c0.95,2.14,1.88,4.29,2.79,6.44c0.03,0.09,0.05,0.19,0.08,0.28c0.27,1.01,0.68,1.89,1.19,2.64
		c0.01,0.97,0.17,1.83,0.45,2.6c0.21,8.37,13.7,7.88,14.58-0.2C230.56,285.81,229.84,278.36,228.18,271.09z"/>
</g>
</svg>
