<?xml version="1.0" encoding="utf-8"?>
<!-- Generator: Adobe Illustrator 23.0.6, SVG Export Plug-In . SVG Version: 6.00 Build 0)  -->
<svg version="1.1" id="Capa_1" xmlns="http://www.w3.org/2000/svg" xmlns:xlink="http://www.w3.org/1999/xlink" x="0px" y="0px"
	 viewBox="0 0 269 443" style="enable-background:new 0 0 269 443;" xml:space="preserve">
<style type="text/css">
	.st0{clip-path:url(#SVGID_2_);fill:#FFFF88;}
	.st1{clip-path:url(#SVGID_4_);fill:#FFFFFF;}
	.st2{clip-path:url(#SVGID_6_);fill:#FFFFFF;}
	.st3{clip-path:url(#SVGID_8_);fill:#46428B;}
	.st4{clip-path:url(#SVGID_10_);fill:#46428B;}
	.st5{clip-path:url(#SVGID_12_);fill:#46428B;}
	.st6{clip-path:url(#SVGID_14_);fill:#46428B;}
	.st7{clip-path:url(#SVGID_16_);fill:#46428B;}
	.st8{clip-path:url(#SVGID_18_);fill:#46428B;}
	.st9{clip-path:url(#SVGID_20_);fill:#46428B;}
	.st10{clip-path:url(#SVGID_22_);fill:#46428B;}
	.st11{clip-path:url(#SVGID_24_);fill:#46428B;}
	.st12{clip-path:url(#SVGID_26_);fill:#46428B;}
	.st13{clip-path:url(#SVGID_28_);fill:#46428B;}
	.st14{clip-path:url(#SVGID_30_);fill:#46428B;}
	.st15{clip-path:url(#SVGID_32_);fill:#46428B;}
	.st16{clip-path:url(#SVGID_34_);fill:#46428B;}
	.st17{clip-path:url(#SVGID_36_);fill:#46428B;}
	.st18{clip-path:url(#SVGID_38_);fill:#46428B;}
	.st19{clip-path:url(#SVGID_40_);fill:#46428B;}
	.st20{clip-path:url(#SVGID_42_);fill:#46428B;}
	.st21{clip-path:url(#SVGID_44_);fill:#46428B;}
	.st22{clip-path:url(#SVGID_46_);fill:#46428B;}
	.st23{clip-path:url(#SVGID_48_);fill:#46428B;}
	.st24{clip-path:url(#SVGID_50_);fill:#46428B;}
	.st25{clip-path:url(#SVGID_52_);fill:#46428B;}
	.st26{clip-path:url(#SVGID_54_);fill:#46428B;}
	.st27{clip-path:url(#SVGID_56_);fill:#46428B;}
	.st28{clip-path:url(#SVGID_58_);fill:#46428B;}
	.st29{clip-path:url(#SVGID_60_);fill:#46428B;}
	.st30{clip-path:url(#SVGID_62_);fill:#46428B;}
	.st31{clip-path:url(#SVGID_64_);fill:#46428B;}
</style>
<g>
	<g>
		<defs>
			<rect id="SVGID_1_" x="-6" width="271" height="439"/>
		</defs>
		<clipPath id="SVGID_2_">
			<use xlink:href="#SVGID_1_"  style="overflow:visible;"/>
		</clipPath>
		<path class="st0" d="M139.5,413.8c45.1-23.8,80.2-62.5,101.3-108.8c21.3-46.6,30.6-104.1,18-154.4
			c-12.5-50.3-52.7-91.4-96.6-116.8C114.3,6.1,56.2-5.1,2.3,10c-6.9,1.9-7.3,11-3,13.9c-1.6,1.6-2.9,3.7-3.6,6.4c-0.3,1-0.3,2-0.3,3
			c-1.4,1.9-2.7,3.9-4.2,5.8c-5.6,5.6-11.2,11.1-16.8,16.7c-4.2,4.2-2.4,10.2,1.4,12.4c-4.7,6.5-9.4,13.1-14.1,19.6
			c-2.1,3-1.4,6.7,0.6,9.3c-0.9,1-1.8,2.1-2.6,3.1c-2.6,3.2-4.9,7.1-5.9,11.1c-1.8,2.5-3.6,5.1-5.3,7.6c-3.1,4.5-0.8,11.1,5,11.8
			c5.7,0.6,11.5,1.3,17.2,1.9c0.2,0.1,0.3,0.2,0.5,0.2c30.2,10.6,61.1,18.8,92.5,24.9c-3.8,2.8-7.6,5.7-11.2,8.6
			c-1.1-0.1-2.3,0.1-3.5,0.6c-45.7,18.5-64.4,68.4-102.9,96.1c-3.2,2.3-3.7,7.3-1.3,10.3c9.6,12,20.3,23,32,33
			c0.7,1.1,1.4,2.3,2.1,3.4c2.5,5.7,5,11.4,7.5,17.1c-2.8,1.6-4.4,4.8-2.4,8.7c4.3,8.6,9.1,16.9,14.3,25c4,6.9,7.9,13.9,11.9,20.8
			c1.5,2.7,4,3.9,6.5,4c0.9,1.1,1.9,2.2,2.9,3.3c-2.9-0.2-5.8-0.4-8.7-0.6c-2.1-0.1-3.9,0.5-5.2,1.5c-7.6-1.2-15.1-2.3-22.7-3.5
			c-6.3-1-9.1,5.2-7.5,9.8c-1,1.9-1.2,4.3-0.5,6.5c0.5,1.6,1.2,3.1,2,4.5c-1.4,2.8-1.1,6.3,2.1,8.8c3.4,2.6,6.8,4.7,10.3,6.5
			c-3.4,3.9-1.7,10.8,4.5,12.2C43,445.4,95.3,437.1,139.5,413.8z M173.6,205.6c0-0.1,0-0.2,0.1-0.3c0.9,0.5,1.9,0.8,2.8,1
			c0,0.1,0,0.3-0.1,0.4C175.5,206.3,174.5,206,173.6,205.6z M147.9,248.2c-0.3,0.4-0.7,0.7-1,1.1c-0.4,0.2-0.7,0.5-1.1,0.7l-3,1.5
			C144.6,250.4,146.3,249.3,147.9,248.2z M23.2,359c-0.1,0-0.3-0.1-0.4-0.1c-0.4-1-0.9-1.9-1.4-2.8c0.8,1.1,1.6,2.1,2.5,3.2
			C23.7,359.2,23.5,359.1,23.2,359z"/>
	</g>
	<g>
		<defs>
			<rect id="SVGID_3_" x="-6" width="271" height="439"/>
		</defs>
		<clipPath id="SVGID_4_">
			<use xlink:href="#SVGID_3_"  style="overflow:visible;"/>
		</clipPath>
		<path class="st1" d="M105.5,335.9c34.8-14.2,75.3-35.4,87.6-73.6c12.3-37.9,4.1-83.1-16.2-116.7c-19.5-32.4-51.5-55.3-88.4-63.6
			c-47.8-10.7-99.7-5.2-145.8,10c-9,3-3.1,16.5,5.8,13.5C-14.3,93.2,25.4,88.8,64.3,93c36.6,3.9,69.1,18.7,91.9,48.1
			c22,28.4,31.4,66.5,26.3,102c-5.7,39.1-39.9,60.5-73.4,75.2c-39.9,17.6-82.6,33.2-126.8,28.1c-9.4-1.1-11.2,13.5-1.8,14.6
			C24.4,366.1,65.4,352.2,105.5,335.9z"/>
	</g>
	<g>
		<defs>
			<rect id="SVGID_5_" x="-6" width="271" height="439"/>
		</defs>
		<clipPath id="SVGID_6_">
			<use xlink:href="#SVGID_5_"  style="overflow:visible;"/>
		</clipPath>
		<path class="st2" d="M13.1,257.1c21.1-4.9,49.9-11.3,62.5-30.8c12.7-19.6,3-44.8-15.8-56.4c-22.4-13.7-49.1-9.2-73.3-4.1
			c-9.2,1.9-7.1,16.5,2.2,14.6c19.4-4.1,41.1-9,59.8,0c18,8.7,25.5,31.6,7.9,44.9C40.8,237,17.9,241.5-0.8,244.9
			c-21.7,3.9-43.8,4.8-65.7,2.9c-9.4-0.8-11.2,13.8-1.8,14.6C-41.1,264.8-13.6,263.2,13.1,257.1z"/>
	</g>
	<g>
		<defs>
			<rect id="SVGID_7_" x="-6" width="271" height="439"/>
		</defs>
		<clipPath id="SVGID_8_">
			<use xlink:href="#SVGID_7_"  style="overflow:visible;"/>
		</clipPath>
		<path class="st3" d="M25.9,45.7c-0.6-3.3-0.3-6.5,1.7-9.4c2.2-3.3,1.9-7.8-1.4-10.3c-3-2.3-8.1-1.9-10.3,1.4
			c-4.1,6.1-5.9,13.2-4.5,20.5C13.1,57.1,27.6,55,25.9,45.7z"/>
	</g>
	<g>
		<defs>
			<rect id="SVGID_9_" x="-6" width="271" height="439"/>
		</defs>
		<clipPath id="SVGID_10_">
			<use xlink:href="#SVGID_9_"  style="overflow:visible;"/>
		</clipPath>
		<path class="st4" d="M53.3,53.3c3.4-1.5,5.7-6.1,3.8-9.7c-1.5-2.9-2.1-5.9-1.2-8.8c1.2-3.8-0.1-8-4-9.6c-3.4-1.4-8.4,0.2-9.6,4
			c-2.1,6.8-2,13.9,1.3,20.3C45.4,53,49.4,55,53.3,53.3z"/>
	</g>
	<g>
		<defs>
			<rect id="SVGID_11_" x="-6" width="271" height="439"/>
		</defs>
		<clipPath id="SVGID_12_">
			<use xlink:href="#SVGID_11_"  style="overflow:visible;"/>
		</clipPath>
		<path class="st5" d="M86.3,57.2c3.6-0.5,7.3-4.5,6.2-8.4c-0.9-3.4-1-6.2-0.2-8.8c1.2-3.8-0.1-8-4-9.6c-3.4-1.4-8.4,0.2-9.6,4
			c-1.7,5.4-2.2,11-0.7,16.5C79,54.9,82,57.9,86.3,57.2z"/>
	</g>
	<g>
		<defs>
			<rect id="SVGID_13_" x="-6" width="271" height="439"/>
		</defs>
		<clipPath id="SVGID_14_">
			<use xlink:href="#SVGID_13_"  style="overflow:visible;"/>
		</clipPath>
		<path class="st6" d="M125.4,61.7c1.6-3.1,3.1-6.3,4.7-9.4c1.7-3.5-0.4-8.3-4-9.6c-4-1.4-7.8,0.3-9.6,4c-1.6,3.1-3.1,6.3-4.7,9.4
			c-1.7,3.5,0.4,8.3,4,9.6C119.8,67.2,123.5,65.4,125.4,61.7z"/>
	</g>
	<g>
		<defs>
			<rect id="SVGID_15_" x="-6" width="271" height="439"/>
		</defs>
		<clipPath id="SVGID_16_">
			<use xlink:href="#SVGID_15_"  style="overflow:visible;"/>
		</clipPath>
		<path class="st7" d="M155.4,80.2c4-0.3,6.4-3.1,7.3-6.4c0.4-0.6,0.9-1.2,1.4-1.8c1.5-1.8,2.2-2.5,3.8-4c2.9-2.6,4-7.2,1.3-10.3
			c-2.4-2.9-7.3-4-10.3-1.3c-3.9,3.5-7.5,7.5-10.3,12C144.9,74,148.8,80.6,155.4,80.2z"/>
	</g>
	<g>
		<defs>
			<rect id="SVGID_17_" x="-6" width="271" height="439"/>
		</defs>
		<clipPath id="SVGID_18_">
			<use xlink:href="#SVGID_17_"  style="overflow:visible;"/>
		</clipPath>
		<path class="st8" d="M183.8,98.2c1.1-1.8,2.4-3.5,3.8-5.1c0.3-0.4,0.7-0.8,1-1.1c0.1-0.1,0.5-0.5,0.6-0.7c0.2-0.2,0.6-0.6,0.7-0.6
			c0.5-0.4,0.9-0.8,1.4-1.3c2.9-2.5,3.9-7.2,1.3-10.3c-2.5-2.9-7.2-4-10.3-1.3c-3.9,3.4-7.3,7.2-10.1,11.5
			c-2.1,3.2-2.1,7.9,1.4,10.3C176.5,101.7,181.6,101.7,183.8,98.2z"/>
	</g>
	<g>
		<defs>
			<rect id="SVGID_19_" x="-6" width="271" height="439"/>
		</defs>
		<clipPath id="SVGID_20_">
			<use xlink:href="#SVGID_19_"  style="overflow:visible;"/>
		</clipPath>
		<path class="st9" d="M203.3,125c0.2-0.2,0.4-0.4,0.6-0.7c0.1-0.1,0.6-0.6,0.7-0.7c0.4-0.3,0.7-0.6,1.1-0.8
			c0.1-0.1,0.1-0.1,0.2-0.1c0.1,0,0.1-0.1,0.2-0.1c0.7-0.3,1.4-0.6,2.1-0.9c0.1,0,0.6-0.1,0.9-0.2c0.6-0.1,1.1-0.1,1.7-0.2
			c3.9-0.3,6.9-4.7,6.2-8.4c-0.8-4.2-4.2-6.5-8.4-6.2c-6.7,0.5-12.8,4.1-16.9,9.3c-2.4,3-1.8,8.1,1.4,10.3
			C196.3,128.7,200.7,128.2,203.3,125z"/>
	</g>
	<g>
		<defs>
			<rect id="SVGID_21_" x="-6" width="271" height="439"/>
		</defs>
		<clipPath id="SVGID_22_">
			<use xlink:href="#SVGID_21_"  style="overflow:visible;"/>
		</clipPath>
		<path class="st10" d="M214.7,167.4c2.1-1,3.4-2.7,4-4.6c0.6-0.1,1.2-0.3,1.7-0.4c3.9-1,8-3.2,9.1-7.4c1-3.7,0.1-8.1-4-9.6
			c-3-1.1-7.5-0.2-9.2,2.9c-1.7,0.3-3.5,0.6-5,1.4c-5.4,2.6-8.6,8.1-6.3,13.9C206.4,167.1,211.2,169.1,214.7,167.4z"/>
	</g>
	<g>
		<defs>
			<rect id="SVGID_23_" x="-6" width="271" height="439"/>
		</defs>
		<clipPath id="SVGID_24_">
			<use xlink:href="#SVGID_23_"  style="overflow:visible;"/>
		</clipPath>
		<path class="st11" d="M223,191.3c3.2-1.6,6.4-2.4,9.3-2.2c4,0.2,7.7-2.3,8.2-6.4c0.5-3.7-2.4-8-6.4-8.2
			c-5.9-0.3-11.6,0.7-16.9,3.3c-3.6,1.8-5.5,5.9-3.8,9.7C214.8,191,219.4,193.1,223,191.3z"/>
	</g>
	<g>
		<defs>
			<rect id="SVGID_25_" x="-6" width="271" height="439"/>
		</defs>
		<clipPath id="SVGID_26_">
			<use xlink:href="#SVGID_25_"  style="overflow:visible;"/>
		</clipPath>
		<path class="st12" d="M224,237.6c0.5-0.3,1.1-0.5,1.7-0.7c0,0.1,1.5-0.2,1.7-0.2c0,0,0.1,0,0.1,0c0.3,0,0.6,0,0.8,0.1
			c0.4,0,0.7,0.1,1.1,0.1c-0.7-0.2-0.7-0.2,0.2,0.1c3.7,1.2,8.2-0.1,9.6-4c1.3-3.5-0.1-8.4-4-9.6c-5.7-1.8-11.5-1.8-16.9,0.7
			c-3.5,1.6-5.6,6-3.8,9.7C216,237.3,220.2,239.3,224,237.6z"/>
	</g>
	<g>
		<defs>
			<rect id="SVGID_27_" x="-6" width="271" height="439"/>
		</defs>
		<clipPath id="SVGID_28_">
			<use xlink:href="#SVGID_27_"  style="overflow:visible;"/>
		</clipPath>
		<path class="st13" d="M231.7,279.7c1.6-3.8-0.4-8-4-9.6c-3.6-1.6-7-4.1-9.6-7.2c-2.6-3-7.1-3.8-10.3-1.3c-3,2.4-3.9,7.3-1.3,10.3
			c4.4,5.1,9.6,9,15.6,11.8C225.8,285.3,230.3,283.3,231.7,279.7z"/>
	</g>
	<g>
		<defs>
			<rect id="SVGID_29_" x="-6" width="271" height="439"/>
		</defs>
		<clipPath id="SVGID_30_">
			<use xlink:href="#SVGID_29_"  style="overflow:visible;"/>
		</clipPath>
		<path class="st14" d="M203.5,323.6c3.5-0.7,7.3-4.4,6.2-8.4c-1.6-5.8-4-11-7.6-15.9c-2.3-3.1-7.4-3.8-10.3-1.3
			c-3.1,2.6-3.7,7-1.3,10.3c0.6,0.8,1.2,1.6,1.7,2.4c0,0,0.9,1.7,1,1.9c0.4,0.9,0.9,1.9,1.2,2.8c0.1,0.3,0.9,2.8,0.7,1.8
			C196.1,321.1,199.2,324.4,203.5,323.6z"/>
	</g>
	<g>
		<defs>
			<rect id="SVGID_31_" x="-6" width="271" height="439"/>
		</defs>
		<clipPath id="SVGID_32_">
			<use xlink:href="#SVGID_31_"  style="overflow:visible;"/>
		</clipPath>
		<path class="st15" d="M174.2,351c3.6-0.5,7.2-4.5,6.2-8.4c-1.2-4.8-2.3-9.6-3.3-14.4c-0.7-3.9-4.3-6.8-8.4-6.2
			c-3.8,0.6-6.9,4.4-6.2,8.4c0.9,4.8,2,9.6,3.3,14.4C166.8,348.7,169.9,351.7,174.2,351z"/>
	</g>
	<g>
		<defs>
			<rect id="SVGID_33_" x="-6" width="271" height="439"/>
		</defs>
		<clipPath id="SVGID_34_">
			<use xlink:href="#SVGID_33_"  style="overflow:visible;"/>
		</clipPath>
		<path class="st16" d="M148.1,370c-0.9-5.5-1.5-11.2-1.5-16.8c0-4-2.1-7.7-6.4-8.2c-3.6-0.4-8.2,2.4-8.2,6.4c0,7,0.4,13.9,1.6,20.8
			C135,381.5,149.6,379.3,148.1,370z"/>
	</g>
	<g>
		<defs>
			<rect id="SVGID_35_" x="-6" width="271" height="439"/>
		</defs>
		<clipPath id="SVGID_36_">
			<use xlink:href="#SVGID_35_"  style="overflow:visible;"/>
		</clipPath>
		<path class="st17" d="M105.8,392.4c3.7-0.5,7.1-4.5,6.2-8.4c-1.3-5.9-1.2-11.5,0.2-17.4c0.9-3.9-2.8-7.8-6.4-8.2
			c-4.3-0.5-7.3,2.5-8.2,6.4c-1.7,7-1.7,14.3-0.2,21.4C98.3,390.1,101.7,393,105.8,392.4z"/>
	</g>
	<g>
		<defs>
			<rect id="SVGID_37_" x="-6" width="271" height="439"/>
		</defs>
		<clipPath id="SVGID_38_">
			<use xlink:href="#SVGID_37_"  style="overflow:visible;"/>
		</clipPath>
		<path class="st18" d="M75.6,393.8c-0.9-5.3-1-10.4-0.2-15.7c1.4-9.4-13.2-11.2-14.6-1.8c-1,6.5-0.9,13.2,0.3,19.7
			C62.7,405.3,77.3,403.2,75.6,393.8z"/>
	</g>
	<g>
		<defs>
			<rect id="SVGID_39_" x="-6" width="271" height="439"/>
		</defs>
		<clipPath id="SVGID_40_">
			<use xlink:href="#SVGID_39_"  style="overflow:visible;"/>
		</clipPath>
		<path class="st19" d="M46.7,398.5c-1.8-4.4-2.1-8.6-1.1-13.3c0.8-3.9-2.7-7.7-6.4-8.2c-4.2-0.5-7.4,2.5-8.2,6.4
			c-1.4,7-0.6,14.3,2.2,20.9C36.8,413.1,50.3,407.3,46.7,398.5z"/>
	</g>
	<g>
		<defs>
			<rect id="SVGID_41_" x="-6" width="271" height="439"/>
		</defs>
		<clipPath id="SVGID_42_">
			<use xlink:href="#SVGID_41_"  style="overflow:visible;"/>
		</clipPath>
		<path class="st20" d="M-1.7,138.2c-2.1-5.4-3.5-10.9-4.3-16.6c-1.3-9.4-15.8-7.3-14.6,2.2c0.9,7,2.7,13.8,5.3,20.3
			C-11.8,152.9,1.7,147.1-1.7,138.2z"/>
	</g>
	<g>
		<defs>
			<rect id="SVGID_43_" x="-6" width="271" height="439"/>
		</defs>
		<clipPath id="SVGID_44_">
			<use xlink:href="#SVGID_43_"  style="overflow:visible;"/>
		</clipPath>
		<path class="st21" d="M21.2,136.4c0.1-0.1,0-0.5-0.2-1c-0.2-1-0.3-2.1-0.4-3.1c-0.3-2.1-0.5-4.2-0.7-6.3
			c-0.4-4.2-0.7-8.5-0.7-12.8c-0.1-4-2.1-7.6-6.4-8.2c-3.5-0.5-8.2,2.4-8.2,6.4c0.1,7.3,0.4,14.6,1.4,21.9
			c0.9,6.7,1.8,12.5,8.3,15.8C22.1,153.1,27.5,141.4,21.2,136.4z"/>
	</g>
	<g>
		<defs>
			<rect id="SVGID_45_" x="-6" width="271" height="439"/>
		</defs>
		<clipPath id="SVGID_46_">
			<use xlink:href="#SVGID_45_"  style="overflow:visible;"/>
		</clipPath>
		<path class="st22" d="M48.9,146.4c0.6-0.7,1.2-1.4,1.9-2.1c2.6-2.9,2.1-6.1,0.3-8.4c0.6-4.7,1.7-9.4,3.1-14
			c2.9-9-10.7-14.6-13.6-5.6c-2.6,8-4.3,16.2-4.9,24.7C35.3,148.5,44.1,151.9,48.9,146.4z"/>
	</g>
	<g>
		<defs>
			<rect id="SVGID_47_" x="-6" width="271" height="439"/>
		</defs>
		<clipPath id="SVGID_48_">
			<use xlink:href="#SVGID_47_"  style="overflow:visible;"/>
		</clipPath>
		<path class="st23" d="M89.1,145.5c2.5-6.1,5.6-11.6,9.6-16.9c5.7-7.6-6-16.5-11.7-8.9c-4.6,6.2-8.5,13-11.5,20.2
			C71.9,148.7,85.5,154.3,89.1,145.5z"/>
	</g>
	<g>
		<defs>
			<rect id="SVGID_49_" x="-6" width="271" height="439"/>
		</defs>
		<clipPath id="SVGID_50_">
			<use xlink:href="#SVGID_49_"  style="overflow:visible;"/>
		</clipPath>
		<path class="st24" d="M116.6,163.6c0.7-0.9,1.2-2.2,1.4-3.5c0.3-0.1,0.5-0.3,0.6-0.3c1.6-0.8,3.3-1.5,4.9-2.4c4.1-2.3,7-4.9,9.3-9
			c1.9-3.5-0.6-8.2-4-9.6c-4-1.7-7.7,0.5-9.6,4c0.3-0.6-0.1,0-0.3,0.3c-0.1,0.1-0.4,0.3-0.5,0.3c-1.1,0.8-1.1,0.8-2.2,1.3
			c-2.4,1.2-4.9,2.4-7.2,3.8c-2.4,1.5-4.4,3.3-5.5,6c-1.4,3.6-0.6,8.5,2.9,10.5C109.7,167,114,167,116.6,163.6z"/>
	</g>
	<g>
		<defs>
			<rect id="SVGID_51_" x="-6" width="271" height="439"/>
		</defs>
		<clipPath id="SVGID_52_">
			<use xlink:href="#SVGID_51_"  style="overflow:visible;"/>
		</clipPath>
		<path class="st25" d="M125.9,197.5c6.3-3.7,12.9-6.4,20.1-7.8c9.3-1.8,7.2-16.4-2.2-14.6c-8.4,1.6-16.4,4.5-23.8,8.9
			c-3.4,2-5.6,5.7-3.8,9.7C117.6,197,122.4,199.6,125.9,197.5z"/>
	</g>
	<g>
		<defs>
			<rect id="SVGID_53_" x="-6" width="271" height="439"/>
		</defs>
		<clipPath id="SVGID_54_">
			<use xlink:href="#SVGID_53_"  style="overflow:visible;"/>
		</clipPath>
		<path class="st26" d="M151.1,243.2c4-0.1,6.7-4.8,6.2-8.4c-0.6-4.3-4.4-6.3-8.4-6.2c-6.1,0.2-12-1.1-17.6-3.4
			c-8.8-3.7-14.3,10-5.6,13.6C133.9,242.3,142.3,243.5,151.1,243.2z"/>
	</g>
	<g>
		<defs>
			<rect id="SVGID_55_" x="-6" width="271" height="439"/>
		</defs>
		<clipPath id="SVGID_56_">
			<use xlink:href="#SVGID_55_"  style="overflow:visible;"/>
		</clipPath>
		<path class="st27" d="M120,261.5c-4.6-0.8-8.6-2.5-12.4-5.3c-7.6-5.6-16.5,6.1-8.9,11.7c5.8,4.3,12.4,7,19.5,8.2
			C127.6,277.6,129.4,263,120,261.5z"/>
	</g>
	<g>
		<defs>
			<rect id="SVGID_57_" x="-6" width="271" height="439"/>
		</defs>
		<clipPath id="SVGID_58_">
			<use xlink:href="#SVGID_57_"  style="overflow:visible;"/>
		</clipPath>
		<path class="st28" d="M83.4,294.4c2.2-3.2,2-8-1.4-10.3c-0.9-0.6-1.8-1.3-2.6-2c-0.4-0.3-0.8-0.7-1.1-1c-0.1-0.1-0.5-0.5-0.7-0.7
			c-1.6-1.7-2.9-3.6-4.1-5.5c-2-3.3-7.6-3.6-10.3-1.3c-3.3,2.9-3.4,6.8-1.3,10.3c2.8,4.7,6.7,8.7,11.1,11.9
			C76.2,298,81.1,297.8,83.4,294.4z"/>
	</g>
	<g>
		<defs>
			<rect id="SVGID_59_" x="-6" width="271" height="439"/>
		</defs>
		<clipPath id="SVGID_60_">
			<use xlink:href="#SVGID_59_"  style="overflow:visible;"/>
		</clipPath>
		<path class="st29" d="M35.4,315.8c3.9-1.7,5.1-5.9,3.8-9.7l-5.4-16.7c-1.2-3.8-6.3-5.3-9.7-3.8c-3.9,1.7-5.1,5.9-3.8,9.7l5.4,16.7
			C27,315.8,32,317.3,35.4,315.8z"/>
	</g>
	<g>
		<defs>
			<rect id="SVGID_61_" x="-6" width="271" height="439"/>
		</defs>
		<clipPath id="SVGID_62_">
			<use xlink:href="#SVGID_61_"  style="overflow:visible;"/>
		</clipPath>
		<path class="st30" d="M4.6,323.6c4-1.7,5-5.9,3.8-9.7c-1.7-5.6-2.5-11.6-2.3-17.5c0.1-4-2.2-7.7-6.4-8.2c-3.7-0.5-8.1,2.4-8.2,6.4
			c-0.2,8.6,0.9,16.8,3.4,25.1C-4,323.6,1.2,325.1,4.6,323.6z"/>
	</g>
	<g>
		<defs>
			<rect id="SVGID_63_" x="-6" width="271" height="439"/>
		</defs>
		<clipPath id="SVGID_64_">
			<use xlink:href="#SVGID_63_"  style="overflow:visible;"/>
		</clipPath>
		<path class="st31" d="M-6,228.2c4.9-0.6,9.7-1.4,14.6-2.4c9.4-2,21.1-3.9,28.9-9.8c6.8-5.1,9.8-13.9,4.8-21.4
			c-5.6-8.3-15.5-8.7-24.6-7.8c-1.6,0.2-2.9,0.8-3.9,1.7c-3.5-0.3-6.8-0.4-9.3-0.6c-6.8-0.4-9.6,7-7.2,11.4c-3,1.1-5.9,2.6-8.8,4.4
			c-1.6,1.1-2.5,2.5-2.8,4.1c-0.2,0.1-0.3,0.2-0.5,0.4c-0.9,0.7-1.6,1.6-2,2.4c-2.1,0.9-4.3,1.9-6.4,2.8c-0.1,0-0.2,0.1-0.3,0.1
			c-1,0.3-1.9,0.7-2.6,1.2c-1,0-1.8,0.2-2.6,0.4c-8.4,0.2-7.9,13.7,0.2,14.6C-20.8,230.6-13.3,229.8-6,228.2z"/>
	</g>
</g>
</svg>
