<?xml version="1.0" encoding="utf-8"?>
<!-- Generator: Adobe Illustrator 23.0.6, SVG Export Plug-In . SVG Version: 6.00 Build 0)  -->
<svg version="1.1" id="Capa_1" xmlns="http://www.w3.org/2000/svg" xmlns:xlink="http://www.w3.org/1999/xlink" x="0px" y="0px"
	 viewBox="0 0 310.6 301" style="enable-background:new 0 0 310.6 301;" xml:space="preserve">
<style type="text/css">
	.st0{fill:#FFFFFF;stroke:#FFFF88;stroke-width:13;stroke-miterlimit:10;}
	.st1{fill:#02C8A7;}
</style>
<path class="st0" d="M302.5,168.8c1.4-18.2,0-36.4-3.6-52.5c-8.1-36.5-33-69-65.5-87.1c-13.4-7.5-28.1-12.4-43.1-14.7
	c-14.4-3-29.7-2.9-44.1-0.2c-38.9,7.4-81.5,29.4-107.7,59.5C2.4,115,2,173.5,27.2,218.7c0.4,0.9,0.7,1.9,1.1,2.8
	c7.4,17.3,21.5,30.7,37.3,40.7c31.3,22.7,72,31.2,110.1,27c7.5-0.8,15.2-2.1,22.8-3.9c1.9-0.4,3.7-0.9,5.6-1.3c0,0,0,0,0.1,0
	c1.6-0.4,3.2-0.9,4.8-1.4c26.5-7.7,51.7-21.6,68.8-42.9c6.3-7.9,11.3-17,15.2-26.8C300.5,198.9,303.5,183.7,302.5,168.8z"/>
<path class="st1" d="M255.5,211.7c-2.3-15.2-6.5-32.9-17.2-44.7c-11.8-13-31.4-8.2-47-7.4c-1.9,0.1-3.7,0.2-5.6,0.3
	c0-5-0.5-9.9-1.5-14.8c0-0.6,0-1.2,0-1.9c1.6-0.7,3.2-1.5,4.7-2.3c12-6.7,20.2-17.1,24.5-28.8c0.2,0,0.4,0,0.7,0
	c8.9-0.3,16.9-5.9,19.1-14.7c2.4-9.6-3.4-18.8-12.3-22.2c-1-8.1-7.2-15.5-14.6-21.1c-11.1-15.9-34.7-22.6-53.1-17.1
	c-14.5,1.4-28,8.9-37.4,20.5c-5.9,4.9-10.6,11.1-13.5,18.3c-3.6,0.7-6.9,2.4-9.5,4.9c-4.6,3.5-7.6,8.8-7.5,14.7
	c0.2,11.8,11.2,17.8,21.7,18c0.1,0,0.2,0,0.3,0c6.4,13.5,18.1,24,31.8,29.7c0,0.4-0.1,0.8-0.1,1.2c0,1,0,1.9,0,2.9
	c0,1.8,0.4,3.4,1,4.8c-0.2,3.4,0.1,6.9,0.8,10.2c-5.3,0.3-10.6,0.5-15.8,0.8c-2.2,0.1-4.1,0.7-5.6,1.6c-4.7-0.4-9,0.3-13,1.8
	c-12,0.7-23.2,3.2-29.8,14.2c-4.9,5.6-6.8,13.2-7.1,21.3c-0.3,1.8-0.5,3.5-0.6,5.3c-0.7,4.1-1.3,8.2-2,12.1
	c-1,5.5-1.6,10.8-1.1,15.9c-4,9.3,1.2,18.6,8.7,24.3c7.6,5.7,17.4,7.8,26.7,9.4c1.8,0.9,3.7,1.8,5.6,2.6c5.6,3.8,11.8,6.5,18.3,8
	c8.8,2.1,19.5,2.4,29.7,0.7c10.6,0.2,21.2-0.4,30.9-1.2c2.1-0.2,3.9-0.8,5.5-1.7c5.9-0.8,11.7-1.9,17.4-3.3
	c13.6-3.4,30.8-8.5,41.1-18.6C261.8,243.7,257.8,226.5,255.5,211.7z"/>
</svg>
