<?xml version="1.0" encoding="utf-8"?>
<!-- Generator: Adobe Illustrator 23.0.6, SVG Export Plug-In . SVG Version: 6.00 Build 0)  -->
<svg version="1.1" id="Capa_1" xmlns="http://www.w3.org/2000/svg" xmlns:xlink="http://www.w3.org/1999/xlink" x="0px" y="0px"
	 viewBox="0 0 161 215.9" style="enable-background:new 0 0 161 215.9;" xml:space="preserve">
<style type="text/css">
	.st0{fill:#FFFF88;}
</style>
<path class="st0" d="M4.9,78.6C15.6,56.3,37.3,44.7,44.6,20c4.4-15,24-20.9,35.2-9.3c26.9,27.7,51.7,56.9,75,87.7
	c16.4,21.6-20.2,42.6-36.4,21.3c-5.9-7.7-11.9-15.3-18.1-22.9c-2.9,35.6-10.1,70.7-21.9,104.7c-8.8,25.4-49.5,14.5-40.6-11.2
	c12.8-36.8,20-74.2,21.6-112.9c-6.7,7-13.9,13.7-18.2,22.4C29.5,124.2-6.8,102.9,4.9,78.6z"/>
</svg>
