<?xml version="1.0" encoding="utf-8"?>
<!-- Generator: Adobe Illustrator 23.0.6, SVG Export Plug-In . SVG Version: 6.00 Build 0)  -->
<svg version="1.1" id="Capa_1" xmlns="http://www.w3.org/2000/svg" xmlns:xlink="http://www.w3.org/1999/xlink" x="0px" y="0px"
	 viewBox="0 0 376 358" style="enable-background:new 0 0 376 358;" xml:space="preserve">
<style type="text/css">
	.st0{fill:#FFFF88;}
</style>
<path class="st0" d="M374.41,316.24c-40.33-117.83-137.19-201.1-256.14-223.32c17.3-9.04,35.01-17.16,53.17-24.35
	c40.49-16.03,22.85-82.28-18.2-66.03C117.57,16.66,82.95,32.72,50.19,52.76c-24.93,15.26-55.2,31.23-50.12,65
	c3.76,25.01,25.82,51.31,35.48,75.36c11.71,29.16,24.29,56.61,48.2,77.89c32.82,29.21,81.42-19.05,48.42-48.42
	c-18.82-16.75-26.7-38.32-35.91-61.17c-0.43-1.07-0.87-2.13-1.3-3.2c98.21,13.95,180.58,80.25,213.43,176.23
	C322.57,375.9,388.73,358.09,374.41,316.24z"/>
</svg>
