<?xml version="1.0" encoding="utf-8"?>
<!-- Generator: Adobe Illustrator 23.0.6, SVG Export Plug-In . SVG Version: 6.00 Build 0)  -->
<svg version="1.1" id="Capa_1" xmlns="http://www.w3.org/2000/svg" xmlns:xlink="http://www.w3.org/1999/xlink" x="0px" y="0px"
	 viewBox="0 0 447 358" style="enable-background:new 0 0 447 358;" xml:space="preserve">
<style type="text/css">
	.st0{fill:#FFFF88;}
</style>
<path class="st0" d="M446.69,41.4c-1.37-11.19-6.87-21.08-18.48-24.27c-25.88-7.11-57.83-1.91-84.49-1.91
	c-32.11,0.01-63.61-1.43-94.89-9.19c-31.44-7.81-44.85,40.72-13.38,48.53c27.31,6.78,55.16,9.8,83.23,10.67
	c-55.61,20.93-108.93,47.91-158.45,80.84C93.25,190.62,28.21,246.38,6.16,326.82c-8.57,31.28,39.97,44.63,48.53,13.38
	c19.96-72.84,84.72-121.68,145.72-160.25c56.27-35.58,116.65-63.05,179.94-82.65c-1.22,3.24-2.29,6.35-3.07,9.2
	c-4.2,15.38-7.08,30.91-7.92,46.66c-7.62,8.94-9.47,22.16,1.8,32.39l5.62,5.1c15.02,13.62,44.46,5.23,42.96-17.79
	c-1.59-24.47,3.86-46.59,11.13-69.79C436.71,84.5,449.11,61.15,446.69,41.4z"/>
</svg>
