<?xml version="1.0" encoding="utf-8"?>
<!-- Generator: Adobe Illustrator 23.0.6, SVG Export Plug-In . SVG Version: 6.00 Build 0)  -->
<svg version="1.1" id="Capa_1" xmlns="http://www.w3.org/2000/svg" xmlns:xlink="http://www.w3.org/1999/xlink" x="0px" y="0px"
	 viewBox="0 0 447 358" style="enable-background:new 0 0 447 358;" xml:space="preserve">
<style type="text/css">
	.st0{fill:#02C8A7;}
	.st1{fill:#FFFFFF;}
</style>
<g>
	<path class="st0" d="M396.73,96c-1.13,0.59-2.22,1.23-3.34,1.82c6.5-26.27-22.94-56.22-50.94-38.94c-0.04,0.02-0.07,0.04-0.1,0.07
		c19.55-26.6-16.66-70.76-46.73-49.2c-25.3,18.13-49.69,37.38-73.09,57.76c9.74-30.62-26.62-59.25-56.74-35.05
		C95.64,88.81,40.61,161.23,5.24,243.97c-11.28,26.38,13.64,66.91,43.61,49.65c-0.78,7.52-0.65,15.04,0.62,22.54
		c3.72,21.95,33.34,31.65,50.85,20.69c27.15-17,53.75-34.81,79.85-53.29c3.2,2.9,7.08,5.19,11.55,6.73
		c-1.17,1.96-2.39,3.89-3.53,5.86c-10.57,18.25-1.54,46.32,20.69,50.85c26.42,5.38,48.3-0.63,69.27-11.57
		c17.2,2.27,33.77-0.22,49.08-6.96c28.73,20.03,68.03-24.02,42.01-55.3c18.9-14.14,37.55-28.62,56.01-43.35
		c19.88-15.87,10.81-41.49-6.95-52.95c9.27-10.41,17.96-21.47,25.8-33.51C464.01,112.78,425.71,80.86,396.73,96z M212.57,172.76
		c6.6-6.99,13.38-13.8,20.2-20.54c-3.59,4.17-7.1,8.41-10.54,12.72C219.01,167.54,215.81,170.18,212.57,172.76z"/>
	<g>
		<g>
			<path class="st1" d="M18.71,30.52c-2.95,46.28-6.07,92.54-8.82,138.83c-2.62,44.11-3.88,88.71,4.5,132.33
				c1.99,10.36,4.32,20.9,7.88,30.84c1.91,5.34,4.35,10.5,8.37,14.61c4.01,4.1,9.42,6.69,15.05,7.61c5.6,0.91,11.19,0.81,16.84,0.76
				c5.78-0.05,11.57-0.11,17.35-0.16c11.69-0.11,23.38-0.22,35.08-0.33c46.64-0.43,93.28-0.86,139.92-1.3
				c23.38-0.22,46.77-0.43,70.15-0.65c11.57-0.11,23.13-0.21,34.7-0.32c5.69-0.05,11.38-0.06,17.07-0.16
				c6.55-0.12,12.75-1.27,17.96-5.47c8.95-7.23,10.18-21.22,11.31-31.81c1.17-11.01,0.95-22.1,0.54-33.14
				c-0.86-22.94-1.85-45.88-2.97-68.82c-2.22-45.7-5.22-91.4-10.66-136.84c-1.42-11.84-2.99-23.67-4.75-35.47
				c-0.79-5.32-1.5-10.69-2.53-15.97c-1.06-5.44-3.16-10.97-7.16-14.97c-8.68-8.69-22.15-6.52-33.26-6.17
				c-11.55,0.37-23.1,0.73-34.65,1.1C263.91,6.5,217.21,7.98,170.5,9.46c-23.1,0.73-46.21,1.46-69.31,2.2
				c-11.8,0.37-23.6,0.75-35.41,1.12c-5.78,0.18-11.55,0.37-17.33,0.55c-5.12,0.16-10.27,0.16-15.28,1.38
				c-4.45,1.08-8.78,3.1-12.16,6.22c-4.37,4.02-5.76,9.81-4.55,15.49c0.99,4.61,6.63,7.72,11.07,6.29
				c4.86-1.57,7.34-6.13,6.29-11.07c-0.36-1.69,0.12,2.38,0.11,0.72c0-1.62-0.57,2.38-0.13,0.86c0.42-1.43-1.06,1.78-0.44,0.92
				c0.16-0.22,0.37-0.57,0.48-0.82c-0.75,1.75-1.22,1.44-0.4,0.62c0.67-0.67,1.44-0.73-0.56,0.34c0.78-0.42,1.48-0.97,2.28-1.36
				c0.92-0.45,1.63-0.2-0.44,0.16c0.28-0.05,0.62-0.23,0.9-0.33c0.92-0.31,1.86-0.57,2.81-0.79c0.79-0.18,1.6-0.27,2.39-0.44
				c-2.74,0.59-1.25,0.17-0.51,0.11c0.58-0.05,1.16-0.07,1.74-0.09c11.42-0.39,22.85-0.72,34.28-1.09c22.6-0.72,45.2-1.43,67.8-2.15
				c45.2-1.43,90.4-2.87,135.6-4.3c22.85-0.72,45.7-1.45,68.55-2.17c0.96-0.03,14.96-0.24,14.95-0.15c-0.4-0.06-0.8-0.11-1.2-0.17
				c0.39,0.06,0.78,0.13,1.17,0.22c0.58,0.13,1.13,0.32,1.7,0.46c1.37,0.35-0.68,0.04-0.53-0.26c0.01-0.02,1.56,0.82,1.53,0.87
				c-0.3-0.24-0.6-0.48-0.91-0.72c0.28,0.23,0.55,0.48,0.8,0.74c0.01,0.01,0.63,0.78,0.73,0.8c-0.25-0.32-0.5-0.64-0.75-0.96
				c0.21,0.3,0.4,0.6,0.59,0.91c0.4,0.66,1.04,2.78,0.3,0.31c2.93,9.71,3.95,19.98,5.37,30.02c0.17,1.22,0.34,2.45,0.51,3.67
				c0.1,0.73,0.2,1.47,0.3,2.2c0.34,2.48-0.26-1.94,0.07,0.55c0.36,2.7,0.71,5.39,1.05,8.09c0.71,5.64,1.39,11.29,2.02,16.94
				c1.25,11.06,2.36,22.13,3.35,33.21c1.99,22.18,3.53,44.39,4.8,66.62c1.29,22.49,2.3,44.99,3.25,67.49
				c0.46,11.04,0.98,22.07,1.33,33.11c0.17,5.29,0.26,10.59,0.15,15.89c-0.11,5.46-0.24,11.1-1.16,16.5
				c0.36-2.09,0.05-0.43-0.03,0.1c-0.09,0.59-0.18,1.18-0.28,1.77c-0.24,1.42-0.5,2.83-0.79,4.24c-0.45,2.16-1.06,4.24-1.69,6.35
				c-0.58,1.91,0.96-1.81,0.05-0.05c-0.26,0.5-0.49,1.01-0.78,1.49c-0.23,0.4-0.5,0.77-0.74,1.17c-0.61,1,1.56-1.54,0.2-0.32
				c-0.15,0.13-1.19,0.98-1.2,1.13c0.31-0.25,0.62-0.5,0.93-0.74c-0.34,0.22-0.68,0.43-1.04,0.62c-1.22,0.78,0.51-0.45,0.5-0.18
				c-0.01,0.21-2.1,0.58-2.33,0.64c-2.02,0.55,2.08-0.1-0.03,0.03c-0.41,0.03-0.82,0.07-1.23,0.1c-1.23,0.08-2.47,0.09-3.7,0.1
				c-2.89,0.03-5.78,0.05-8.67,0.08c-5.66,0.05-11.31,0.1-16.97,0.16c-22.63,0.21-45.26,0.42-67.89,0.63
				c-45.51,0.42-91.02,0.84-136.53,1.27c-22.63,0.21-45.26,0.42-67.89,0.63c-5.78,0.05-11.57,0.11-17.35,0.16
				c-2.2,0.02-4.41,0.06-6.61,0c-1.25-0.03-2.49-0.14-3.73-0.22c-2.07-0.15,1.56,0.31,0.25,0.04c-0.7-0.15-1.4-0.25-2.1-0.43
				c-0.59-0.15-1.16-0.36-1.75-0.51c-1.92-0.5,1.3,0.71,0.19,0.12c-0.27-0.14-2.94-1.44-2.85-1.67c0.31,0.23,0.62,0.47,0.93,0.7
				c-0.29-0.24-0.57-0.5-0.84-0.76c-0.27-0.26-0.53-0.53-0.78-0.81c-0.12-0.14-0.25-0.28-0.37-0.42c-0.61-0.74-0.49-0.57,0.36,0.5
				c0.06-0.11-1.13-1.7-1.25-1.9c-0.49-0.82-0.93-1.67-1.34-2.54c-0.08-0.18-0.16-0.35-0.24-0.53c-0.39-0.89-0.32-0.71,0.22,0.54
				c0,0-0.47-1.22-0.52-1.36c-0.82-2.21-1.49-4.46-2.15-6.72c-2.97-10.15-5.28-20.48-7.05-30.9c-0.43-2.54-0.83-5.09-1.2-7.64
				c-0.1-0.7-0.2-1.39-0.29-2.09c-0.33-2.38,0.24,1.99-0.05-0.4c-0.17-1.4-0.35-2.79-0.51-4.19c-0.61-5.25-1.1-10.52-1.49-15.79
				c-1.56-21.36-1.4-42.8-0.56-64.18c0.86-21.7,2.39-43.36,3.77-65.03c1.44-22.57,2.88-45.14,4.32-67.71
				c0.7-11.03,1.41-22.07,2.11-33.1c0.3-4.71-4.35-9.21-9-9C22.58,21.75,19.03,25.47,18.71,30.52L18.71,30.52z"/>
		</g>
	</g>
	<g>
		<g>
			<path class="st1" d="M99.83,121.08c28.14-0.53,56.28-1.05,84.42-1.58c27.97-0.52,55.95-1.04,83.92-1.57
				c15.82-0.3,31.64-0.59,47.46-0.89c4.7-0.09,9.22-4.08,9-9c-0.22-4.8-3.96-9.09-9-9c-28.14,0.53-56.28,1.05-84.42,1.58
				c-27.97,0.52-55.95,1.04-83.92,1.57c-15.82,0.3-31.64,0.59-47.46,0.89c-4.7,0.09-9.22,4.08-9,9
				C91.05,116.88,94.79,121.18,99.83,121.08L99.83,121.08z"/>
		</g>
	</g>
	<g>
		<g>
			<path class="st1" d="M84.01,179.31c31.65,0.77,63.31,1.53,94.96,2.3c31.49,0.76,62.97,1.52,94.46,2.28
				c17.66,0.43,35.32,0.85,52.98,1.28c4.71,0.11,9.21-4.22,9-9c-0.23-5.1-3.96-8.71-9-9c-3.59-0.2-7.17-0.41-10.76-0.61
				c-4.71-0.27-9.21,4.33-9,9c0.23,5.1,3.96,8.71,9,9c3.59,0.2,7.17,0.41,10.76,0.61c0-6,0-12,0-18
				c-31.65-0.77-63.31-1.53-94.96-2.3c-31.49-0.76-62.97-1.52-94.46-2.28c-17.66-0.43-35.32-0.85-52.98-1.28
				c-4.71-0.11-9.21,4.22-9,9C75.23,175.29,78.96,179.19,84.01,179.31L84.01,179.31z"/>
		</g>
	</g>
	<g>
		<g>
			<path class="st1" d="M106.33,218.48c-4.61,1.14-8.24,4.99-9.42,9.55c-1.06,4.07-0.42,8.28,1.5,11.98
				c3.91,7.54,13.17,9.05,20.8,8.93c14.87-0.22,29.73-0.51,44.6-0.77c29.61-0.51,59.21-1.02,88.82-1.53
				c16.63-0.29,33.27-0.57,49.9-0.86c-0.8-5.89-1.6-11.79-2.39-17.68c-3.47,0.52-6.95,1.05-10.42,1.57
				c-2.08,0.31-4.37,2.41-5.38,4.14c-1.13,1.93-1.61,4.77-0.91,6.94c0.7,2.18,2.05,4.28,4.14,5.38c0.72,0.3,1.43,0.6,2.15,0.91
				c1.6,0.43,3.19,0.43,4.79,0c3.47-0.52,6.95-1.05,10.42-1.57c1.99-0.3,4.47-2.41,5.38-4.14c0.96-1.82,1.34-3.69,1.07-5.74
				c-0.58-4.32-4.33-7.88-8.84-7.8c-24.78,0.43-49.56,0.85-74.35,1.28c-24.78,0.43-49.56,0.85-74.35,1.28
				c-6.99,0.12-13.97,0.24-20.96,0.36c-3.49,0.06-6.99,0.12-10.48,0.18c-2.92,0.05-5.86,0.2-8.77-0.18c0.8,0.11,1.6,0.21,2.39,0.32
				c-1.25-0.19-2.45-0.48-3.62-0.96c0.72,0.3,1.43,0.6,2.15,0.91c-0.8-0.36-1.53-0.79-2.22-1.32c0.61,0.47,1.21,0.94,1.82,1.41
				c-0.38-0.32-0.72-0.65-1.03-1.04c0.47,0.61,0.94,1.21,1.41,1.82c-0.33-0.45-0.59-0.91-0.82-1.42c0.3,0.72,0.6,1.43,0.91,2.15
				c-0.24-0.61-0.4-1.22-0.5-1.87c0.11,0.8,0.21,1.6,0.32,2.39c-0.07-0.64-0.08-1.26-0.01-1.9c-0.11,0.8-0.21,1.6-0.32,2.39
				c0.08-0.52,0.2-1.02,0.39-1.51c-0.3,0.72-0.6,1.43-0.91,2.15c0.17-0.39,0.37-0.74,0.61-1.08c-0.47,0.61-0.94,1.21-1.41,1.82
				c0.21-0.26,0.43-0.48,0.68-0.7c-0.61,0.47-1.21,0.94-1.82,1.41c0.27-0.2,0.54-0.37,0.85-0.51c-0.72,0.3-1.43,0.6-2.15,0.91
				c0.25-0.1,0.49-0.17,0.75-0.24c4.57-1.13,7.76-6.53,6.29-11.07C115.87,220.03,111.23,217.26,106.33,218.48L106.33,218.48z"/>
		</g>
	</g>
</g>
</svg>
