<?xml version="1.0" encoding="utf-8"?>
<!-- Generator: Adobe Illustrator 23.0.6, SVG Export Plug-In . SVG Version: 6.00 Build 0)  -->
<svg version="1.1" id="Capa_1" xmlns="http://www.w3.org/2000/svg" xmlns:xlink="http://www.w3.org/1999/xlink" x="0px" y="0px"
	 viewBox="0 0 447 358" style="enable-background:new 0 0 447 358;" xml:space="preserve">
<style type="text/css">
	.st0{fill:#FC4C62;}
	.st1{fill:#FFFFFF;}
</style>
<g>
	<path class="st0" d="M394.73,98.71c-1.1,0.58-2.18,1.2-3.28,1.79c6.38-25.78-22.51-55.17-49.99-38.21
		c-0.03,0.02-0.07,0.04-0.1,0.06c19.19-26.11-16.35-69.44-45.86-48.29c-24.83,17.8-48.77,36.69-71.73,56.68
		c9.56-30.05-26.12-58.15-55.68-34.4C99.25,91.65,45.24,162.72,10.53,243.92c-11.07,25.89,13.38,65.66,42.79,48.73
		c-0.77,7.38-0.64,14.76,0.61,22.12c3.65,21.54,32.72,31.06,49.9,20.3c26.64-16.69,52.75-34.16,78.36-52.3
		c3.14,2.84,6.95,5.09,11.34,6.6c-1.15,1.92-2.34,3.81-3.47,5.75c-10.37,17.91-1.52,45.46,20.3,49.9
		c25.92,5.28,47.4-0.62,67.98-11.36c16.88,2.22,33.14-0.21,48.17-6.83c28.2,19.66,66.77-23.57,41.22-54.27
		c18.55-13.88,36.86-28.08,54.97-42.54c19.51-15.57,10.61-40.72-6.82-51.97c9.1-10.22,17.62-21.07,25.32-32.88
		C460.76,115.18,423.17,83.85,394.73,98.71z M214,174.04c6.47-6.86,13.13-13.54,19.83-20.16c-3.52,4.09-6.97,8.26-10.34,12.48
		C220.32,168.92,217.18,171.51,214,174.04z"/>
	<g>
		<g>
			<path class="st1" d="M23.58,34.45c-2.9,45.41-5.96,90.82-8.66,136.25c-2.57,43.31-3.8,87.08,4.42,129.91
				c1.95,10.17,4.23,20.51,7.73,30.27c1.89,5.27,4.29,10.36,8.25,14.41c3.95,4.05,9.29,6.61,14.85,7.51
				c5.51,0.9,11.01,0.8,16.57,0.75c5.68-0.05,11.35-0.11,17.03-0.16c11.47-0.11,22.95-0.21,34.42-0.32
				c45.77-0.42,91.55-0.85,137.32-1.27c22.95-0.21,45.9-0.43,68.84-0.64c11.35-0.11,22.7-0.21,34.05-0.32
				c5.58-0.05,11.17-0.05,16.75-0.16c6.48-0.12,12.6-1.27,17.75-5.42c8.82-7.12,10.04-20.9,11.14-31.33
				c1.15-10.8,0.94-21.69,0.53-32.53c-0.84-22.52-1.82-45.03-2.91-67.54c-2.18-44.85-5.12-89.7-10.47-134.29
				c-1.39-11.64-2.94-23.26-4.66-34.86c-0.78-5.22-1.47-10.49-2.48-15.67c-1.05-5.37-3.13-10.82-7.07-14.76
				c-8.56-8.57-21.81-6.45-32.76-6.1c-11.34,0.36-22.67,0.72-34.01,1.08c-45.84,1.45-91.68,2.91-137.51,4.36
				c-22.67,0.72-45.34,1.44-68.02,2.16c-11.58,0.37-23.17,0.73-34.75,1.1c-5.67,0.18-11.34,0.36-17,0.54
				c-5.04,0.16-10.11,0.16-15.04,1.36c-4.4,1.07-8.66,3.07-12.01,6.15c-4.33,3.98-5.71,9.73-4.51,15.37
				c0.99,4.61,6.63,7.72,11.07,6.29c4.86-1.57,7.34-6.13,6.29-11.07c-0.36-1.68,0.12,2.39,0.12,0.75c0-1.6-0.57,2.39-0.13,0.89
				c0.41-1.42-1.07,1.8-0.45,0.94c0.16-0.22,0.36-0.56,0.47-0.8c-0.77,1.78-1.23,1.45-0.42,0.64c0.67-0.67,1.44-0.74-0.58,0.36
				c0.76-0.41,1.45-0.95,2.24-1.34c0.89-0.44,1.66-0.24-0.47,0.17c0.28-0.05,0.61-0.23,0.88-0.32c0.9-0.31,1.82-0.56,2.75-0.77
				c0.78-0.18,1.56-0.27,2.34-0.43c-2.77,0.58-1.29,0.17-0.55,0.11c0.57-0.05,1.14-0.07,1.71-0.09c11.21-0.39,22.43-0.71,33.64-1.07
				c22.18-0.7,44.36-1.41,66.54-2.11c44.36-1.41,88.72-2.81,133.08-4.22c22.43-0.71,44.85-1.42,67.28-2.13
				c2.46-0.08,4.93-0.16,7.39-0.23c1.23-0.04,2.47-0.08,3.71-0.08c0.39,0,3.46,0.32,3.57,0.17c-0.41-0.06-0.82-0.11-1.22-0.17
				c0.38,0.06,0.77,0.13,1.15,0.21c0.57,0.12,1.11,0.31,1.67,0.45c1.33,0.34-0.63,0.14-0.56-0.27c0,0,1.53,0.82,1.5,0.86
				c-0.31-0.24-0.61-0.49-0.92-0.73c0.27,0.23,0.54,0.47,0.79,0.72c0.05,0.05,0.58,0.74,0.71,0.78c-0.26-0.33-0.51-0.65-0.77-0.98
				c0.2,0.29,0.4,0.59,0.58,0.89c0.4,0.66,1.05,2.76,0.28,0.26c2.93,9.5,3.88,19.63,5.27,29.46c0.17,1.2,0.34,2.4,0.5,3.6
				c0.1,0.72,0.2,1.44,0.3,2.16c0.34,2.45-0.26-1.96,0.07,0.49c0.35,2.65,0.7,5.29,1.03,7.94c0.7,5.54,1.36,11.08,1.99,16.62
				c1.22,10.85,2.31,21.71,3.29,32.59c1.96,21.76,3.46,43.56,4.71,65.38c1.26,22.07,2.26,44.15,3.19,66.24
				c0.45,10.83,0.96,21.66,1.31,32.5c0.17,5.2,0.26,10.4,0.15,15.59c-0.11,5.35-0.21,10.91-1.13,16.19
				c0.37-2.13,0.06-0.49-0.02,0.05c-0.09,0.58-0.18,1.16-0.28,1.74c-0.23,1.39-0.49,2.78-0.78,4.16c-0.44,2.12-1.04,4.16-1.66,6.23
				c-0.57,1.89,0.96-1.83,0.06-0.09c-0.25,0.49-0.48,0.99-0.76,1.46c-0.23,0.39-0.49,0.76-0.73,1.15c-0.61,0.99,1.57-1.56,0.23-0.35
				c-0.2,0.18-1.11,0.88-1.18,1.11c0.31-0.25,0.63-0.5,0.94-0.76c-0.33,0.22-0.67,0.42-1.02,0.61c-1.21,0.77,0.46-0.54,0.53-0.2
				c0.03,0.12-2.1,0.58-2.28,0.63c-2,0.54,2.1-0.11,0.01,0.02c-0.4,0.03-0.81,0.07-1.21,0.09c-1.21,0.08-2.42,0.09-3.63,0.1
				c-2.84,0.03-5.68,0.05-8.51,0.08c-5.55,0.05-11.1,0.1-16.66,0.15c-22.21,0.21-44.42,0.41-66.62,0.62
				c-44.66,0.41-89.33,0.83-133.99,1.24c-22.21,0.21-44.42,0.41-66.62,0.62c-5.68,0.05-11.35,0.11-17.03,0.16
				c-2.16,0.02-4.33,0.06-6.49,0c-1.23-0.03-2.44-0.13-3.66-0.22c-2.05-0.14,1.59,0.32,0.29,0.04c-0.69-0.14-1.38-0.25-2.06-0.42
				c-0.58-0.14-1.14-0.35-1.71-0.5c-1.89-0.49,1.33,0.72,0.22,0.14c-0.25-0.13-2.78-1.65-2.79-1.64c0.32,0.24,0.63,0.48,0.95,0.72
				c-0.28-0.24-0.56-0.49-0.82-0.74c-0.26-0.26-0.52-0.52-0.77-0.79c-0.12-0.14-0.24-0.28-0.37-0.41c-0.61-0.73-0.48-0.56,0.38,0.52
				c0.04-0.3-1.04-1.56-1.22-1.86c-0.48-0.81-0.92-1.64-1.32-2.49c-0.08-0.17-0.16-0.34-0.24-0.52c-0.39-0.88-0.31-0.69,0.23,0.57
				c0.08-0.17-0.43-1.11-0.51-1.34c-0.8-2.17-1.46-4.38-2.11-6.6c-2.91-9.96-5.19-20.1-6.92-30.32c-0.42-2.5-0.82-5-1.18-7.5
				c-0.1-0.68-0.19-1.37-0.29-2.05c-0.33-2.35,0.25,2.01-0.04-0.35c-0.17-1.37-0.34-2.74-0.5-4.11c-0.6-5.15-1.08-10.32-1.46-15.5
				c-1.53-20.96-1.38-42-0.55-62.99c0.85-21.29,2.34-42.55,3.7-63.82c1.41-22.15,2.82-44.3,4.24-66.45
				c0.69-10.83,1.38-21.66,2.07-32.49c0.3-4.71-4.35-9.21-9-9C27.45,25.68,23.91,29.4,23.58,34.45L23.58,34.45z"/>
		</g>
	</g>
	<g>
		<g>
			<path class="st1" d="M103.36,123.49c27.64-0.52,55.28-1.03,82.92-1.55c27.47-0.51,54.94-1.03,82.42-1.54
				c15.48-0.29,30.97-0.58,46.45-0.87c4.7-0.09,9.22-4.08,9-9c-0.22-4.8-3.96-9.09-9-9c-27.64,0.52-55.28,1.03-82.92,1.55
				c-27.47,0.51-54.94,1.03-82.42,1.54c-15.48,0.29-30.97,0.58-46.45,0.87c-4.7,0.09-9.22,4.08-9,9
				C94.58,119.29,98.32,123.59,103.36,123.49L103.36,123.49z"/>
		</g>
	</g>
	<g>
		<g>
			<path class="st1" d="M87.83,180.64c30.99,0.75,61.97,1.5,92.96,2.25s61.97,1.5,92.96,2.25c17.33,0.42,34.65,0.84,51.98,1.26
				c4.71,0.11,9.21-4.22,9-9c-0.23-5.1-3.96-8.71-9-9c-3.52-0.2-7.04-0.4-10.56-0.6c-4.71-0.27-9.21,4.33-9,9
				c0.23,5.1,3.96,8.71,9,9c3.52,0.2,7.04,0.4,10.56,0.6c0-6,0-12,0-18c-30.99-0.75-61.97-1.5-92.96-2.25s-61.97-1.5-92.96-2.25
				c-17.33-0.42-34.65-0.84-51.98-1.26c-4.71-0.11-9.21,4.22-9,9C79.05,176.61,82.78,180.52,87.83,180.64L87.83,180.64z"/>
		</g>
	</g>
	<g>
		<g>
			<path class="st1" d="M109.69,218.75c-4.58,1.14-8.04,4.88-9.32,9.34c-1.16,4.02-0.44,8.32,1.43,11.99
				c2.02,3.96,6.19,6.54,10.31,7.82c3.34,1.03,6.99,1.12,10.46,1.07c14.48-0.23,28.95-0.5,43.43-0.75c29.12-0.5,58.24-1,87.36-1.5
				c16.31-0.28,32.61-0.56,48.92-0.84c-0.8-5.89-1.6-11.79-2.39-17.68c-3.41,0.51-6.82,1.03-10.23,1.54
				c-2.08,0.31-4.37,2.41-5.38,4.14c-1.13,1.93-1.61,4.77-0.91,6.94c0.7,2.18,2.05,4.28,4.14,5.38c0.72,0.3,1.43,0.6,2.15,0.91
				c1.6,0.43,3.19,0.43,4.79,0c3.41-0.51,6.82-1.03,10.23-1.54c1.99-0.3,4.47-2.41,5.38-4.14c0.96-1.82,1.34-3.69,1.07-5.74
				c-0.58-4.32-4.33-7.88-8.84-7.8c-24.29,0.42-48.59,0.84-72.88,1.25c-24.29,0.42-48.59,0.84-72.88,1.25
				c-6.82,0.12-13.65,0.23-20.47,0.35c-3.33,0.06-6.66,0.11-9.98,0.17c-2.98,0.05-5.98,0.22-8.95-0.14c0.8,0.11,1.6,0.21,2.39,0.32
				c-1.27-0.18-2.49-0.46-3.67-0.93c0.72,0.3,1.43,0.6,2.15,0.91c-0.81-0.36-1.55-0.78-2.25-1.32c0.61,0.47,1.21,0.94,1.82,1.41
				c-0.38-0.32-0.72-0.65-1.03-1.04c0.47,0.61,0.94,1.21,1.41,1.82c-0.33-0.45-0.59-0.92-0.81-1.43c0.3,0.72,0.6,1.43,0.91,2.15
				c-0.24-0.61-0.39-1.23-0.48-1.88c0.11,0.8,0.21,1.6,0.32,2.39c-0.07-0.64-0.06-1.26,0.02-1.9c-0.11,0.8-0.21,1.6-0.32,2.39
				c0.09-0.52,0.23-1.01,0.43-1.5c-0.3,0.72-0.6,1.43-0.91,2.15c0.15-0.3,0.31-0.59,0.5-0.86c-0.47,0.61-0.94,1.21-1.41,1.82
				c0.21-0.26,0.42-0.49,0.67-0.71c-0.61,0.47-1.21,0.94-1.82,1.41c0.27-0.21,0.54-0.37,0.85-0.52c-0.72,0.3-1.43,0.6-2.15,0.91
				c0.25-0.1,0.49-0.18,0.75-0.24c4.57-1.14,7.76-6.53,6.29-11.07C119.23,220.3,114.59,217.53,109.69,218.75L109.69,218.75z"/>
		</g>
	</g>
</g>
</svg>
