<?xml version="1.0" encoding="utf-8"?>
<!-- Generator: Adobe Illustrator 23.0.6, SVG Export Plug-In . SVG Version: 6.00 Build 0)  -->
<svg version="1.1" id="Capa_1" xmlns="http://www.w3.org/2000/svg" xmlns:xlink="http://www.w3.org/1999/xlink" x="0px" y="0px"
	 viewBox="0 0 310.6 377.8" style="enable-background:new 0 0 310.6 377.8;" xml:space="preserve">
<style type="text/css">
	.st0{fill:#FC4C62;}
</style>
<path class="st0" d="M279.5,1.1c-1.3-0.1-2.6,0-3.9-0.1c-4.1-1.4-8.8-1.5-12.8,0.2c-22.3,1.2-46.2,6.5-64.9,16.3
	C168.6,32.9,154.3,63.1,144,93c-2.9,8.6-5.5,17.2-7.7,26c-7.5-22.5-16.8-47.2-33.7-64C85.6,38,61,32.8,39.2,43.6
	C15.5,55.3,3.1,79.3,0.6,104.9c-4.9,52,19.6,108.6,47,151.5c28.8,45.1,66.6,83.7,108,117.4c16.7,13.6,40.7-10.1,23.9-23.9
	c-3.5-2.9-7.1-5.8-10.5-8.8c8.4-4,16.2-10.8,22-18.3c20.6-26.7,40.3-54.6,58.2-83.2c33.3-53.5,59.3-113.8,61.2-177.7
	C311.1,37.5,311.9,2.6,279.5,1.1z M89.6,103c-1.6-5.8-3.3-11.6-5.1-17.4c4.3,5.9,7.9,12.6,11,19.6C93.6,104.1,91.6,103.3,89.6,103z
	 M157.6,310.2c-0.4-0.6-0.9-1.4-1.8-2.4c-0.5-0.9-0.9-1.9-1.4-2.8c2.7,0.9,5.5,1.1,8.3,0.4C161.1,307.4,159.3,309.2,157.6,310.2z
	 M222.6,43.3c5.3-2,10.9-3.4,16.5-4.5c-3,6-6,12-8.9,18c-4.1,0.7-8.1,3.2-11.2,8.1c-24.9,38.5-45.5,79.5-61.7,122.3
	c3.6-23.7,7.9-47.3,14.7-70.4C180.4,87.4,191.6,55,222.6,43.3z"/>
</svg>
