<?xml version="1.0" encoding="utf-8"?>
<!-- Generator: Adobe Illustrator 23.0.6, SVG Export Plug-In . SVG Version: 6.00 Build 0)  -->
<svg version="1.1" id="Capa_1" xmlns="http://www.w3.org/2000/svg" xmlns:xlink="http://www.w3.org/1999/xlink" x="0px" y="0px"
	 viewBox="0 0 310.6 301" style="enable-background:new 0 0 310.6 301;" xml:space="preserve">
<style type="text/css">
	.st0{fill:#46428B;stroke:#02C8A7;stroke-width:12;stroke-miterlimit:10;}
	.st1{fill:#02C8A7;}
</style>
<g>
	<path class="st0" d="M304.1,128.2c2.5-24-1.2-48.4-17.3-66.5c-6.2-11.3-15.1-21.2-25.9-29.1C218.6,1.7,157.3,9.7,112,29.4
		c-3.1,1.4-6.3,2.8-9.3,4.4C63.6,46.4,28,73,12.4,111.3c-11.2,27.7-7.6,57.4,5.2,83c3.2,15.6,10.1,30.2,21.5,42
		c4.4,4.5,9.4,8.6,14.9,11.9c4.8,4.6,10.1,8.8,15.8,12.7c34.3,23.2,80.5,32.1,121.2,21.9c14.8-1.2,29.3-5.3,42.6-12.3
		c24.2-12.8,42.4-34.4,52.2-59.5C304.5,188.8,311.5,156.6,304.1,128.2z"/>
	<g>
		<g>
			<path class="st1" d="M124.3,124.9c0.2,4.1,0.5,8.2,0.7,12.3c0.1,1.6,1.3,3.1,3,3c1.5-0.1,3.1-1.3,3-3c-0.2-4.1-0.5-8.2-0.7-12.3
				c-0.1-1.6-1.3-3.1-3-3C125.7,121.9,124.2,123.2,124.3,124.9L124.3,124.9z"/>
		</g>
	</g>
	<g>
		<g>
			<path class="st1" d="M184.4,121.9c0,3.7,0,7.5,0,11.2c0,1.6,1.4,3.1,3,3c1.6-0.1,3-1.3,3-3c0-3.7,0-7.5,0-11.2c0-1.6-1.4-3.1-3-3
				C185.8,119,184.4,120.2,184.4,121.9L184.4,121.9z"/>
		</g>
	</g>
	<g>
		<g>
			<path class="st1" d="M142,109.6c-11.3-1.9-22.9-0.4-33.3,4.5c-2.5,1.2-5.5,2.5-6.7,5.1c-1.3,2.9-0.7,6.5-0.1,9.4
				c1.1,5.6,3.4,11,5.7,16.2c1.9,4.2,4.2,8.6,7.8,11.6c2.1,1.8,4.5,3.1,7.2,3.7c2.9,0.7,6,0.8,8.9,0.7c5.3,0,11.1-0.5,15.6-3.6
				c4.3-3.1,7-8,7.9-13.2c1.1-6.6-0.2-13.5-2.1-19.8c-1.5-5.2-4.1-10.8-9.2-13.3c-1.5-0.7-3.2-0.4-4.1,1.1c-0.8,1.3-0.4,3.4,1.1,4.1
				c3.3,1.6,5,4.9,6.1,8.5c1.5,4.6,2.7,9.6,2.7,14.5c0,4-1,8.3-3.7,11.4c-2.9,3.2-7.1,4.1-11.3,4.3c-4.3,0.2-9.5,0.5-13.4-1.7
				c-3.2-1.9-5.3-5.2-7-8.6c-2-4-3.6-8.2-5-12.6c-0.8-2.4-1.4-4.8-1.6-7.3c-0.1-0.8-0.3-2.1,0-2.8c0.3-0.8,1.6-1.2,2.3-1.5
				c9.3-4.9,20.4-6.8,30.8-5c1.6,0.3,3.2-0.4,3.7-2.1C144.4,111.8,143.6,109.8,142,109.6L142,109.6z"/>
		</g>
	</g>
	<g>
		<g>
			<path class="st1" d="M154.3,131.8c0.7-0.4,1.4-0.7,2.1-1.1c0.1-0.1,0.3-0.1,0.4-0.2c-0.2,0.1-0.2,0.1,0.1-0.1
				c0.4-0.2,0.8-0.3,1.2-0.4c1.4-0.5,2.8-0.9,4.2-1.1c0.4-0.1,0.7-0.1,1.1-0.2c0.2,0,0.2,0,0,0c0.2,0,0.4,0,0.6-0.1
				c0.7-0.1,1.5-0.1,2.2-0.1c1.6,0,3.1,0.1,4.7,0.3c1.6,0.2,3.1-1.5,3-3c-0.1-1.8-1.3-2.8-3-3c-6.8-0.9-13.7,0.6-19.7,3.9
				c-1.4,0.8-1.9,2.8-1.1,4.1C151.1,132.1,152.9,132.6,154.3,131.8L154.3,131.8z"/>
		</g>
	</g>
	<g>
		<g>
			<path class="st1" d="M173,113.7c-2,5.5-3.1,11.3-3.4,17.2c-0.2,4.9-0.1,10.1,1.8,14.7c1,2.3,2.4,4.5,4.4,6
				c2.2,1.7,4.7,2.5,7.4,2.9c5.8,0.8,11.8,0.7,17.6,0.3c2.7-0.2,5.9-0.1,8.3-1.5c2.4-1.4,3.4-4.2,4.2-6.7c1.7-5.6,3-11.3,3.8-17
				c0.4-3,0.8-5.9,1-8.9c0.1-2.7-0.1-5.4-1.4-7.9c-2.5-4.8-8.4-6.2-13.2-7.4c-5.7-1.4-11.7-2.6-17.6-2.3c-5.3,0.3-10.7,1.8-14.2,6
				c-1,1.2-1.2,3,0,4.2c1.1,1.1,3.2,1.3,4.2,0c2.3-2.7,5.5-3.9,8.9-4.2c4.2-0.4,8.4,0.2,12.5,1c2.6,0.5,5.1,1.1,7.6,1.8
				c1.9,0.5,3.7,1,5.3,2.2c1.2,0.9,1.8,2.3,2,4c0.2,2.3-0.1,4.7-0.4,7c-0.6,5-1.5,10-2.8,15c-0.6,2.2-1.1,4.7-2,6.8
				c-0.7,1.7-2,1.6-3.9,1.7c-5.2,0.4-10.4,0.4-15.6,0.2c-2.1-0.1-4.3-0.2-6.3-1c-1.6-0.6-2.7-1.7-3.5-3c-2.2-3.8-2.3-8.7-2.1-13.2
				c0.2-5.6,1.3-11,3.2-16.3c0.6-1.5-0.6-3.3-2.1-3.7C175,111.2,173.6,112.2,173,113.7L173,113.7z"/>
		</g>
	</g>
	<g>
		<g>
			<path class="st1" d="M183.6,74c-10,11.6-21.4,21.9-34,30.5c-12.5,8.6-26.1,15.7-40.4,20.9c-8.2,3-16.5,5.3-25,7.1
				c1.2,1.2,2.5,2.5,3.7,3.7c0.5-1.9,1.1-3.8,1.6-5.7c1.1-3.7-4.7-5.3-5.8-1.6c-0.5,1.9-1.1,3.8-1.6,5.7c-0.7,2.3,1.5,4.1,3.7,3.7
				c15.4-3.2,30.4-8.4,44.4-15.4c14-6.9,27.1-15.7,39-25.9c6.7-5.8,12.9-12,18.7-18.7c1.1-1.2,1.2-3,0-4.2
				C186.7,72.9,184.6,72.7,183.6,74L183.6,74z"/>
		</g>
	</g>
	<g>
		<g>
			<path class="st1" d="M187,68.5c-4.2,0.5-8.4-0.3-12.5-1.1c-4.4-0.9-8.8-1.6-13.4-1.7c-8.8-0.3-17.6,1.2-26.1,3.3
				c-7.8,1.9-16,4-22.8,8.3c-6.6,4.2-11.3,10.7-14.6,17.7c-4.1,8.7-6.7,18-8,27.6c-0.2,1.6,1.5,3,3,3c1.8,0,2.8-1.4,3-3
				c1-7.7,3.1-15.4,6.2-22.5c2.7-6.2,6.3-12.6,12-16.6c6.2-4.4,13.7-6.4,20.9-8.2c7.9-2,16-3.5,24.2-3.5c4.6,0,9.1,0.6,13.7,1.5
				c4.7,0.9,9.5,1.9,14.3,1.4c1.6-0.2,3-1.2,3-3C190,70,188.7,68.3,187,68.5L187,68.5z"/>
		</g>
	</g>
	<g>
		<g>
			<path class="st1" d="M181,81.5c1.2,8.2,7.8,14.4,13.3,20.1c3.2,3.3,6.3,6.6,9.5,9.8c2.8,2.9,5.8,5.6,9.2,7.9
				c3.8,2.5,8.1,4.2,12.7,4.1c3.9-0.1,3.9-6.1,0-6c-6.8,0.1-12.3-5-16.9-9.6c-3.1-3.1-6.1-6.2-9.1-9.3c-2.7-2.8-5.5-5.6-8-8.6
				c-2.4-2.9-4.4-6.2-4.9-10.1c-0.2-1.6-2.3-2.5-3.7-2.1C181.3,78.3,180.7,79.9,181,81.5L181,81.5z"/>
		</g>
	</g>
	<g>
		<g>
			<path class="st1" d="M185.8,71.7c6.6,6,13.1,12.2,19,19c2.8,3.3,5.4,6.7,7.8,10.3c2.3,3.6,4.7,7.4,6.2,11.4
				c1.5,3.9,2.1,8.6-1,11.7c-2.7,2.8,1.5,7,4.2,4.2c7.7-7.8,2.5-19.1-2.2-27c-4.9-8.3-11.2-15.8-18-22.7c-3.8-3.9-7.8-7.6-11.8-11.3
				c-1.2-1.1-3.1-1.2-4.2,0C184.7,68.6,184.6,70.6,185.8,71.7L185.8,71.7z"/>
		</g>
	</g>
	<g>
		<g>
			<path class="st1" d="M99.4,140c-2.4,0.9-4.7,2-6.7,3.5c-2.2,1.6-4.3,3.4-5.2,6.1c-0.9,2.5,0.1,5.4,1.9,7.2
				c1.8,1.8,4.2,2.7,6.7,2.9c3,0.3,5.9-0.7,8.9-0.5c1.6,0.1,3.1-1.4,3-3c-0.1-1.7-1.3-2.9-3-3c-2.9-0.2-5.8,0.7-8.7,0.5
				c-0.2,0-0.3,0-0.5,0c0.4,0.1,0.5,0.1,0.3,0c-0.2-0.1-0.5-0.1-0.7-0.2c-0.2-0.1-0.7-0.1-0.8-0.3c0.4,0.2,0.4,0.2,0.1,0.1
				c-0.1-0.1-0.2-0.1-0.4-0.2c-0.1-0.1-0.7-0.3-0.7-0.4c0.3,0.2,0.4,0.3,0.2,0.2c-0.1-0.1-0.2-0.1-0.2-0.2c0,0-0.6-0.5-0.5-0.6
				c0.3,0.4,0.3,0.4,0.1,0.1c-0.1-0.1-0.1-0.2-0.2-0.3c-0.1-0.3-0.1-0.2,0.1,0.2c0-0.1-0.1-0.2-0.1-0.4c-0.1-0.3-0.1-0.2,0,0.2
				c0-0.1,0-0.3,0-0.4c0-0.1,0-0.1,0-0.2c0-0.3,0-0.3,0,0.2c0-0.1,0.1-0.3,0.1-0.4c0.1-0.3,0.1-0.3,0,0.1c0-0.1,0.4-0.7,0.5-0.8
				c-0.2,0.3-0.3,0.3,0,0.1c0.1-0.1,0.2-0.2,0.3-0.3c0.4-0.4,0.8-0.8,1.2-1.1c0.1-0.1,0.3-0.2,0.4-0.3c-0.3,0.2-0.3,0.2,0,0
				c0.3-0.2,0.5-0.4,0.8-0.6c0.5-0.3,1-0.6,1.5-0.9c0.6-0.3,1.2-0.6,1.8-0.9c0.1-0.1,1.1-0.5,0.4-0.2c0.3-0.1,0.6-0.2,0.9-0.4
				c1.5-0.5,2.6-2.1,2.1-3.7C102.7,140.6,101,139.4,99.4,140L99.4,140z"/>
		</g>
	</g>
	<g>
		<g>
			<path class="st1" d="M229.2,137.5c2.8-0.1,5.7,0.4,7.4,2.7c1.3,1.8,1.1,3.9-0.3,5.5c-1.9,2.3-4.7,3.7-7.4,5.1
				c-3,1.5-6.2,2.6-9.4,3.5c-3.7,1-2.2,6.8,1.6,5.8c4.3-1.1,8.4-2.7,12.3-4.8c3.4-1.8,6.9-4.1,8.8-7.5c2.2-3.9,1.5-8.4-1.3-11.8
				c-2.8-3.4-7.4-4.6-11.7-4.4c-1.6,0.1-3,1.3-3,3C226.2,136,227.6,137.5,229.2,137.5L229.2,137.5z"/>
		</g>
	</g>
	<g>
		<g>
			<path class="st1" d="M160.1,145.9c-1.3,6.3-3.7,12.3-7.1,17.8c-1,1.6-0.1,3.9,1.8,4.4c3.2,0.8,6,3,9.4,3.7
				c3.3,0.7,7.1,0.2,9.5-2.4c1.1-1.2,1.2-3.1,0-4.2c-1.1-1.1-3.2-1.2-4.2,0c-0.1,0.1-0.6,0.6-0.2,0.3c-0.2,0.2-0.5,0.3-0.7,0.4
				c0.5-0.2-0.3,0.1-0.4,0.1c-0.1,0-0.9,0.1-0.4,0.1c-0.6,0-1.2,0-1.8,0c0.5,0.1-0.4-0.1-0.4-0.1c-0.3-0.1-0.6-0.2-0.9-0.2
				c-2.7-0.9-5.3-2.7-8.2-3.4c0.6,1.5,1.2,2.9,1.8,4.4c3.6-5.9,6.3-12.4,7.7-19.2c0.3-1.6-0.5-3.2-2.1-3.7
				C162.3,143.4,160.4,144.3,160.1,145.9L160.1,145.9z"/>
		</g>
	</g>
	<g>
		<g>
			<path class="st1" d="M141.4,180.5c3.4,7,11.6,8.9,18.7,9c7.3,0,16.6-0.4,19.5-8.5c0.6-1.5-0.6-3.3-2.1-3.7
				c-1.7-0.5-3.1,0.6-3.7,2.1c-0.7,2-3.1,3.1-5.1,3.5c-2.9,0.7-6.1,0.6-9.1,0.6c-5.1-0.1-10.7-1.2-13.1-6c-0.7-1.5-2.8-1.9-4.1-1.1
				C140.9,177.2,140.6,179,141.4,180.5L141.4,180.5z"/>
		</g>
	</g>
	<g>
		<g>
			<path class="st1" d="M103.4,159c-0.3,22.5,15.3,43,36.5,49.7c11,3.5,23.1,3.4,34,0.1c10.6-3.2,20.1-9.5,27.3-17.8
				c4-4.5,7.4-9.6,10-15.1c1.3-2.7,2.4-5.6,3.4-8.4c1.1-3.4,2.1-7,1.7-10.6c-0.2-1.6-1.2-3-3-3c-1.5,0-3.2,1.4-3,3
				c0.4,2.9-0.4,5.6-1.2,8.3c-0.7,2.3-1.5,4.6-2.5,6.7c-2,4.3-4.5,8.5-7.4,12.3c-6,7.7-13.9,14-23,17.5c-9.8,3.8-20.6,4.7-30.8,2.3
				c-9.9-2.3-18.6-7.6-25.2-15.3c-7-8.2-11-18.9-10.9-29.7C109.5,155.1,103.5,155.1,103.4,159L103.4,159z"/>
		</g>
	</g>
	<g>
		<g>
			<path class="st1" d="M94,161.4c0.8,7.3,1.7,15.6-1.3,22.5c-1.6,3.5-4.2,6.2-7.4,8.2c-1.7,1.1-3.6,2.1-5.4,2.9
				c-1,0.5-3.3,1.9-4.3,1.4c-3.1-1.4-5.9,2-3.6,4.7c2.8,3.3,3.4,8,5.4,11.8c2.3,4.4,6.2,7.3,10.7,9c4.9,1.7,10.2,1.5,15.2,0.5
				c4.5-0.9,9.2-2.4,13.1-4.7c4.3-2.6,7.7-6.4,8-11.6c0.1-1.6-1.5-3-3-3c-1.7,0-2.9,1.4-3,3c0,0.3-0.2,1.3-0.4,1.7
				c0,0-0.3,0.6-0.4,0.8c-0.2,0.4-0.5,0.8-0.5,0.8c-1.1,1.4-2.2,2.2-3.7,3.1c-3.3,2-7.1,3.1-11,4c-7.6,1.7-16.4,0.6-20.1-7.1
				c-2.1-4.2-3-8.8-6.1-12.5c-1.2,1.6-2.4,3.1-3.6,4.7c4.1,1.9,8-0.2,11.6-2c3.3-1.7,6.6-3.7,9.2-6.3c5.3-5.3,7.1-12.6,7.3-19.9
				c0.1-4-0.3-8-0.7-11.9c-0.2-1.6-1.3-3-3-3C95.5,158.4,93.8,159.8,94,161.4L94,161.4z"/>
		</g>
	</g>
	<g>
		<g>
			<path class="st1" d="M226.9,156.6c-0.3,7.9-0.6,15.9,0.4,23.7c0.9,6.9,2.5,14.2,6.8,19.8c2.3,3,5.1,5.2,8.7,6.4
				c-0.4-1.7-0.9-3.3-1.3-5c-4.4,4.2-11.1,5.4-17,4.3c-7.3-1.4-13.7-5.4-19.6-9.7c-1.3-1-3.3-0.2-4.1,1.1c-0.9,1.5-0.2,3.1,1.1,4.1
				c6.6,4.8,13.9,9.3,22.2,10.5c7.7,1.1,15.9-0.5,21.7-6c1.7-1.6,0.7-4.3-1.3-5c-2.9-1-5.1-3.3-6.8-6c-1.9-3.2-2.9-6.6-3.7-10.3
				c-1.9-9.1-1.5-18.6-1.1-27.8c0.1-1.6-1.4-3-3-3C228.2,153.6,227,155,226.9,156.6L226.9,156.6z"/>
		</g>
	</g>
</g>
</svg>
