<?xml version="1.0" encoding="utf-8"?>
<!-- Generator: Adobe Illustrator 23.0.6, SVG Export Plug-In . SVG Version: 6.00 Build 0)  -->
<svg version="1.1" id="Capa_1" xmlns="http://www.w3.org/2000/svg" xmlns:xlink="http://www.w3.org/1999/xlink" x="0px" y="0px"
	 viewBox="0 0 1125 253" style="enable-background:new 0 0 1125 253;" xml:space="preserve">
<style type="text/css">
	.st0{fill:#02C8A7;}
	.st1{fill:#FFFFFF;}
</style>
<g>
	<path class="st0" d="M1119.8,137.34c-2.85-23.35-5.38-51.07-31.99-58.92c-2.94-0.87-6.02-1.51-9.17-2.02
		c-3-0.8-6.14-1.43-9.58-1.68c-29.11-2.11-60.26,2.71-89.3,5.13c-25.82,2.15-51.6,4.78-77.36,7.55
		c-25.37,1.28-50.75,2.51-76.12,3.88c-112.99,6.09-225.94,13.4-338.63,23.53c-51.21-1.14-102.47-1.97-153.43,4.29
		c-20.8,2.55-46.35,3.33-62.65,18.29c-15.49,14.23-17.22,37.31-7.24,55.33c25.61,46.26,97.82,27.37,139.85,24.97
		c36.17-2.07,72.37-3.75,108.57-5.12c82.93,2.01,165.79,6.71,248.42,14.37c46.39,4.3,123.9,14.53,193.19,7.61
		c28.67,2.21,57.44,3.05,86.23,2.2c24.17-0.71,60.15,3.31,76.13-19.31C1131.42,196.64,1122.63,160.58,1119.8,137.34z"/>
	<g>
		<path class="st1" d="M110.13,109.81c-6.23,0-12.12,0.99-17.74,2.98c-5.59,2.01-10.45,4.92-14.55,8.78
			c-4.1,3.86-7.41,8.64-9.9,14.37c-2.49,5.73-3.74,12.44-3.74,20.16c0,15.43,4.44,27.01,13.28,34.72
			c8.81,7.72,19.59,11.56,32.29,11.56c7.44,0,13.91-0.87,19.41-2.61c5.47-1.73,10.3-3.6,14.55-5.59c4.98,3.48,8.69,7.28,11.18,11.38
			c2.49,4.12,3.74,9.02,3.74,14.75c0,10.21-4.83,18.11-14.55,23.71c-9.69,5.59-23.15,8.4-40.31,8.4c-15.68,0-29.86-2.31-42.56-6.91
			s-23.57-11.07-32.66-19.41c-9.08-8.34-16.13-18.35-21.08-30.05C2.49,184.35,0,171.4,0,157.22c0-16.44,2.67-30.8,8.02-43.12
			s12.64-22.45,21.84-30.42c9.2-7.96,19.84-13.93,31.93-17.91c12.06-3.98,24.82-5.98,38.25-5.98c17.92,0,31.75,3.25,41.44,9.71
			c9.72,6.49,14.55,14.81,14.55,25.02c0,4.72-1.12,9.14-3.34,13.25c-2.25,4.12-4.86,7.66-7.84,10.65
			c-4.25-1.99-9.36-3.92-15.31-5.79C123.55,110.74,117.08,109.81,110.13,109.81z"/>
		<path class="st1" d="M190.39,67.99c2.49-0.74,6.41-1.49,11.76-2.23c5.35-0.76,10.88-1.12,16.62-1.12c5.47,0,10.39,0.36,14.73,1.12
			c4.34,0.74,8.02,2.23,11.03,4.48c2.98,2.23,5.29,5.29,6.9,9.14c1.61,3.86,2.43,8.9,2.43,15.11v80.26
			c0,10.21,2.49,17.48,7.47,21.84c4.95,4.34,12.18,6.53,21.63,6.53c5.74,0,10.39-0.5,14-1.5c3.62-0.99,6.41-1.99,8.42-2.98V67.99
			c2.46-0.74,6.38-1.49,11.76-2.23c5.35-0.76,10.88-1.12,16.62-1.12c5.47,0,10.39,0.36,14.73,1.12c4.34,0.74,8.02,2.23,11,4.48
			c3.01,2.23,5.29,5.29,6.93,9.14c1.61,3.86,2.43,8.9,2.43,15.11v113.48c0,12.46-5.23,21.78-15.68,27.99
			c-8.72,5.48-19.11,9.65-31.2,12.52c-12.06,2.86-25.18,4.28-39.37,4.28c-13.43,0-25.82-1.49-37.15-4.48
			c-11.3-2.98-21.08-7.58-29.29-13.81c-8.2-6.21-14.55-14.25-19.05-24.08c-4.47-9.83-6.71-21.71-6.71-35.65V67.99z"/>
		<path class="st1" d="M408.39,3.79c2.46-0.74,6.44-1.55,11.94-2.43c5.47-0.87,11.06-1.31,16.8-1.31c5.47,0,10.39,0.38,14.73,1.12
			c4.34,0.74,8.02,2.23,11.03,4.48c2.98,2.23,5.23,5.29,6.71,9.14s2.25,8.9,2.25,15.11V66.5c6.2-2.49,12.12-4.24,17.71-5.23
			c5.62-1,11.76-1.5,18.47-1.5c11.97,0,23.27,2.13,33.99,6.35c10.69,4.24,20.14,10.4,28.37,18.49c8.2,8.08,14.67,18.11,19.41,30.05
			c4.71,11.95,7.08,25.76,7.08,41.44c0,16.18-2.43,30.3-7.29,42.36c-4.83,12.08-11.64,22.1-20.32,30.06
			c-8.72,7.96-19.35,13.99-31.93,18.11c-12.58,4.1-26.43,6.15-41.62,6.15c-16.44,0-30.38-1.93-41.8-5.79
			c-11.45-3.86-21.17-8.64-29.13-14.37c-10.94-7.72-16.4-17.67-16.4-29.86V3.79z M495.73,202.76c11.45,0,20.35-3.92,26.7-11.76
			c6.32-7.84,9.51-19.47,9.51-34.91c0-15.68-3.25-27.37-9.72-35.09c-6.47-7.72-15.16-11.57-26.13-11.57c-4.98,0-9.27,0.5-12.88,1.49
			c-3.62,1-7.53,2.49-11.76,4.48v81.39c2.73,1.75,6.05,3.17,9.9,4.28C485.22,202.19,489.99,202.76,495.73,202.76z"/>
		<path class="st1" d="M723.82,252.77c-14.67,0-28.31-2.05-40.89-6.15c-12.55-4.12-23.51-10.27-32.84-18.49
			c-9.33-8.2-16.68-18.53-22.03-30.99c-5.35-12.44-8.02-26.99-8.02-43.67c0-16.42,2.67-30.55,8.02-42.36
			c5.35-11.82,12.39-21.52,21.08-29.12c8.72-7.59,18.68-13.2,29.86-16.8c11.21-3.62,22.66-5.42,34.36-5.42
			c13.18,0,25.18,2.01,36.03,5.98c10.82,3.98,20.14,9.45,27.98,16.42s13.94,15.31,18.29,25.02c4.37,9.71,6.53,20.28,6.53,31.73
			c0,8.46-2.34,14.93-7.08,19.4c-4.74,4.48-11.33,7.35-19.78,8.6l-92.2,13.81c2.73,8.22,8.32,14.37,16.8,18.49
			c8.45,4.1,18.14,6.15,29.1,6.15c10.21,0,19.84-1.31,28.92-3.92s16.5-5.65,22.21-9.14c3.98,2.49,7.35,5.97,10.09,10.45
			c2.73,4.48,4.1,9.2,4.1,14.19c0,11.19-5.23,19.53-15.68,25.02c-7.96,4.22-16.92,7.08-26.86,8.58
			C741.86,252.03,732.54,252.77,723.82,252.77z M713.37,106.07c-5.98,0-11.15,1-15.49,2.98c-4.34,2.01-7.9,4.56-10.63,7.66
			c-2.73,3.11-4.8,6.61-6.17,10.45c-1.37,3.87-2.19,7.79-2.43,11.77l63.83-10.47c-0.73-4.97-3.46-9.95-8.2-14.93
			C729.53,108.56,722.57,106.07,713.37,106.07z"/>
		<path class="st1" d="M928.76,252.77c-14.67,0-28.31-2.05-40.89-6.15c-12.55-4.12-23.51-10.27-32.84-18.49
			c-9.33-8.2-16.68-18.53-22.03-30.99c-5.35-12.44-8.02-26.99-8.02-43.67c0-16.42,2.67-30.55,8.02-42.36
			C838.35,99.3,845.4,89.59,854.09,82c8.72-7.59,18.68-13.2,29.86-16.8c11.21-3.62,22.66-5.42,34.36-5.42
			c13.18,0,25.18,2.01,36.03,5.98c10.82,3.98,20.14,9.45,27.98,16.42s13.94,15.31,18.29,25.02c4.37,9.71,6.53,20.28,6.53,31.73
			c0,8.46-2.34,14.93-7.08,19.4c-4.74,4.48-11.33,7.35-19.78,8.6l-92.2,13.81c2.73,8.22,8.32,14.37,16.8,18.49
			c8.45,4.1,18.14,6.15,29.1,6.15c10.21,0,19.84-1.31,28.92-3.92s16.5-5.65,22.21-9.14c3.98,2.49,7.35,5.97,10.09,10.45
			s4.1,9.2,4.1,14.19c0,11.19-5.23,19.53-15.68,25.02c-7.96,4.22-16.92,7.08-26.86,8.58C946.8,252.03,937.48,252.77,928.76,252.77z
			 M918.31,106.07c-5.98,0-11.15,1-15.49,2.98c-4.34,2.01-7.9,4.56-10.63,7.66c-2.73,3.11-4.8,6.61-6.17,10.45
			c-1.37,3.87-2.19,7.79-2.43,11.77l63.83-10.47c-0.73-4.97-3.46-9.95-8.2-14.93C934.47,108.56,927.51,106.07,918.31,106.07z"/>
	</g>
</g>
</svg>
