<?xml version="1.0" encoding="utf-8"?>
<!-- Generator: Adobe Illustrator 23.0.6, SVG Export Plug-In . SVG Version: 6.00 Build 0)  -->
<svg version="1.1" id="Capa_1" xmlns="http://www.w3.org/2000/svg" xmlns:xlink="http://www.w3.org/1999/xlink" x="0px" y="0px"
	 viewBox="0 0 1125 253" style="enable-background:new 0 0 1125 253;" xml:space="preserve">
<style type="text/css">
	.st0{fill:#FC4C62;}
	.st1{fill:#FFFFFF;}
</style>
<g>
	<path class="st0" d="M1119.8,137.32c-2.85-23.35-5.38-51.08-32-58.93c-2.95-0.87-6.02-1.51-9.17-2.02c-3-0.8-6.14-1.43-9.58-1.68
		c-29.12-2.11-60.28,2.71-89.32,5.13c-25.83,2.15-51.61,4.78-77.37,7.55c-25.38,1.28-50.76,2.51-76.14,3.88
		c-113.01,6.09-225.98,13.4-338.69,23.54c-51.22-1.14-102.49-1.97-153.46,4.29c-20.8,2.55-46.36,3.33-62.66,18.29
		c-15.5,14.23-17.23,37.32-7.25,55.34c25.61,46.27,97.84,27.38,139.88,24.97c36.18-2.07,72.38-3.75,108.59-5.12
		c82.94,2.01,165.82,6.71,248.47,14.37c46.39,4.3,123.92,14.54,193.23,7.61c28.67,2.21,57.45,3.05,86.25,2.2
		c24.18-0.71,60.16,3.31,76.14-19.32C1131.43,196.63,1122.63,160.56,1119.8,137.32z"/>
	<g>
		<path class="st1" d="M109.93,109.78c-6.23,0-12.12,0.99-17.74,2.98c-5.59,2.01-10.45,4.92-14.55,8.78
			c-4.1,3.86-7.41,8.64-9.91,14.37c-2.49,5.73-3.74,12.44-3.74,20.16c0,15.44,4.44,27.01,13.28,34.73
			c8.81,7.72,19.6,11.56,32.3,11.56c7.44,0,13.92-0.87,19.42-2.61c5.47-1.73,10.3-3.6,14.55-5.59c4.98,3.48,8.69,7.28,11.18,11.38
			c2.49,4.12,3.74,9.02,3.74,14.75c0,10.21-4.83,18.11-14.55,23.72c-9.69,5.59-23.15,8.4-40.32,8.4c-15.68,0-29.87-2.31-42.57-6.91
			c-12.7-4.6-23.58-11.08-32.66-19.42c-9.09-8.34-16.13-18.35-21.09-30.05c-4.98-11.7-7.47-24.64-7.47-38.83
			c0-16.44,2.67-30.81,8.02-43.13s12.64-22.45,21.85-30.43c9.21-7.96,19.84-13.93,31.93-17.91c12.06-3.98,24.82-5.99,38.26-5.99
			c17.93,0,31.75,3.25,41.45,9.71c9.72,6.49,14.55,14.81,14.55,25.02c0,4.72-1.12,9.15-3.34,13.25c-2.25,4.12-4.86,7.66-7.84,10.65
			c-4.25-1.99-9.36-3.92-15.31-5.79C123.36,110.71,116.89,109.78,109.93,109.78z"/>
		<path class="st1" d="M190.21,67.96c2.49-0.74,6.41-1.49,11.76-2.23c5.35-0.76,10.88-1.12,16.62-1.12c5.47,0,10.39,0.36,14.74,1.12
			c4.35,0.74,8.02,2.23,11.03,4.48c2.98,2.23,5.29,5.29,6.9,9.15s2.43,8.9,2.43,15.12v80.28c0,10.21,2.49,17.49,7.47,21.85
			c4.95,4.35,12.18,6.53,21.63,6.53c5.74,0,10.39-0.5,14.01-1.5c3.62-0.99,6.41-1.99,8.42-2.98V67.96
			c2.46-0.74,6.38-1.49,11.76-2.23c5.35-0.76,10.88-1.12,16.62-1.12c5.47,0,10.39,0.36,14.74,1.12c4.35,0.74,8.02,2.23,11,4.48
			c3.01,2.23,5.29,5.29,6.93,9.15c1.61,3.86,2.43,8.9,2.43,15.12v113.5c0,12.46-5.23,21.79-15.68,28
			c-8.72,5.48-19.11,9.65-31.21,12.52c-12.06,2.86-25.19,4.28-39.38,4.28c-13.43,0-25.83-1.49-37.16-4.48
			c-11.3-2.98-21.09-7.58-29.29-13.81c-8.2-6.21-14.55-14.25-19.05-24.08c-4.47-9.83-6.72-21.71-6.72-35.66V67.96z"/>
		<path class="st1" d="M408.25,3.74c2.46-0.74,6.44-1.55,11.94-2.43C425.66,0.44,431.25,0,437,0c5.47,0,10.39,0.38,14.74,1.12
			s8.02,2.23,11.03,4.48c2.98,2.23,5.23,5.29,6.72,9.15c1.49,3.86,2.25,8.9,2.25,15.12v36.6c6.2-2.49,12.12-4.24,17.71-5.23
			c5.62-1,11.76-1.5,18.47-1.5c11.97,0,23.28,2.13,34,6.35c10.7,4.24,20.15,10.41,28.38,18.49c8.2,8.08,14.68,18.11,19.42,30.05
			c4.71,11.96,7.08,25.77,7.08,41.45c0,16.18-2.43,30.31-7.29,42.37c-4.83,12.08-11.64,22.11-20.33,30.07
			c-8.72,7.96-19.36,13.99-31.93,18.11c-12.58,4.1-26.44,6.15-41.63,6.15c-16.44,0-30.39-1.93-41.81-5.79
			c-11.46-3.86-21.18-8.64-29.14-14.37c-10.94-7.72-16.41-17.67-16.41-29.87V3.74z M495.61,202.75c11.46,0,20.36-3.92,26.71-11.76
			c6.32-7.84,9.51-19.48,9.51-34.91c0-15.68-3.25-27.38-9.72-35.09s-15.16-11.58-26.13-11.58c-4.98,0-9.27,0.5-12.88,1.49
			c-3.62,1-7.54,2.49-11.76,4.48v81.4c2.73,1.75,6.05,3.18,9.91,4.28C485.1,202.18,489.87,202.75,495.61,202.75z"/>
		<path class="st1" d="M723.74,252.77c-14.68,0-28.32-2.05-40.9-6.15c-12.55-4.12-23.52-10.27-32.85-18.49
			c-9.33-8.2-16.68-18.54-22.03-30.99c-5.35-12.44-8.02-27-8.02-43.68c0-16.42,2.67-30.55,8.02-42.37
			c5.35-11.82,12.4-21.53,21.09-29.12c8.72-7.6,18.69-13.2,29.87-16.8c11.21-3.62,22.67-5.42,34.37-5.42
			c13.19,0,25.19,2.01,36.04,5.99c10.82,3.98,20.15,9.45,27.98,16.42c7.84,6.97,13.95,15.31,18.29,25.02
			c4.38,9.71,6.53,20.28,6.53,31.74c0,8.46-2.34,14.93-7.08,19.4c-4.74,4.48-11.33,7.35-19.78,8.6l-92.22,13.81
			c2.73,8.22,8.33,14.37,16.8,18.49c8.45,4.1,18.14,6.15,29.11,6.15c10.21,0,19.84-1.31,28.93-3.92s16.5-5.65,22.21-9.15
			c3.98,2.49,7.35,5.97,10.09,10.45s4.1,9.21,4.1,14.19c0,11.2-5.23,19.54-15.68,25.02c-7.96,4.22-16.92,7.08-26.86,8.58
			C741.79,252.03,732.46,252.77,723.74,252.77z M713.29,106.04c-5.99,0-11.15,1-15.5,2.98c-4.35,2.01-7.9,4.56-10.63,7.66
			c-2.73,3.11-4.8,6.61-6.17,10.45c-1.37,3.87-2.19,7.79-2.43,11.77l63.84-10.47c-0.73-4.97-3.46-9.95-8.2-14.93
			C729.45,108.54,722.5,106.04,713.29,106.04z"/>
		<path class="st1" d="M928.72,252.77c-14.68,0-28.32-2.05-40.9-6.15c-12.55-4.12-23.52-10.27-32.85-18.49
			c-9.33-8.2-16.68-18.54-22.03-30.99c-5.35-12.44-8.02-27-8.02-43.68c0-16.42,2.67-30.55,8.02-42.37
			c5.35-11.82,12.4-21.53,21.09-29.12c8.72-7.6,18.69-13.2,29.87-16.8c11.21-3.62,22.67-5.42,34.37-5.42
			c13.19,0,25.19,2.01,36.04,5.99c10.82,3.98,20.15,9.45,27.98,16.42c7.84,6.97,13.95,15.31,18.29,25.02
			c4.38,9.71,6.53,20.28,6.53,31.74c0,8.46-2.34,14.93-7.08,19.4c-4.74,4.48-11.33,7.35-19.78,8.6l-92.22,13.81
			c2.73,8.22,8.33,14.37,16.8,18.49c8.45,4.1,18.14,6.15,29.11,6.15c10.21,0,19.84-1.31,28.93-3.92c9.09-2.61,16.5-5.65,22.21-9.15
			c3.98,2.49,7.35,5.97,10.09,10.45s4.1,9.21,4.1,14.19c0,11.2-5.23,19.54-15.68,25.02c-7.96,4.22-16.92,7.08-26.86,8.58
			C946.77,252.03,937.44,252.77,928.72,252.77z M918.27,106.04c-5.99,0-11.15,1-15.5,2.98c-4.35,2.01-7.9,4.56-10.63,7.66
			c-2.73,3.11-4.8,6.61-6.17,10.45c-1.37,3.87-2.19,7.79-2.43,11.77l63.84-10.47c-0.73-4.97-3.46-9.95-8.2-14.93
			C934.43,108.54,927.47,106.04,918.27,106.04z"/>
	</g>
</g>
</svg>
