<?xml version="1.0" encoding="utf-8"?>
<!-- Generator: Adobe Illustrator 23.0.6, SVG Export Plug-In . SVG Version: 6.00 Build 0)  -->
<svg version="1.1" id="Capa_1" xmlns="http://www.w3.org/2000/svg" xmlns:xlink="http://www.w3.org/1999/xlink" x="0px" y="0px"
	 viewBox="0 0 400 208" style="enable-background:new 0 0 400 208;" xml:space="preserve">
<style type="text/css">
	.st0{fill:#FC4C62;}
	.st1{fill:#FFFF88;}
	.st2{fill:#02C8A7;}
	.st3{fill:#FFFFFF;}
</style>
<g>
	<path class="st0" d="M139.68,206.42c0.06-1.49,0.11-2.97,0.19-4.46c0.18-0.57,0.35-1.14,0.53-1.71c-0.18,2.05-0.33,4.1-0.46,6.15
		c3.29-0.25,6.57-0.46,9.86-0.56c0.43-5.66,1.04-11.3,2.04-16.9c4.31-24.07,17.59-45.97,34.2-63.63
		c15.6-16.59,36.07-29.55,59.4-30.35c24.06-0.82,42.75,12.01,54.95,32.08c10.74,17.65,17.71,37.59,23.94,57.49
		c0.29,6.22,1.03,12.42,2.26,18.52c0.06,1.49,0.1,2.98,0.15,4.47c12.47-0.93,25.35-0.06,37.64,0.46
		c-1.2-49.86-32.29-100.45-71.7-128.16c-28.66-20.15-64.29-28.37-98.72-20.75c-17.65,3.91-34.24,12.02-47.02,24.96
		c-12.71,12.87-21.79,29.11-29.46,45.35c-11.54,24.43-19.51,50.84-21.37,77.66c7.26,0.24,14.51,0.65,21.73,1.42
		C125.13,207.82,132.4,206.99,139.68,206.42z M351.93,188.12c-1.65-7.09-3.72-14.07-6.21-20.9c-0.43-1.59-0.87-3.18-1.32-4.77
		C347.65,170.73,350.22,179.36,351.93,188.12z M328.99,132.35c-0.11,0.04-0.22,0.09-0.33,0.13c-0.45-0.7-0.89-1.41-1.35-2.1
		c0.09-0.05,0.18-0.11,0.27-0.17C328.05,130.93,328.53,131.63,328.99,132.35z M216.85,90.56c1.07-0.2,2.15-0.41,3.22-0.63
		c-1.78,0.65-3.55,1.37-5.29,2.14C215.47,91.56,216.15,91.06,216.85,90.56z M123.31,177.45c0.57-1.71,1.17-3.41,1.83-5.09
		c-0.04,0.28-0.08,0.57-0.12,0.85c-0.75,2.03-1.49,4.07-2.24,6.1C122.95,178.69,123.13,178.07,123.31,177.45z"/>
	<path class="st1" d="M78.56,206.7c6.81,0.07,13.64,0.16,20.46,0.43c0.24-10.65,0.74-21.39,1.91-32.02c1.07-0.54,2-1.49,2.58-2.91
		c6.93-17.03,13.15-34.63,21.3-51.12c1.02-2.07,2.11-4.09,3.26-6.07c8.99-12.8,19.92-24.16,32.4-33.61
		c10.74-4.97,21.48-11.36,32.45-16.97c2.32-0.94,4.66-1.84,7.01-2.71c0.16-0.05,0.32-0.1,0.48-0.15c8.28-1.73,16.73-2.68,25.21-2.78
		c15.83-0.19,33.09,1.9,47.3,9.29c13.55,7.04,24.8,18.66,34.49,30.28c9.24,11.07,17.05,23.34,23.64,36.15
		c11.79,22.89,19.55,47.74,24.43,73.06c3.95,0.18,7.87,0.37,11.72,0.52c5.23,0.2,10.45,0.3,15.66,0.38
		c0.33-0.04,0.66-0.08,0.99-0.11c-0.98-13.5-3.15-26.85-6.57-39.9c-1.59-20.52-10.41-39.44-21.96-56.28
		c-11.13-16.23-24.46-31.03-39.77-43.42c-30.19-24.41-73.98-44.82-113.4-33.91c-6.36,1.76-12.4,4.27-18.18,7.31
		c-3.17,1.23-6.28,2.67-9.33,4.22c-7.46,3.46-14.6,7.68-21.35,12.52c-11.42,7.37-22.33,15.56-32.28,24.81
		c-12.7,11.8-23.79,25.46-32.01,40.76c-8.72,16.22-14.44,33.89-18.7,51.75c-2.4,10.06-4.37,20.22-6.23,30.39
		C68.93,206.59,73.77,206.65,78.56,206.7z M361.44,186.73c0.09,0.9,0.17,1.8,0.24,2.7c-0.3-1.22-0.61-2.44-0.93-3.66
		c0.09-0.12,0.18-0.23,0.25-0.35C361.15,185.85,361.29,186.29,361.44,186.73z"/>
	<path class="st2" d="M68.92,206.62c4.06-15.75,8.24-31.46,12.57-47.14c4.03-9.47,8.05-18.89,11.11-28.61
		c6.83-11.73,13.71-23.43,20.89-34.94c0.15-0.14,0.3-0.29,0.45-0.43c13.68-12.93,27.52-26.39,42.46-37.86
		c20.8-15.97,46.71-24.78,72.83-25.29c2.18,0.05,4.35,0.14,6.53,0.26c14.89,4.34,29.14,10.81,41.63,18.35
		c27.69,16.72,49.27,41.44,65.13,69.41c15.52,27.39,25.71,57.4,33.06,87.95c2.43,0.06,4.86,0.1,7.29,0.14
		c5.55-0.61,11.26-1.06,16.7-0.58c-7.63-26.17-15.19-52.44-26.02-77.47c-11.22-25.92-26.06-50.61-46.77-70.06
		c-18.39-17.27-40.75-29.65-64.64-37.56c-12.49-4.13-25.5-7.48-38.53-9.35c-11.13-1.59-22.28-0.51-33.3,1.41
		c-4.19,1.13-8.35,2.31-12.46,3.55c-21.7,6.57-42.97,20.04-58.57,36.44c-15.96,16.78-30.67,33.94-41.69,54.41
		c-11.86,22.04-21.46,45.28-29.55,68.94c-3.34,9.78-6.12,19.7-8.75,29.68C49.08,206.73,59.05,206.57,68.92,206.62z M160.03,41.88
		c1.4-0.47,2.8-0.95,4.22-1.41c-1.26,0.74-2.5,1.52-3.74,2.3C160.38,42.46,160.22,42.16,160.03,41.88z"/>
	<path class="st3" d="M123.9,42.02c1.38-3.04,1.93-6.66-0.26-9.49c-1.03-1.33-2.4-2.23-3.91-2.69c-0.98-0.42-2.1-0.52-3.15-0.3
		c-0.28,0.03-0.57,0.06-0.86,0.12c-1.96,0.4-3.57,1.66-4.57,3.32c-1.76,1.74-2.51,4.42-1.71,6.9c0.93,2.89,3.39,5.22,6.31,6.03
		C119.05,46.81,122.51,45.08,123.9,42.02z"/>
	<path class="st3" d="M119.61,16.83c3.57-1.27,6.07-4.34,6.16-8.2c0.09-4.08-3.03-8.24-7.15-8.79c-1.62-0.22-3.19-0.02-4.6,0.67
		c-1.77,0.47-3.38,1.55-4.51,3.19c-1.98,2.88-1.73,7.01,0.25,9.8C111.95,16.57,115.95,18.14,119.61,16.83z"/>
	<path class="st3" d="M156.5,15.57c0.17-0.21,0.33-0.43,0.47-0.66c1.44-1.54,2.18-4.03,0.92-5.88c-0.34-1.42-1.05-2.78-2.14-3.88
		c-2.98-3.02-7.03-3.4-10.8-1.81c-0.72,0.3-1.28,0.85-1.68,1.51c-0.43,0.43-0.8,0.92-1.11,1.48c-1.81,3.28-0.86,7.25,1.78,9.68
		c1.15,1.42,2.73,2.47,4.6,2.86C151.7,19.52,154.86,18.1,156.5,15.57z"/>
	<path class="st3" d="M43.51,117.29c2.43,0,4.85-1.08,6.2-3.15c2.12-3.26,0.61-7.31-2.37-9.39c-1.45-1.01-3.23-1.36-4.93-1.14
		c-3.51-0.22-6.65,2.39-6.83,6.14c-0.11,2.2,0.91,4.11,2.47,5.46c0.01,0.02,0.03,0.03,0.04,0.05
		C39.54,116.73,41.56,117.43,43.51,117.29z"/>
	<path class="st3" d="M25.82,96.16c3.84-7.62-7.42-14.72-13.33-9.39c-2.54,2.29-2.9,6.02-1.42,8.99c1.03,2.06,3.08,3.45,5.32,3.91
		c0.2,0.07,0.41,0.14,0.61,0.2C20.35,100.81,24.23,99.32,25.82,96.16z"/>
	<path class="st3" d="M53.45,26.69c2.33-0.5,4.44-2.11,5.26-4.65c0.69-2.15,0.19-4.28-0.98-5.96c-0.24-0.41-0.51-0.78-0.79-1.06
		c-0.26-0.26-0.57-0.49-0.9-0.7c-1.72-1.29-3.97-1.89-6.2-1.26c-5.15,1.45-7.26,8.31-3.49,12.23
		C48.22,27.24,51.06,27.63,53.45,26.69z"/>
	<path class="st3" d="M66.65,87.36c1.37-2.51,1-5.64-0.98-7.73c-1.77-1.86-4.5-2.45-6.94-1.83c-2.09,0.53-3.71,2.67-3.67,4.82
		l0.03,1.84c0,0.23,0,0.46,0.01,0.69c0.08,1.84,0.93,3.32,2.48,4.32c0.69,0.44,1.46,0.72,2.27,0.83
		C62.47,90.95,65.31,89.81,66.65,87.36z"/>
	<path class="st3" d="M46.93,89.03c0-6.43-10-6.45-10,0C36.93,95.46,46.93,95.47,46.93,89.03z"/>
	<path class="st3" d="M11.35,66.1c2.35-0.08,4.51-1.24,5.81-4c3.43-7.28-3.09-17.67-11.58-14.32C5.28,47.9,5,48.04,4.73,48.18
		c-3.42,1.27-5.16,5.11-4.7,8.61c0.12,0.93,0.43,1.85,0.88,2.72c1.01,3.18,3.37,5.92,6.79,6.64C8.98,66.42,10.21,66.38,11.35,66.1z"
		/>
	<path class="st3" d="M212.24,142.92c0.62-0.2,1.16-0.55,1.61-1.03c0.49-0.45,0.83-0.99,1.03-1.61c0.31-0.6,0.46-1.24,0.43-1.93
		c-0.06-0.44-0.12-0.89-0.18-1.33c-0.24-0.85-0.67-1.58-1.29-2.21c-0.34-0.26-0.67-0.52-1.01-0.78c-0.78-0.45-1.62-0.68-2.52-0.68
		h-1.13c-0.69-0.03-1.33,0.12-1.93,0.43c-0.62,0.2-1.16,0.55-1.61,1.03c-0.49,0.45-0.83,0.99-1.03,1.61
		c-0.31,0.6-0.46,1.24-0.43,1.93c0.06,0.44,0.12,0.89,0.18,1.33c0.24,0.85,0.67,1.58,1.29,2.21c0.34,0.26,0.67,0.52,1.01,0.78
		c0.78,0.45,1.62,0.68,2.52,0.68h1.13C211,143.38,211.64,143.23,212.24,142.92z"/>
	<path class="st3" d="M198.5,164.18c0.36-0.85,0.46-1.68,0.34-2.59c0-0.45-0.12-0.87-0.34-1.26c-0.2-0.62-0.55-1.16-1.03-1.61
		c-0.61-0.77-1.22-1.54-1.83-2.3c-0.74-0.94-2.4-1.46-3.54-1.46c-1.23,0-2.69,0.54-3.54,1.46c-0.37,0.4-0.69,0.85-0.94,1.34
		c-0.11,0.15-0.23,0.29-0.32,0.46c-0.59,1.12-0.99,2.63-0.5,3.85c0.51,1.28,0.73,1.73,1.59,2.77c0.44,0.52,1,0.94,1.57,1.31
		c1.13,0.74,2.63,1.15,3.98,1.11C195.95,167.19,197.71,166.05,198.5,164.18z"/>
	<path class="st3" d="M216.09,165.33c1.2-0.29,2.37-1.25,2.99-2.3c0.32-0.54,0.54-1.21,0.64-1.9c0.64-1.74,0.35-3.81-1.1-5.29
		c-0.58-0.59-1.3-1.02-2.08-1.3c-0.1-0.13-0.19-0.26-0.31-0.39c-0.87-0.87-2.29-1.52-3.54-1.46c-1.29,0.06-2.63,0.48-3.54,1.46
		c-0.86,0.94-1.56,2.22-1.46,3.54c0.09,1.26,0.29,2.24,0.94,3.35c0.31,0.53,0.7,0.99,1.14,1.41c0.08,0.16,0.17,0.33,0.26,0.48
		C211.36,165,213.68,165.92,216.09,165.33z"/>
	<path class="st3" d="M303.32,145.11c5.98-1.45,11.82-4.28,17.55-6.52c7.24-2.84,14.44-5.8,21.62-8.81
		c6.98-2.93,13.93-5.91,20.87-8.91c6.22-2.69,14.96-4.92,19.66-10.1c7.11-7.83,2.48-20.28-6.7-23.7c-2.67-0.99-4.67,0.34-5.55,2.33
		c-6.3,0.57-13.11,3.63-18.2,5.53c-13.4,4.99-26.76,10.12-40.06,15.39c-6.65,2.63-13.29,5.3-19.91,8
		c-4.72,1.93-11.43,3.46-10.95,9.89c0.32,4.31,3.84,9.22,6.75,12.3C292.38,144.71,297.63,146.49,303.32,145.11z M360.59,109.4
		c-0.99,0.35-1.99,0.71-2.98,1.06c3.87-1.74,7.79-3.34,11.81-4.59c-1.2,0.61-2.54,1.26-3.96,1.92
		C363.81,108.33,362.17,108.84,360.59,109.4z"/>
	<path class="st3" d="M327.68,169.34c9.2-2.83,18.28-6.11,27.41-9.17c9.3-3.12,18.6-6.25,27.9-9.37
		c5.46-1.83,18.27-3.51,16.74-11.88c-1.46-7.99-12.61-8.32-18.74-7.66c-8.73,0.94-17.39,3.84-25.71,6.55
		c-17.18,5.61-33.78,12.97-49.54,21.82c-0.65,0.22-1.31,0.43-1.96,0.64c-3.61,1.21-5.47,7.31-1.19,9.14
		C310.94,172.98,319.17,171.96,327.68,169.34z"/>
</g>
</svg>
