<?xml version="1.0" encoding="utf-8"?>
<!-- Generator: Adobe Illustrator 23.0.6, SVG Export Plug-In . SVG Version: 6.00 Build 0)  -->
<svg version="1.1" id="Capa_1" xmlns="http://www.w3.org/2000/svg" xmlns:xlink="http://www.w3.org/1999/xlink" x="0px" y="0px"
	 viewBox="0 0 314 537" style="enable-background:new 0 0 314 537;" xml:space="preserve">
<style type="text/css">
	.st0{clip-path:url(#SVGID_2_);fill:#FC4C62;}
	.st1{clip-path:url(#SVGID_2_);fill:#FFFFFF;}
	.st2{clip-path:url(#SVGID_2_);fill:#FFFF88;}
</style>
<g>
	<defs>
		<rect id="SVGID_1_" y="2" width="307" height="536"/>
	</defs>
	<clipPath id="SVGID_2_">
		<use xlink:href="#SVGID_1_"  style="overflow:visible;"/>
	</clipPath>
	<path class="st0" d="M210.01,412.13c1.1-1.74,1.21-4.06-0.7-5.94c-13.69-13.46-25.19-27.57-33.18-45.16
		c-7.49-16.48-11.83-34.42-14.26-52.31c-5.62-41.39-0.45-83.18,0.38-124.7c0.75-37.74-2.53-75.79-18.64-110.41
		c-14.51-31.17-39.26-56.18-72.5-66.56C44.62-1.21,15.84-1.68-11.78,3.5c4.95,15.06,1.79,32.36-0.27,47.61
		c-1.13,8.34-2.42,16.72-2.57,25.15c-0.1,5.58,0.19,11.14,0.16,16.67c17.5-5.48,37.06-3.84,51.42,8.74
		c10.82,9.48,17.67,22.68,22.96,35.84c6.29,15.67,11.22,31.91,14.8,48.41c3.59,16.52,5.79,33.31,6.55,50.21
		c0.78,17.32-0.18,34.64-0.48,51.95c-0.58,33.57,3.8,66.85,17.17,97.89c11.68,27.1,30.37,50.73,53.53,68.87
		c0.14,0.12,0.29,0.24,0.45,0.35c1.38,1.08,2.78,2.13,4.19,3.17c0.34,0.48,0.79,0.91,1.34,1.26c6.24,3.87,13.12,6.67,20.37,7.93
		c0.08,0.01,0.16,0.03,0.24,0.04c6.75,2.2,16.74,4.85,22.93,0.97c6.93-4.34,6.94-15.17,7.92-22.32c1.39-10.11,2.23-20.26,2.54-30.46
		C211.54,414.15,210.94,412.94,210.01,412.13z M91.92,318.58c-0.14-1.69-0.27-3.39-0.38-5.09c0.09,0.06,0.19,0.1,0.28,0.16
		c0.04,0.19,0.07,0.37,0.11,0.56C91.91,315.66,91.9,317.12,91.92,318.58z M128.55,142.38c0.09-0.06,0.17-0.13,0.25-0.19
		c0.07,0.73,0.16,1.47,0.23,2.2C128.86,143.72,128.71,143.05,128.55,142.38z M185.64,416.84c0.21,0.58,0.38,1.17,0.57,1.75
		c0.08,0.39,0.15,0.79,0.23,1.18c-0.05,0.22-0.09,0.44-0.13,0.66c-0.26-0.74-0.5-1.46-0.72-2.15
		C185.59,417.79,185.61,417.32,185.64,416.84z M186.91,458.44c-0.21,0-0.43-0.02-0.64-0.02c0.11-0.23,0.18-0.48,0.24-0.73
		c0.32,0.32,0.69,0.57,1.09,0.75C187.38,458.45,187.16,458.45,186.91,458.44z M201.5,415.62c-0.08-0.19-0.19-0.35-0.3-0.51
		c-0.02-1.07-0.12-2.14-0.34-3.22c0.45,0.45,0.9,0.9,1.35,1.35C201.81,413.89,201.55,414.69,201.5,415.62z"/>
	<path class="st1" d="M201.62,424.87c-4.07-3-8.99-4.39-13.74-6.06c-10.8-10.96-20.38-23.1-28.46-36.18
		c-3.98-10.2-7.07-20.73-9.81-30.56c-10.65-38.16-16.3-76.6-17.39-116.19c-1.88-68.34,0.6-151.41-58.68-198.57
		C50.38,18.9,19.18,10.5-9.25,17.91c0.57,11.1-1.38,22.64-2.81,33.2c-0.24,1.75-0.48,3.51-0.72,5.27l1.9-0.48
		c-0.66,0.29-1.31,0.6-1.96,0.91c-0.54,3.96-1.04,7.93-1.38,11.9c11.01-6.01,23.2-10.27,35.78-9.5
		c16.87,1.03,28.67,13.28,37.94,26.25c19.02,26.64,29.58,58.08,35.88,89.95c1.65,8.33,2.98,16.68,4.09,25.05
		c-3.33,65.96-4.78,135.81,30.18,194.43c0.64,1.07,1.48,1.74,2.39,2.09c2.24,3.59,4.62,7.1,7.13,10.51
		c11.82,16.05,25.68,31.49,43.48,39.37c2.66,1.3,5.45,2.32,8.39,3.04c4.36,1.24,8.93,2.04,13.76,2.3c3.08,0.16,4.67-2.04,4.8-4.42
		c0.3-0.65,0.49-1.34,0.54-2.04C212.92,437.54,208.14,429.69,201.62,424.87z M102.48,93.13c-0.7-1.38-1.43-2.75-2.17-4.11
		c-0.47-1.47-0.95-2.94-1.44-4.42c2,3.86,3.83,7.81,5.5,11.84C103.76,95.32,103.13,94.22,102.48,93.13z M110.08,161.04
		c-0.28-2.06-0.58-4.11-0.9-6.17c0.11,0.11,0.21,0.23,0.32,0.32c0.41,1.93,0.81,3.87,1.17,5.81
		C110.48,161.01,110.28,161.02,110.08,161.04z"/>
	<path class="st2" d="M280.27,458.51c2.84-3.59,5.69-7.18,8.53-10.76c5.69-7.18,11.37-14.35,17.06-21.53
		c2.55-3.22,1.16-8.56-3.54-8.54c-9.04,0.06-18.08,0.11-27.12,0.17c-3.87,0.02-7.75,0.06-11.62,0.07c-2.53,0.01-4.7,0.46-6.61-1.44
		c-0.99-0.99-1.63-2.86-2.28-4.04c-7.87-14.24-17.04-27.64-27.3-40.27c-2.19-2.69-6.2-1.37-7.85,1.01
		c-7.87,11.31-14.92,23.16-20.99,35.54c-1.13,2.31-2.18,6.49-4.44,7.85c-2.5,1.51-7.42,0.85-10.27,1.01l-9.61,0.57
		c-13.61,0.21-27.17,1.86-40.5,4.89c-1.99,0.45-3.08,1.74-3.44,3.23c-0.19,0.03-0.38,0.06-0.57,0.09c-4.59,0.75-4.24,6.48-1.48,8.89
		c0.24,1.73,1.25,3.4,2.76,4.76c7.17,6.48,16.68,11.07,25.56,14.64c8.02,3.23,16.7,5.5,23.76,10.62c0.01,0.01,0.02,0.02,0.03,0.02
		c0.08,0.18,0.17,0.35,0.28,0.52c-2.5,8.32-5.15,16.6-7.93,24.83c-2.52,4.36-4.53,8.96-4.73,13.6c-2.28,6.35-4.63,12.67-7.07,18.95
		c-1.64,4.23,3.84,7.68,7.34,5.65c10.6-6.14,21.19-12.29,31.79-18.43c9.82-5.69,19.77-12.97,31.13-15.02
		c1.05-0.19,1.85-0.62,2.43-1.19c17.55,8.19,35.76,14.75,54.51,19.52c3.48,1.36,6.99,2.65,10.53,3.85c4.3,1.46,7.64-3.72,5.65-7.35
		c-1.37-2.5-2.75-5.01-4.12-7.51c-1.11-2.65-2.4-5.21-3.85-7.69c-0.07-0.24-0.16-0.48-0.27-0.72c-4.53-9.88-9.83-19.32-15.83-28.31
		c-0.81-1.45-1.62-2.9-2.44-4.35L280.27,458.51z M154.74,435.16c-1.16,0.06-2.12,0.42-2.87,0.96c-0.82-0.29-1.64-0.59-2.46-0.9
		c1.58-0.2,3.17-0.38,4.76-0.52c1.04-0.09,2.08-0.15,3.13-0.22c0.01,0.18,0.02,0.37,0.05,0.55
		C156.48,435.07,155.61,435.12,154.74,435.16z"/>
</g>
</svg>
