<?xml version="1.0" encoding="utf-8"?>
<!-- Generator: Adobe Illustrator 23.0.6, SVG Export Plug-In . SVG Version: 6.00 Build 0)  -->
<svg version="1.1" id="Capa_1" xmlns="http://www.w3.org/2000/svg" xmlns:xlink="http://www.w3.org/1999/xlink" x="0px" y="0px"
	 viewBox="0 0 195 198" style="enable-background:new 0 0 195 198;" xml:space="preserve">
<style type="text/css">
	.st0{fill:#FC4C62;}
	.st1{fill:#FFFF88;}
</style>
<path class="st0" d="M135.01,86.14c-1.71-3.95-4.04-7.35-6.78-10.2c-0.58-1.52-1.71-2.91-3.53-3.96c-1.73-0.99-3.51-1.85-5.32-2.61
	c-5.34-2.72-11.32-3.96-17.28-3.57c-16.86-0.2-33.07,8.92-38.23,27.15c-7.22,25.54,15.83,47.89,41.08,44.19
	C129.05,133.63,144.97,109.11,135.01,86.14z"/>
<path class="st1" d="M191.05,90.09c1.26-13.35,1.55-27.26-5.47-39.08c-0.34-0.96-0.69-1.92-1.08-2.87
	c-2.46-5.92-6.04-10.83-10.4-14.94c-2-2.58-4.18-5.01-6.58-7.24c-11.4-10.54-26.17-15.13-40.84-19.09
	c-16.78-4.53-34.09-8.76-51.54-6C60.17,3.25,46.46,11.3,35.82,21.9c-9.5,9.47-16.52,21.17-20.9,33.83
	c-2.76,4.73-5.17,9.69-7.2,14.82c-5.53,14.01-8.72,29.99-7.35,45.07c0.75,8.25,3.21,15.56,6.96,22.23
	c1.24,6.49,3.19,12.82,6.15,18.77c6.79,13.62,19.15,22.85,32.66,29.18c24.2,11.35,52.39,15.63,78.56,9.18
	c27.54-6.78,47.61-26.21,56.98-52.76c4.11-11.64,6.13-23.88,7.61-36.13C190.35,100.8,190.98,95.42,191.05,90.09z M137.16,163.19
	c-0.85,0.59-1.72,1.14-2.58,1.7c-14.12,4.75-30.65,4.29-44.31,1c-21.4-5.16-41.34-18.04-52.93-37.02
	c-8.18-13.39-11.7-30.04-10.72-46.41C33.6,66.6,46.45,53.11,62.18,45.47c18.17-8.82,39.54-10.97,59.4-7.93
	c14.72,8.69,32.61,14.53,43.43,25.91c0.85,2,1.58,4.06,2.17,6.18c0.77,2.78,2.81,4.52,5.2,5.31c0.17,0.44,0.31,0.9,0.46,1.36
	c0,4.41-0.27,8.83-0.56,13.11c-0.51,7.8-1.07,16.2-2.32,24.52C164.61,133.35,153.69,151.57,137.16,163.19z"/>
</svg>
