<?xml version="1.0" encoding="utf-8"?>
<!-- Generator: Adobe Illustrator 23.0.6, SVG Export Plug-In . SVG Version: 6.00 Build 0)  -->
<svg version="1.1" id="Capa_1" xmlns="http://www.w3.org/2000/svg" xmlns:xlink="http://www.w3.org/1999/xlink" x="0px" y="0px"
	 viewBox="0 0 195 208" style="enable-background:new 0 0 195 208;" xml:space="preserve">
<style type="text/css">
	.st0{fill:#02C8A7;}
	.st1{fill:#FC4C62;}
</style>
<path class="st0" d="M129.46,91.07c-3.67-13.81-14.07-25.59-28.87-28.33C79.98,58.92,58.31,74.02,53.82,94.3
	c-4.72,21.31,11.74,41.45,32.07,46.05c22.21,5.02,45.91-11.52,46.55-34.98C132.58,100.37,131.48,95.5,129.46,91.07z"/>
<path class="st1" d="M175.91,151.91c18.52-31.2,29.03-75.21,5.61-103.81c-14.39-17.57-38.3-27.34-58.96-35.19
	c-19.03-7.23-48.77-19.6-68.3-8.45c-6.09,3.48-11.59,8.44-16.53,14.16C14.15,36.71,0.99,67.44,0.3,97.59
	c-0.16,7.08,0.28,14.15,1.18,21.18c-0.03,0.68-0.09,1.36-0.11,2.05c-0.61,20.08,2.19,41.8,14.13,58.55
	c6.11,8.58,14.1,14.83,23.1,19.21c6.01,3.65,12.97,6.18,21.03,7.66c33.64,6.18,69.5-4.25,94.65-27.22c0.09-0.08,0.18-0.16,0.27-0.23
	c0.28-0.26,0.57-0.51,0.85-0.77C163.72,170.59,170.75,161.84,175.91,151.91z M157.2,137.41c-5.03,9.77-11.81,18.39-19.85,25.54
	c-13.56,11.15-30.91,18.12-48.19,20.22c-12.89,1.57-27.6,1.06-39.68-4.67c-3.33-2.13-6.19-4.88-8.3-8.43
	c-8.98-15.08-14.43-35.14-16.69-53c1.27-26.12,9.36-52.36,24.13-73.76c21.99-12.63,58.04,0,77.8,10.26
	c28.84,14.98,43.34,42.98,34.1,75.1c-0.8,2.79-1.84,5.46-2.99,8.06C157.42,136.96,157.31,137.19,157.2,137.41z"/>
</svg>
