<?xml version="1.0" encoding="utf-8"?>
<!-- Generator: Adobe Illustrator 23.0.6, SVG Export Plug-In . SVG Version: 6.00 Build 0)  -->
<svg version="1.1" id="Capa_1" xmlns="http://www.w3.org/2000/svg" xmlns:xlink="http://www.w3.org/1999/xlink" x="0px" y="0px"
	 viewBox="0 0 195 198" style="enable-background:new 0 0 195 198;" xml:space="preserve">
<style type="text/css">
	.st0{fill:#FFFF88;}
	.st1{fill:#02C8A7;}
</style>
<path class="st0" d="M116.12,79.19c-5.99-3.83-12.87-5.03-19.18-3.52c-0.82-0.12-1.69-0.15-2.63-0.09
	c-14.12,0.98-26.45,11.05-27.52,25.75c-0.99,13.69,9.33,26.6,22.77,29.01C116.37,135.16,143.3,96.59,116.12,79.19z"/>
<path class="st1" d="M187.67,66.28c-10.09-19.69-29.72-32.85-49.66-41.04c-3.05-1.25-6.16-2.38-9.31-3.4
	C99,6.56,64.72-5.31,37.02,18.58c-5.49,4.74-10.03,10.52-13.76,16.98C11.53,48.33,3.49,64.45,1.25,81.99
	c-2.42,18.94,1.82,37.68,10.95,53.61c9.54,36.34,43.63,60.53,82,58.73c40.14-1.88,78.43-28.38,94.1-65.37
	C196.85,108.8,197.82,86.09,187.67,66.28z M38.03,59.35c0.59-1.92,1.27-3.81,2.02-5.68c20.12-15.34,47.13-18.44,71.63-12.94
	c3.34,0.75,6.76,1.68,10.21,2.78c10.3,5,20.98,10.49,29.47,17.17c12.2,9.59,9.73,30.71,6.73,44.04
	c-3.5,15.53-10.82,30.79-22.23,42.05c-13.21,13.04-29.75,14-47.37,11.84c-23.04-2.81-43.88-14.24-55.51-32.39
	C28.27,104.4,32.2,78.23,38.03,59.35z"/>
</svg>
