<svg viewBox="0 0 48 48" xmlns="http://www.w3.org/2000/svg" xmlns:xlink="http://www.w3.org/1999/xlink" >
<defs>



 <path fill="#000000" id="i-461" d="M24,2C11.869,2,2,11.869,2,24s9.869,22,22,22s22-9.869,22-22S36.131,2,24,2z M43.946,22.947 C33.761,22.412,25.59,14.238,25.056,4.053C35.241,4.59,43.412,12.762,43.946,22.947z M4.054,25.063 c10.185,0.535,18.359,8.699,18.894,18.885C12.764,43.412,4.593,35.244,4.054,25.063z M24.947,43.951 c-0.535-11.293-9.606-20.363-20.899-20.898c0.484-10.264,8.721-18.508,18.98-19.004c0.534,11.297,9.625,20.391,20.923,20.924 C43.453,35.232,35.21,43.467,24.947,43.951z"/> 
</defs>

<use x="0" y="0" xlink:href="#i-461"/>

</svg>