<?xml version="1.0" ?><!DOCTYPE svg  PUBLIC '-//W3C//DTD SVG 1.1//EN'  'http://www.w3.org/Graphics/SVG/1.1/DTD/svg11.dtd'><svg enable-background="new 0 0 32 32"  id="Слой_1" version="1.1" viewBox="0 0 32 32"  xml:space="preserve" xmlns="http://www.w3.org/2000/svg" xmlns:xlink="http://www.w3.org/1999/xlink"><path d="M31.706,15.313l-6.899-6.999c-0.391-0.394-1.024-0.394-1.414,0  c-0.391,0.395-0.391,1.034,0,1.429l5.201,5.276H17.326l-6.625-6.721C10.531,8.127,10.24,8,9.992,8h-9  C0.119,8-0.331,9.102,0.285,9.724l6.196,6.285l-6.196,6.285C-0.316,22.901,0.094,24,1.084,24H9.9c0.292,0,0.58-0.056,0.8-0.278  l6.609-6.704h11.303l-5.219,5.294c-0.391,0.394-0.391,1.034,0,1.429c0.391,0.394,1.024,0.394,1.414,0l6.9-6.999  c0.189-0.192,0.286-0.456,0.286-0.723C31.992,15.783,31.875,15.483,31.706,15.313z M9.575,22H3.397l4.911-4.982h6.177L9.575,22z   M8.326,15.018L3.379,10h6.178l4.947,5.018H8.326z" fill="#121313" id="Vintage_Arrow_Right_2_"/><g/><g/><g/><g/><g/><g/></svg>