<?xml version="1.0" ?><!DOCTYPE svg  PUBLIC '-//W3C//DTD SVG 1.1//EN'  'http://www.w3.org/Graphics/SVG/1.1/DTD/svg11.dtd'><svg enable-background="new 0 0 32 32"  id="Слой_1" version="1.1" viewBox="0 0 32 32"  xml:space="preserve" xmlns="http://www.w3.org/2000/svg" xmlns:xlink="http://www.w3.org/1999/xlink"><path d="M31,9c0.55,0,1-0.45,1-1V1c0,0,0,0,0-0.001c0-0.132-0.027-0.263-0.078-0.386  c-0.01-0.024-0.031-0.041-0.043-0.065c-0.046-0.091-0.095-0.182-0.17-0.257c-0.075-0.075-0.165-0.123-0.255-0.169  c-0.024-0.013-0.042-0.034-0.067-0.044C31.263,0.027,31.132,0,31.001,0c0,0,0,0,0,0h-7c-0.55,0-1,0.45-1,1s0.45,1,1,1h4.586  L16,14.586L3.414,2H8c0.55,0,1-0.45,1-1S8.55,0,8,0H1c0,0,0,0-0.001,0C0.868,0,0.737,0.027,0.614,0.079  c-0.024,0.01-0.042,0.031-0.065,0.043c-0.091,0.046-0.181,0.095-0.257,0.17C0.217,0.367,0.169,0.457,0.123,0.547  C0.11,0.571,0.089,0.589,0.079,0.614C0.027,0.737,0,0.868,0,0.999c0,0,0,0,0,0v7c0,0.55,0.45,1,1,1s1-0.45,1-1V3.414L14.586,16l-4,4  H5c-0.55,0-1,0.45-1,1s0.45,1,1,1h3.586l-2,2H1c-0.55,0-1,0.45-1,1s0.45,1,1,1h5v5c0,0.55,0.45,1,1,1s1-0.45,1-1v-5.586l2-2V27  c0,0.55,0.45,1,1,1s1-0.45,1-1v-5.586l4-4l4,4V27c0,0.55,0.45,1,1,1s1-0.45,1-1v-3.586l2,2V31c0,0.55,0.45,1,1,1s1-0.45,1-1v-5h5  c0.55,0,1-0.45,1-1s-0.45-1-1-1h-5.586l-2-2H27c0.55,0,1-0.45,1-1s-0.45-1-1-1h-5.586l-4-4L30,3.414V8C30,8.55,30.45,9,31,9z" fill="#121313" id="Сrossed_Vintage_Arrows"/><g/><g/><g/><g/><g/><g/></svg>