<svg viewBox="0 0 48 48" xmlns="http://www.w3.org/2000/svg" xmlns:xlink="http://www.w3.org/1999/xlink" >
<defs>



 <path fill="#000000" id="i-444" d="M45,28h2c0,2.76-2.92,5-6.5,5c-2.31,0-4.351-0.93-5.5-2.34C33.851,32.07,31.81,33,29.5,33s-4.351-0.93-5.5-2.34 C22.851,32.07,20.81,33,18.5,33s-4.35-0.93-5.5-2.34C11.85,32.07,9.81,33,7.5,33C3.92,33,1,30.76,1,28h2c0,1.629,2.06,3,4.5,3 s4.5-1.371,4.5-3h2c0,1.629,2.06,3,4.5,3s4.5-1.371,4.5-3h2c0,1.629,2.06,3,4.5,3s4.5-1.371,4.5-3h2c0,1.629,2.06,3,4.5,3 S45,29.629,45,28z M23,22h-2V7c0-2.76,2.24-5,5-5s5,2.24,5,5h-2c0-1.65-1.351-3-3-3s-3,1.35-3,3v3h14V7c0-2.76,2.24-5,5-5 s5,2.24,5,5h-2c0-1.65-1.351-3-3-3s-3,1.35-3,3v15h-2v-3H23V22z M23,17h14v-5H23V17z M40.5,44c-2.44,0-4.5-1.371-4.5-3h-2 c0,1.629-2.06,3-4.5,3S25,42.629,25,41h-2c0,1.629-2.06,3-4.5,3S14,42.629,14,41h-2c0,1.629-2.06,3-4.5,3S3,42.629,3,41H1 c0,2.76,2.92,5,6.5,5c2.31,0,4.35-0.93,5.5-2.34c1.15,1.41,3.19,2.34,5.5,2.34s4.351-0.93,5.5-2.34c1.149,1.41,3.19,2.34,5.5,2.34 s4.351-0.93,5.5-2.34c1.149,1.41,3.19,2.34,5.5,2.34c3.58,0,6.5-2.24,6.5-5h-2C45,42.629,42.94,44,40.5,44z"/> 
</defs>

<use x="0" y="0" xlink:href="#i-444"/>

</svg>